<svg xmlns="http://www.w3.org/2000/svg" width="57" height="53" viewBox="0 0 57 53"><defs><linearGradient id="h8rca" x1="28.97" x2="28" y1="52.95" y2=".8" gradientUnits="userSpaceOnUse"><stop offset="0" stop-color="#57d781"/><stop offset="1" stop-color="#25adff"/></linearGradient></defs><g><g><path fill="url(#h8rca)" d="M56.971 6.727v40.295c0 3.267-2.663 5.927-5.935 5.927H5.934c-3.27 0-5.934-2.66-5.934-5.927V6.727C0 3.46 2.663.8 5.934.8h45.102c3.272 0 5.935 2.659 5.935 5.926zm-54.597 0v3.555h52.223V6.727a3.562 3.562 0 0 0-3.56-3.556H5.933a3.562 3.562 0 0 0-3.56 3.556zm52.223 40.295v-34.37H2.374v34.37a3.563 3.563 0 0 0 3.56 3.556h45.102a3.563 3.563 0 0 0 3.561-3.556zM5.934 5.542a1.186 1.186 0 1 1 .002 2.371 1.186 1.186 0 0 1-.002-2.372zm4.748 0a1.186 1.186 0 1 1 .002 2.371 1.186 1.186 0 0 1-.002-2.372zm4.748 0a1.186 1.186 0 1 1 .001 2.371 1.186 1.186 0 0 1-.001-2.372zM28.485 30.43c0 .654-.531 1.186-1.186 1.186h-1.187c0 5.229-4.259 9.48-9.496 9.48-5.236 0-9.495-4.251-9.495-9.48 0-5.23 4.259-9.482 9.495-9.482v-1.185c0-.655.532-1.186 1.187-1.186 5.89 0 10.682 4.787 10.682 10.667zm-4.747 1.186h-5.935a1.187 1.187 0 0 1-1.187-1.186v-5.925c-3.926 0-7.12 3.19-7.12 7.11 0 3.92 3.194 7.112 7.12 7.112 3.927 0 7.122-3.191 7.122-7.111zm2.288-2.371a8.32 8.32 0 0 0-7.036-7.026v7.026zm23.824-5.926c0 .654-.532 1.185-1.187 1.185H34.42a1.187 1.187 0 0 1 0-2.37h14.243c.655 0 1.187.53 1.187 1.185zm0 7.111c0 .654-.532 1.186-1.187 1.186H34.42a1.187 1.187 0 0 1 0-2.37h14.243c.655-.001 1.187.53 1.187 1.184zm0 7.111c0 .654-.532 1.186-1.187 1.186H34.42a1.186 1.186 0 0 1 0-2.37h14.243c.655 0 1.187.53 1.187 1.184z"/></g></g></svg>