<svg xmlns="http://www.w3.org/2000/svg" width="24" height="24" viewBox="0 0 24 24"><g><g><path fill="#fff" d="M23.948 18.596c-.068-.205-.5-.506-1.296-.904a39.775 39.775 0 0 0-.92-.511 85.168 85.168 0 0 1-1.082-.597 36.244 36.244 0 0 1-.912-.528 22.128 22.128 0 0 0-.426-.298 4.786 4.786 0 0 0-.606-.367 1.117 1.117 0 0 0-.486-.12c-.227 0-.51.163-.851.487-.341.324-.654.676-.938 1.057-.284.38-.585.733-.903 1.056-.318.324-.58.486-.784.486a1.16 1.16 0 0 1-.384-.085 3.991 3.991 0 0 1-.35-.144c-.079-.04-.215-.12-.408-.24-.194-.119-.301-.184-.324-.196-1.557-.863-2.892-1.852-4.006-2.965-1.113-1.114-2.102-2.45-2.965-4.006a10 10 0 0 0-.196-.324 6.121 6.121 0 0 1-.24-.41 3.695 3.695 0 0 1-.144-.349 1.154 1.154 0 0 1-.085-.383c0-.205.162-.466.486-.784.324-.318.676-.62 1.056-.903.381-.284.733-.597 1.057-.938.324-.34.486-.625.486-.852 0-.159-.04-.32-.12-.486a4.738 4.738 0 0 0-.366-.605c-.165-.238-.264-.38-.298-.426-.17-.284-.346-.588-.528-.912-.182-.324-.381-.685-.597-1.082a40.558 40.558 0 0 0-.511-.92C5.909.55 5.608.119 5.403.05A.955.955 0 0 0 5.045 0c-.307 0-.707.057-1.201.17-.495.114-.884.233-1.168.358-.568.239-1.17.932-1.807 2.08C.29 3.676 0 4.733 0 5.778c0 .307.02.605.06.895.04.29.11.616.213.98.102.364.184.634.247.81.062.176.179.49.35.946.17.454.272.732.306.835a15.44 15.44 0 0 0 1.415 2.983c.897 1.454 2.121 2.957 3.672 4.508 1.552 1.551 3.054 2.776 4.509 3.673.875.546 1.87 1.017 2.983 1.415.102.034.38.136.835.307.455.17.77.287.946.35.176.062.446.145.81.247.363.102.69.173.98.214.29.039.588.06.895.06 1.045 0 2.102-.29 3.17-.87 1.147-.637 1.84-1.239 2.079-1.807.126-.284.244-.673.358-1.168.114-.494.17-.895.17-1.202a.951.951 0 0 0-.05-.358z"/></g></g></svg>