<svg xmlns="http://www.w3.org/2000/svg" width="66" height="46" viewBox="0 0 66 46"><g><g><path fill="#fff" d="M61.1 19.632c2.77.421 4.9 2.82 4.9 5.706v11.69c0 .606-.491 1.097-1.096 1.097H61.32l.002.073a6.95 6.95 0 0 1-6.941 6.941 6.95 6.95 0 0 1-6.942-6.941l.002-.073h-24.7l.001.073a6.95 6.95 0 0 1-6.941 6.941 6.95 6.95 0 0 1-6.942-6.941l.002-.073h-5.92A2.268 2.268 0 0 1 .676 35.86v-2.411h-3.58a1.096 1.096 0 1 1 0-2.193H7.618a1.096 1.096 0 1 1 0 2.193h-4.75v2.41c0 .041.033.074.073.074h6.3c.942-2.718 3.526-4.677 6.56-4.677 3.035 0 5.62 1.959 6.56 4.677h22.74v-8.257a1.096 1.096 0 1 1 2.193 0v8.257h.528c.941-2.718 3.525-4.676 6.56-4.676 3.034 0 5.618 1.958 6.56 4.676h2.866v-4.822h-1.243a3.438 3.438 0 0 1-3.434-3.435v-2.338c0-.605.491-1.096 1.096-1.096h3.408a3.587 3.587 0 0 0-3.406-2.484h-.003-12.932V23a1.096 1.096 0 0 1-2.192 0V3.125a.073.073 0 0 0-.073-.073H2.941a.073.073 0 0 0-.073.073V23a1.096 1.096 0 0 1-2.192 0V3.125A2.268 2.268 0 0 1 2.941.86H45.03a2.268 2.268 0 0 1 2.265 2.265v2.412h8.257a4.609 4.609 0 0 1 4.603 4.603v1.169c0 .527-.371.967-.867 1.072zm-13.806-9.42h10.668v-.072a2.414 2.414 0 0 0-2.41-2.411h-8.258zm11.53 9.354l-1.79-7.161h-9.74v7.16zM20.55 38.198c0-2.619-2.13-4.75-4.75-4.75a4.755 4.755 0 0 0-4.749 4.75c0 2.62 2.13 4.75 4.75 4.75 2.619 0 4.75-2.13 4.75-4.75zm38.58 0c0-2.619-2.13-4.75-4.749-4.75a4.755 4.755 0 0 0-4.75 4.75c0 2.62 2.131 4.75 4.75 4.75s4.75-2.13 4.75-4.75zm4.677-9.28v-2.484h-2.485v1.242c0 .685.558 1.243 1.243 1.243z"/></g></g></svg>