<svg xmlns="http://www.w3.org/2000/svg" width="70" height="52" viewBox="0 0 70 52"><g><g><path fill="#fff" d="M66.87 38.04A4.334 4.334 0 0 1 70 42.19v8.483a1.025 1.025 0 0 1-2.05 0V42.19c0-1.005-.676-1.9-1.643-2.177l-4.235-1.21a2.435 2.435 0 0 1-.436-.173l-2.6 2.6v9.443a1.025 1.025 0 0 1-2.05 0V41.23l-2.619-2.618c-.35.172-.698.272-.954.345l-.253.072a5.42 5.42 0 0 1 1.517 3.752v7.892a1.025 1.025 0 0 1-2.051 0V42.78a3.37 3.37 0 0 0-2.212-3.158l-6.652-2.419-2.769 4.154a2.114 2.114 0 0 1-1.767.944c-.56 0-1.098-.22-1.499-.621l-1.689-1.69v10.681a1.025 1.025 0 1 1-2.05 0v-10.68l-1.69 1.689a2.114 2.114 0 0 1-1.71.61 2.114 2.114 0 0 1-1.556-.933l-2.769-4.154-6.651 2.419A3.37 3.37 0 0 0 17.4 42.78v7.892a1.025 1.025 0 0 1-2.05 0V42.78a5.4 5.4 0 0 1 .824-2.863l-1.117-.558-1.192 1.132a4.304 4.304 0 0 1-2.972 1.188 4.302 4.302 0 0 1-2.972-1.188L6.729 39.36l-3.427 1.713a2.251 2.251 0 0 0-1.251 2.025v7.575a1.025 1.025 0 0 1-2.051 0v-7.575c0-1.645.914-3.124 2.385-3.86l2.752-1.375c-2.955-1.286-3.888-3.087-3.932-3.177a1.025 1.025 0 0 1 0-.917c.739-1.479.828-4.188.9-6.365.024-.725.047-1.41.09-2.02.35-4.919 4.089-8.628 8.698-8.628 4.608 0 8.347 3.71 8.697 8.628.043.61.066 1.294.09 2.02.072 2.177.161 4.887.9 6.365.145.289.145.629 0 .917-.044.09-.978 1.895-3.927 3.179l.99.495c.386-.273.81-.498 1.268-.664l6.309-2.294a1.024 1.024 0 0 1 .28-.785l1.91-2.007v-3.448c-2.682-2.276-4.386-5.73-4.386-9.563v-2.315a11.853 11.853 0 0 1-1.097-4.984v-2.193c0-5.401 4.395-9.796 9.797-9.796h15.35c.565 0 1.024.46 1.024 1.025V12.3c0 1.725-.368 3.4-1.096 4.984v2.69c0 3.302-1.382 6.49-3.792 8.75-.192.18-.392.351-.593.517v3.37l1.91 2.006c.205.216.3.503.28.785l5.977 2.173 2.066-.59c.847-.242.847-.337.847-.565v-1.481a8 8 0 0 1-3.29-6.47v-1.674l-.525-1.05a5.44 5.44 0 0 1-.571-2.42v-.061a6.515 6.515 0 0 1 6.507-6.508h9.868c.566 0 1.025.46 1.025 1.026v5.284a6.541 6.541 0 0 1-.687 2.91l-.41.82v1.95c0 2.074-.82 4.012-2.308 5.457a7.7 7.7 0 0 1-.98.804v1.413c0 .19.127.36.31.412zM6.579 35a7.647 7.647 0 0 1-2.706-3.338c-.123.885-.305 1.723-.585 2.455.411.503 1.373 1.423 3.291 2.113zm6.828 3.099a2.122 2.122 0 0 1-.25-1.002v-1.092a7.628 7.628 0 0 1-4.527 0v1.092c0 .358-.088.7-.25 1.002l.954.906a2.263 2.263 0 0 0 3.12 0zm2.972-8.492c-1.66-3.653-5.924-4.149-7.25-4.214l-1.54 1.597a1.025 1.025 0 0 1-1.476-1.424l1.85-1.918c.187-.194.441-.306.71-.314.075-.002 1.843-.042 3.9.618 2.226.716 3.95 1.982 5.065 3.701l-.006-.183a54.13 54.13 0 0 0-.086-1.942c-.131-1.842-.867-3.54-2.073-4.78a6.338 6.338 0 0 0-4.58-1.942c-1.735 0-3.361.69-4.578 1.942-1.206 1.24-1.942 2.938-2.073 4.78-.04.572-.063 1.238-.085 1.943l-.01.263a1.025 1.025 0 0 1 1.194 1.01 5.559 5.559 0 0 0 5.553 5.554c2.754 0 5.067-2 5.485-4.691zm-1.17 6.626c1.915-.69 2.882-1.618 3.29-2.116-.28-.73-.46-1.566-.584-2.45a7.585 7.585 0 0 1-2.707 3.343zm9.867-16.635c0 5.435 4.074 9.956 9.275 10.293 2.428.157 4.754-.544 6.653-1.985l.018-.013c.271-.207.534-.43.787-.667a9.844 9.844 0 0 0 3.143-7.252v-2.92c0-.154.035-.307.102-.446a9.836 9.836 0 0 0 .995-4.309V2.361H31.724c-4.271 0-7.746 3.474-7.746 7.745V12.3c0 1.493.335 2.943.995 4.31.067.138.102.29.102.445zm8.339 18.067l-4.838-3.307-1.026 1.078 3.189 4.784a.065.065 0 0 0 .052.03c.033.004.05-.012.057-.02zm7.152-5.187v-1.873a11.878 11.878 0 0 1-5.542 1.358 11.544 11.544 0 0 1-5.563-1.4v1.915l5.552 3.795zm1.91 2.958l-1.026-1.078-4.838 3.307 2.566 2.566c.007.007.023.024.057.02a.065.065 0 0 0 .052-.031zm17.873 1.58a2.455 2.455 0 0 1-.074-.597v-.413a7.614 7.614 0 0 1-2.497.339 7.188 7.188 0 0 1-2.03-.359v.433c0 .223-.023.424-.064.609l2.327 2.327zm3.215-8.271v-2.193c0-.16.037-.316.108-.458l.518-1.036a4.48 4.48 0 0 0 .47-1.993v-4.259h-8.842c-2.457 0-4.456 2-4.456 4.457v.061c0 .519.122 1.038.354 1.503l.634 1.267c.071.142.108.299.108.458v1.917c0 3.123 2.414 5.737 5.381 5.826a5.511 5.511 0 0 0 4.039-1.565 5.509 5.509 0 0 0 1.686-3.985z"/></g></g></svg>