<?xml version="1.0" encoding="iso-8859-1"?>
<!-- Generator: Adobe Illustrator 19.0.0, SVG Export Plug-In . SVG Version: 6.00 Build 0)  -->
<svg xmlns="http://www.w3.org/2000/svg" xmlns:xlink="http://www.w3.org/1999/xlink" version="1.1" id="Capa_1" x="0px" y="0px" viewBox="0 0 512 512" style="enable-background:new 0 0 512 512;" xml:space="preserve" width="50" height="50">
<g>
	<path d="M482.67,317.45c-18.92-23.2-45.47-39.26-74.77-45.23l-59.89-12.2c5.14-12.05,7.99-25.31,7.99-39.23V62.75   C356,28.15,327.9,0,293.36,0h-74.72C184.1,0,156,28.15,156,62.75v158.04c0,13.91,2.85,27.18,7.99,39.23l-25.18,5.13   c-0.16,0.03-0.32,0.07-0.47,0.1l-34.23,6.97c-29.31,5.97-55.86,22.03-74.78,45.23C10.42,340.64,0,369.9,0,399.85V502   c0,5.52,4.48,10,10,10h492c5.52,0,10-4.48,10-10V399.85C512,369.9,501.58,340.64,482.67,317.45z M176,62.75   C176,39.18,195.13,20,218.64,20h74.72C316.87,20,336,39.18,336,62.75v9.48H176V62.75z M326,92.23v0.81   c0,11.03-19.42,19.27-36.79,19.27h-66.42c-17.37,0-36.79-8.24-36.79-19.27v-0.81H326z M176,115.57   c10.16,10.19,27.16,16.74,46.79,16.74h66.42c19.63,0,36.63-6.55,46.79-16.74v105.22c0,12.59-2.91,24.51-8.11,35.13   c-3.18,6.53-7.23,12.57-12.01,17.96c-14.66,16.6-36.07,27.08-59.9,27.09c-23.8-0.01-45.21-10.48-59.86-27.08   c-4.78-5.39-8.83-11.43-12.02-17.97c-5.19-10.61-8.1-22.54-8.1-35.13V115.57z M174.2,278.35c18.12,25.75,48.04,42.61,81.84,42.62   c33.75-0.02,63.65-16.87,81.75-42.62l8.62,1.75l-69.61,75.73c-6.23-3.27-13.3-5.12-20.8-5.12c-7.46,0-14.51,1.83-20.72,5.07   l-74.39-74.72L174.2,278.35z M281,395.78c0,13.83-11.21,25.08-25,25.08c-13.79,0-25-11.25-25-25.08c0-13.82,11.21-25.07,25-25.07   C269.79,370.71,281,381.96,281,395.78z M105.93,492H20v-20.22h85.93V492z M395.93,401.82c-5.52,0-10,4.47-10,10V492h-260v-80.18   c0-5.53-4.48-10-10-10c-5.52,0-10,4.47-10,10v39.96H20v-51.93c0-25.35,8.82-50.13,24.83-69.77c16.01-19.62,38.48-33.21,63.27-38.26   l29.32-5.97L220,368.78c-5.65,7.53-9,16.88-9,27c0,24.86,20.19,45.08,45,45.08c9.24,0,17.85-2.81,25-7.62v35.44   c0,5.52,4.48,10,10,10c5.52,0,10-4.48,10-10v-72.9c0-0.18,0-0.35-0.01-0.52c-0.11-9.9-3.43-19.05-8.97-26.44l77.27-84.05   l34.62,7.05c24.78,5.05,47.25,18.64,63.26,38.26C483.18,349.72,492,374.5,492,399.85v51.94l-86.07-0.02v-39.95   C405.93,406.29,401.45,401.82,395.93,401.82z M492,492h-86.07v-20.23l86.07,0.02V492z"/>
	<path d="M256.02,405.784c-5.523,0-10.005-4.478-10.005-10s4.472-10,9.995-10h0.01c5.523,0,10,4.478,10,10   S261.543,405.784,256.02,405.784z"/>
</g>
</svg>
