<svg xmlns="http://www.w3.org/2000/svg" width="15" height="15" viewBox="0 0 15 15">
    <g>
        <g>
            <g/>
            <g>
                <g>
                    <path d="M13.15.763c1.018 0 1.85.829 1.85 1.85V9.78c0 1.018-.828 1.85-1.85 1.85H7.92v1.766h2.607c.234 0 .42.187.42.42 0 .234-.186.42-.42.42H4.473a.419.419 0 0 1-.42-.42c0-.233.186-.42.42-.42H7.08V11.63H1.85A1.852 1.852 0 0 1 0 9.78V2.613A1.85 1.85 0 0 1 1.85.763zm-11.303.841c-.554 0-1.01.452-1.01 1.01v5.989H14.16v-5.99c0-.557-.452-1.009-1.01-1.009zm11.303 9.185a1.01 1.01 0 0 0 1.009-1.01v-.335H.841v.336c0 .554.452 1.01 1.01 1.01z"/>
                </g>
            </g>
        </g>
    </g>
</svg>