<svg xmlns="http://www.w3.org/2000/svg" width="10" height="10" viewBox="0 0 10 10"><g><g><path d="M2.02 9.768a.179.179 0 0 1-.176-.21l.553-3.224L.054 4.05a.18.18 0 0 1 .1-.305l3.237-.47L4.84.34a.179.179 0 0 1 .32 0l1.448 2.934 3.239.47a.18.18 0 0 1 .1.306L7.602 6.334l.553 3.225a.18.18 0 0 1-.26.189L5 8.225 2.104 9.748a.18.18 0 0 1-.084.02zM.564 4.047l2.15 2.096c.042.041.062.1.052.159l-.508 2.96 2.659-1.398a.178.178 0 0 1 .166 0l2.659 1.398-.508-2.96a.18.18 0 0 1 .052-.159l2.15-2.096-2.972-.432a.179.179 0 0 1-.135-.098L5 .824 3.67 3.517a.179.179 0 0 1-.134.098z"/></g></g></svg>