<svg width="22" height="14" viewBox="0 0 22 14" fill="none" xmlns="http://www.w3.org/2000/svg">
<path fill-rule="evenodd" clip-rule="evenodd" d="M18.855 7.87528V10.1588H17.1688V7.87528H14.8512V6.21536H17.1688V3.93188H18.855V6.21536H21.1726V7.87528H18.855ZM6.8425 13.9356C3.16497 13.9356 0.183594 10.9997 0.183594 7.37731C0.183594 3.75487 3.16497 0.81897 6.8425 0.81897C8.57414 0.81897 10.151 1.47052 11.3351 2.53748L9.37261 4.43003C8.68958 3.86069 7.80715 3.51699 6.8425 3.51699C4.67796 3.51699 2.92272 5.24513 2.92272 7.37731C2.92272 9.50949 4.67796 11.2376 6.8425 11.2376C8.51729 11.2376 9.94632 10.203 10.5078 8.74687H6.75855V6.00774H10.5078H13.3335H13.3562C13.4516 6.4494 13.5014 6.90767 13.5014 7.37731C13.5014 10.9997 10.52 13.9356 6.8425 13.9356Z" fill="white"/>
</svg>
