<svg width="18" height="15" viewBox="0 0 18 15" fill="none" xmlns="http://www.w3.org/2000/svg">
<path fill-rule="evenodd" clip-rule="evenodd" d="M0.712913 7.44759C0.712913 3.79272 4.44003 0.819336 9.02124 0.819336C13.6024 0.819336 17.3296 3.79272 17.3296 7.44759C17.3296 11.1025 13.6024 14.0758 9.02124 14.0758C7.84062 14.0758 6.70072 13.8819 5.63061 13.4992C3.746 14.4635 1.14051 14.7959 1.02835 14.8099C1.01534 14.8116 1.0026 14.8123 0.989857 14.8123C0.886003 14.8123 0.789073 14.7605 0.741992 14.6763C0.688819 14.582 0.709867 14.4679 0.794058 14.3933C1.43103 13.8289 1.86971 12.6375 2.03338 11.0327C1.16876 9.96265 0.712913 8.72513 0.712913 7.44759ZM4.0363 7.44759C4.0363 7.98914 4.53313 8.42955 5.14407 8.42955C5.75501 8.42955 6.25185 7.98914 6.25185 7.44759C6.25185 6.90604 5.75501 6.46563 5.14407 6.46563C4.53313 6.46563 4.0363 6.90604 4.0363 7.44759ZM9.01982 8.42955C8.40888 8.42955 7.91204 7.98914 7.91204 7.44759C7.91204 6.90604 8.40888 6.46563 9.01982 6.46563C9.63075 6.46563 10.1276 6.90604 10.1276 7.44759C10.1276 7.98914 9.63075 8.42955 9.01982 8.42955ZM11.7895 7.44759C11.7895 7.98914 12.2863 8.42955 12.8973 8.42955C13.5082 8.42955 14.005 7.98914 14.005 7.44759C14.005 6.90604 13.5082 6.46563 12.8973 6.46563C12.2863 6.46563 11.7895 6.90604 11.7895 7.44759Z" fill="#ACACAC"/>
</svg>
