<svg width="23" height="19" viewBox="0 0 23 19" fill="none" xmlns="http://www.w3.org/2000/svg">
<path fill-rule="evenodd" clip-rule="evenodd" d="M3.5734 6.28324C3.42211 6.43033 3.3464 6.60441 3.3464 6.80579C3.3464 7.00712 3.42211 7.18109 3.5734 7.32818L8.31725 11.9374V12.7501C8.31725 13.0754 8.16178 13.3035 7.85112 13.4351C7.74758 13.4738 7.64802 13.4932 7.55243 13.4932C7.33723 13.4932 7.15799 13.4197 7.01465 13.2726L0.89692 7.32822C0.74563 7.18109 0.669922 7.00704 0.669922 6.80579C0.669922 6.60454 0.74563 6.43045 0.89692 6.28324L7.01465 0.338849C7.24558 0.0988825 7.52435 0.0448788 7.85095 0.176228C8.16161 0.307903 8.31708 0.536198 8.31708 0.861278V1.66243L3.5734 6.28324ZM12.9009 3.90314C16.1749 4.11989 18.5607 4.97504 20.0582 6.46888C21.4045 7.80804 22.0777 9.77775 22.0779 12.3785C22.0779 12.8273 22.0101 13.3439 21.8748 13.9285C21.7393 14.5128 21.586 15.0469 21.4147 15.5305C21.2435 16.0144 21.052 16.498 20.841 16.982C20.6299 17.4657 20.4686 17.816 20.3572 18.0328L20.1183 18.4972C20.0544 18.6287 19.943 18.6945 19.7837 18.6945C19.736 18.6945 19.7001 18.6908 19.6762 18.683C19.477 18.6211 19.3857 18.4895 19.4014 18.2882C19.7439 15.1919 19.3217 13.0055 18.1347 11.7284C17.6249 11.1788 16.9459 10.7512 16.0976 10.4455C15.2489 10.1398 14.1836 9.93659 12.9012 9.83594V12.7501C12.9012 13.0754 12.7457 13.3035 12.435 13.4352C12.3314 13.4738 12.2319 13.4932 12.1364 13.4932C11.9213 13.4932 11.7422 13.4197 11.5986 13.2726L5.48095 7.32823C5.32957 7.1811 5.25395 7.00705 5.25395 6.8058C5.25395 6.60459 5.32953 6.4305 5.48095 6.28325L11.5984 0.338859C11.8294 0.0988922 12.1082 0.0448885 12.4348 0.176238C12.7455 0.307912 12.9009 0.536208 12.9009 0.861287V3.90314Z" fill="#ACACAC"/>
</svg>
