<svg width="22" height="19" viewBox="0 0 22 19" fill="none" xmlns="http://www.w3.org/2000/svg">
<path fill-rule="evenodd" clip-rule="evenodd" d="M18.7782 6.41483C18.9295 6.56192 19.0052 6.73601 19.0052 6.93738C19.0052 7.13872 18.9295 7.31268 18.7782 7.45977L14.0343 12.069V12.8817C14.0343 13.207 14.1898 13.4351 14.5004 13.5667C14.604 13.6054 14.7035 13.6248 14.7991 13.6248C15.0143 13.6248 15.1936 13.5512 15.3369 13.4042L21.4546 7.45981C21.6059 7.31268 21.6816 7.13863 21.6816 6.93738C21.6816 6.73613 21.6059 6.56204 21.4546 6.41483L15.3369 0.470441C15.106 0.230474 14.8272 0.176471 14.5006 0.30782C14.19 0.439495 14.0345 0.66779 14.0345 0.992869V1.79402L18.7782 6.41483ZM9.44447 4.03477C6.17045 4.25152 3.78467 5.10667 2.28717 6.60051C0.940792 7.93967 0.267666 9.90938 0.267456 12.5101C0.267456 12.9589 0.335213 13.4755 0.470558 14.0601C0.606028 14.6445 0.759285 15.1785 0.93058 15.6622C1.10188 16.146 1.29334 16.6296 1.50431 17.1136C1.71541 17.5973 1.8767 17.9476 1.9881 18.1644L2.22703 18.6288C2.29089 18.7604 2.4023 18.8262 2.56158 18.8262C2.60938 18.8262 2.6452 18.8224 2.6691 18.8146C2.86831 18.7527 2.95967 18.6212 2.94393 18.4198C2.60138 15.3236 3.02361 13.1372 4.21058 11.8601C4.72045 11.3105 5.39944 10.8829 6.24775 10.5771C7.09644 10.2714 8.16175 10.0682 9.44413 9.96757V12.8818C9.44413 13.207 9.59965 13.4351 9.91031 13.5668C10.0139 13.6055 10.1134 13.6248 10.209 13.6248C10.4241 13.6248 10.6031 13.5513 10.7467 13.4042L16.8644 7.45986C17.0158 7.31273 17.0914 7.13868 17.0914 6.93743C17.0914 6.73621 17.0158 6.56213 16.8644 6.41488L10.7469 0.470488C10.5159 0.230521 10.2371 0.176517 9.91052 0.307867C9.59986 0.439541 9.44447 0.667837 9.44447 0.992916V4.03477Z" fill="#BDBDBE"/>
</svg>
