<svg width="19" height="20" viewBox="0 0 19 20" fill="none" xmlns="http://www.w3.org/2000/svg">
<path d="M15.8816 0.769226H9.76795C9.39503 0.769226 9.08991 1.07441 9.08991 1.44741V11.8876L7.59068 10.3881C7.327 10.1243 6.89758 10.1243 6.63013 10.3881C6.36645 10.6518 6.36645 11.0813 6.63013 11.3488L9.28955 14.0088C9.4214 14.1407 9.59467 14.2085 9.76795 14.2085C9.94123 14.2085 10.1145 14.1407 10.2463 14.0088L12.9058 11.3488C13.1695 11.0851 13.1695 10.6556 12.9058 10.3881C12.6421 10.1243 12.2127 10.1243 11.9452 10.3881L10.446 11.8876V2.12558H15.8816C16.8497 2.12558 17.6408 2.90926 17.6408 3.87755V16.1224C17.6408 17.087 16.8535 17.8744 15.8816 17.8744H3.65428C2.68242 17.8744 1.89514 17.0907 1.89514 16.1224V3.87755C1.89514 2.90926 2.68242 2.12558 3.65428 2.12558H5.24014C5.61307 2.12558 5.91819 1.8204 5.91819 1.44741C5.91819 1.07441 5.61307 0.769226 5.24014 0.769226H3.65428C1.93658 0.769226 0.539062 2.16326 0.539062 3.87755V16.1224C0.539062 17.8367 1.93658 19.2308 3.65428 19.2308H15.8854C17.6031 19.2308 19.0006 17.8367 19.0006 16.1224V3.87755C18.9968 2.16326 17.5993 0.769226 15.8816 0.769226Z" fill="white"/>
</svg>
