<svg width="16" height="13" viewBox="0 0 16 13" fill="none" xmlns="http://www.w3.org/2000/svg">
<path fill-rule="evenodd" clip-rule="evenodd" d="M15.1566 2.1431C14.6099 2.38887 14.0213 2.55505 13.4047 2.63026C14.0344 2.24718 14.5181 1.64194 14.7455 0.920375C14.156 1.2746 13.5035 1.53174 12.8081 1.66993C12.2518 1.06906 11.4594 0.693848 10.5821 0.693848C8.89751 0.693848 7.53128 2.0775 7.53128 3.78477C7.53128 4.02791 7.55927 4.26319 7.61088 4.48972C5.0761 4.36115 2.82909 3.12968 1.32467 1.25973C1.06139 1.71628 0.911824 2.24718 0.911824 2.81394C0.911824 3.88622 1.45062 4.83257 2.26843 5.3862C1.76812 5.37046 1.29755 5.2314 0.887333 4.99962C0.887333 5.01274 0.887333 5.02586 0.887333 5.03898C0.887333 6.53633 1.9378 7.7853 3.33377 8.06955C3.07749 8.1404 2.80897 8.178 2.52995 8.178C2.33403 8.178 2.14248 8.15876 1.95617 8.12203C2.34452 9.35 3.47109 10.2439 4.80583 10.2692C3.76148 11.0975 2.44598 11.5917 1.01678 11.5917C0.771003 11.5917 0.527846 11.5777 0.289062 11.5488C1.63867 12.4261 3.24193 12.9377 4.96502 12.9377C10.5751 12.9377 13.6434 8.22786 13.6434 4.14336C13.6434 4.00867 13.6399 3.8766 13.6347 3.74366C14.2303 3.3081 14.7481 2.76321 15.1566 2.14397V2.1431Z" fill="white"/>
</svg>
