<svg width="74" height="73" viewBox="0 0 74 73" fill="none" xmlns="http://www.w3.org/2000/svg">
<rect x="0.741821" y="0.646118" width="72.3516" height="72.3516" rx="25" fill="#F2F3F6"/>
<rect x="58.8245" y="61.1461" width="9.30951" height="9.30951" rx="4.65475" fill="#3964FC"/>
<path d="M58.8245 51.3378H41.6119V52.1202C41.6119 52.7427 41.3646 53.3397 40.9245 53.7799C40.4843 54.22 39.8873 54.4673 39.2648 54.4673H34.5704C33.9479 54.4673 33.3509 54.22 32.9107 53.7799C32.4706 53.3397 32.2233 52.7427 32.2233 52.1202V51.3378H15.0107V53.6849C15.0107 54.3074 15.258 54.9044 15.6982 55.3446C16.1384 55.7848 16.7354 56.0321 17.3579 56.0321H56.4773C57.0998 56.0321 57.6968 55.7848 58.137 55.3446C58.5772 54.9044 58.8245 54.3074 58.8245 53.6849V51.3378Z" fill="#3F3D56"/>
<path d="M54.9126 49.7729C55.5351 49.7729 56.1321 49.5256 56.5723 49.0855C57.0124 48.6453 57.2597 48.0483 57.2597 47.4258V25.5189C57.2597 24.8964 57.0124 24.2994 56.5723 23.8592C56.1321 23.419 55.5351 23.1718 54.9126 23.1718H49.4359C49.4346 24.2089 49.0221 25.2032 48.2887 25.9365C47.5553 26.6699 46.561 27.0824 45.5239 27.0837H35.7128L31.2532 32.2874C31.1492 32.409 31.0104 32.4958 30.8555 32.536C30.7007 32.5763 30.5372 32.5682 30.3871 32.5127C30.237 32.4572 30.1076 32.357 30.0162 32.2256C29.9249 32.0942 29.876 31.938 29.8762 31.778V27.0837H28.3114C27.2743 27.0824 26.28 26.6699 25.5466 25.9365C24.8132 25.2032 24.4007 24.2089 24.3994 23.1718H18.9227C18.3002 23.1718 17.7032 23.419 17.263 23.8592C16.8229 24.2994 16.5756 24.8964 16.5756 25.5189V47.4258C16.5756 48.0483 16.8229 48.6453 17.263 49.0855C17.7032 49.5256 18.3002 49.7729 18.9227 49.7729H54.9126ZM35.3529 30.9956H50.2182C50.4257 30.9956 50.6247 31.0781 50.7715 31.2248C50.9182 31.3715 51.0006 31.5705 51.0006 31.778C51.0006 31.9855 50.9182 32.1845 50.7715 32.3313C50.6247 32.478 50.4257 32.5604 50.2182 32.5604H35.3529C35.1454 32.5604 34.9464 32.478 34.7996 32.3313C34.6529 32.1845 34.5705 31.9855 34.5705 31.778C34.5705 31.5705 34.6529 31.3715 34.7996 31.2248C34.9464 31.0781 35.1454 30.9956 35.3529 30.9956ZM34.5705 34.1252H47.0887C47.2962 34.1252 47.4952 34.2076 47.6419 34.3543C47.7886 34.5011 47.8711 34.7001 47.8711 34.9076C47.8711 35.1151 47.7886 35.3141 47.6419 35.4608C47.4952 35.6075 47.2962 35.69 47.0887 35.69H34.5705C34.363 35.69 34.164 35.6075 34.0173 35.4608C33.8705 35.3141 33.7881 35.1151 33.7881 34.9076C33.7881 34.7001 33.8705 34.5011 34.0173 34.3543C34.164 34.2076 34.363 34.1252 34.5705 34.1252ZM42.3944 41.9491H40.8296C40.6221 41.9491 40.4231 41.8666 40.2764 41.7199C40.1296 41.5732 40.0472 41.3742 40.0472 41.1667C40.0472 40.9592 40.1296 40.7602 40.2764 40.6134C40.4231 40.4667 40.6221 40.3843 40.8296 40.3843H42.3944C42.6019 40.3843 42.8009 40.4667 42.9476 40.6134C43.0943 40.7602 43.1767 40.9592 43.1767 41.1667C43.1767 41.3742 43.0943 41.5732 42.9476 41.7199C42.8009 41.8666 42.6019 41.9491 42.3944 41.9491ZM43.1767 44.2962C43.1767 44.5037 43.0943 44.7027 42.9476 44.8495C42.8009 44.9962 42.6019 45.0786 42.3944 45.0786H40.8296C40.6221 45.0786 40.4231 44.9962 40.2764 44.8495C40.1296 44.7027 40.0472 44.5037 40.0472 44.2962C40.0472 44.0887 40.1296 43.8897 40.2764 43.743C40.4231 43.5963 40.6221 43.5138 40.8296 43.5138H42.3944C42.6019 43.5138 42.8009 43.5963 42.9476 43.743C43.0943 43.8897 43.1767 44.0887 43.1767 44.2962ZM40.8296 38.8195C40.6221 38.8195 40.4231 38.7371 40.2764 38.5904C40.1296 38.4436 40.0472 38.2446 40.0472 38.0371C40.0472 37.8296 40.1296 37.6306 40.2764 37.4839C40.4231 37.3372 40.6221 37.2547 40.8296 37.2547H47.0887C47.2962 37.2547 47.4952 37.3372 47.6419 37.4839C47.7886 37.6306 47.8711 37.8296 47.8711 38.0371C47.8711 38.2446 47.7886 38.4436 47.6419 38.5904C47.4952 38.7371 47.2962 38.8195 47.0887 38.8195H40.8296ZM28.3114 34.1252H31.4409C31.6484 34.1252 31.8474 34.2076 31.9942 34.3543C32.1409 34.5011 32.2233 34.7001 32.2233 34.9076C32.2233 35.1151 32.1409 35.3141 31.9942 35.4608C31.8474 35.6075 31.6484 35.69 31.4409 35.69H28.3114C28.1039 35.69 27.9049 35.6075 27.7581 35.4608C27.6114 35.3141 27.529 35.1151 27.529 34.9076C27.529 34.7001 27.6114 34.5011 27.7581 34.3543C27.9049 34.2076 28.1039 34.1252 28.3114 34.1252ZM28.3114 37.2547H37.7C37.9075 37.2547 38.1065 37.3372 38.2533 37.4839C38.4 37.6306 38.4824 37.8296 38.4824 38.0371C38.4824 38.2446 38.4 38.4436 38.2533 38.5904C38.1065 38.7371 37.9075 38.8195 37.7 38.8195H28.3114C28.1039 38.8195 27.9049 38.7371 27.7581 38.5904C27.6114 38.4436 27.529 38.2446 27.529 38.0371C27.529 37.8296 27.6114 37.6306 27.7581 37.4839C27.9049 37.3372 28.1039 37.2547 28.3114 37.2547ZM28.3114 40.3843H37.7C37.9075 40.3843 38.1065 40.4667 38.2533 40.6134C38.4 40.7602 38.4824 40.9592 38.4824 41.1667C38.4824 41.3742 38.4 41.5732 38.2533 41.7199C38.1065 41.8666 37.9075 41.9491 37.7 41.9491H28.3114C28.1039 41.9491 27.9049 41.8666 27.7581 41.7199C27.6114 41.5732 27.529 41.3742 27.529 41.1667C27.529 40.9592 27.6114 40.7602 27.7581 40.6134C27.9049 40.4667 28.1039 40.3843 28.3114 40.3843ZM28.3114 43.5138H37.7C37.9075 43.5138 38.1065 43.5963 38.2533 43.743C38.4 43.8897 38.4824 44.0887 38.4824 44.2962C38.4824 44.5037 38.4 44.7027 38.2533 44.8495C38.1065 44.9962 37.9075 45.0786 37.7 45.0786H28.3114C28.1039 45.0786 27.9049 44.9962 27.7581 44.8495C27.6114 44.7027 27.529 44.5037 27.529 44.2962C27.529 44.0887 27.6114 43.8897 27.7581 43.743C27.9049 43.5963 28.1039 43.5138 28.3114 43.5138ZM25.1818 30.9956C25.3893 30.9956 25.5883 31.0781 25.7351 31.2248C25.8818 31.3715 25.9642 31.5705 25.9642 31.778C25.9642 31.9855 25.8818 32.1845 25.7351 32.3313C25.5883 32.478 25.3893 32.5604 25.1818 32.5604H23.6171C23.4096 32.5604 23.2105 32.478 23.0638 32.3313C22.9171 32.1845 22.8347 31.9855 22.8347 31.778C22.8347 31.5705 22.9171 31.3715 23.0638 31.2248C23.2105 31.0781 23.4096 30.9956 23.6171 30.9956H25.1818ZM25.1818 41.9491H23.6171C23.4096 41.9491 23.2105 41.8666 23.0638 41.7199C22.9171 41.5732 22.8347 41.3742 22.8347 41.1667C22.8347 40.9592 22.9171 40.7602 23.0638 40.6134C23.2105 40.4667 23.4096 40.3843 23.6171 40.3843H25.1818C25.3893 40.3843 25.5883 40.4667 25.7351 40.6134C25.8818 40.7602 25.9642 40.9592 25.9642 41.1667C25.9642 41.3742 25.8818 41.5732 25.7351 41.7199C25.5883 41.8666 25.3893 41.9491 25.1818 41.9491ZM25.9642 44.2962C25.9642 44.5037 25.8818 44.7027 25.7351 44.8495C25.5883 44.9962 25.3893 45.0786 25.1818 45.0786H23.6171C23.4096 45.0786 23.2105 44.9962 23.0638 44.8495C22.9171 44.7027 22.8347 44.5037 22.8347 44.2962C22.8347 44.0887 22.9171 43.8897 23.0638 43.743C23.2105 43.5963 23.4096 43.5138 23.6171 43.5138H25.1818C25.3893 43.5138 25.5883 43.5963 25.7351 43.743C25.8818 43.8897 25.9642 44.0887 25.9642 44.2962ZM25.1818 38.8195H23.6171C23.4096 38.8195 23.2105 38.7371 23.0638 38.5904C22.9171 38.4436 22.8347 38.2446 22.8347 38.0371C22.8347 37.8296 22.9171 37.6306 23.0638 37.4839C23.2105 37.3372 23.4096 37.2547 23.6171 37.2547H25.1818C25.3893 37.2547 25.5883 37.3372 25.7351 37.4839C25.8818 37.6306 25.9642 37.8296 25.9642 38.0371C25.9642 38.2446 25.8818 38.4436 25.7351 38.5904C25.5883 38.7371 25.3893 38.8195 25.1818 38.8195ZM25.1818 35.69H23.6171C23.4096 35.69 23.2105 35.6075 23.0638 35.4608C22.9171 35.3141 22.8347 35.1151 22.8347 34.9076C22.8347 34.7001 22.9171 34.5011 23.0638 34.3543C23.2105 34.2076 23.4096 34.1252 23.6171 34.1252H25.1818C25.3893 34.1252 25.5883 34.2076 25.7351 34.3543C25.8818 34.5011 25.9642 34.7001 25.9642 34.9076C25.9642 35.1151 25.8818 35.3141 25.7351 35.4608C25.5883 35.6075 25.3893 35.69 25.1818 35.69ZM18.1403 47.4258V25.5189C18.1403 25.3114 18.2228 25.1124 18.3695 24.9657C18.5162 24.819 18.7152 24.7365 18.9227 24.7365H22.8347C23.0422 24.7365 23.2412 24.819 23.3879 24.9657C23.5346 25.1124 23.6171 25.3114 23.6171 25.5189C23.6171 25.7264 23.5346 25.9254 23.3879 26.0721C23.2412 26.2189 23.0422 26.3013 22.8347 26.3013H19.7051V46.6434H54.1302V26.3013H51.0006C50.7931 26.3013 50.5941 26.2189 50.4474 26.0721C50.3007 25.9254 50.2182 25.7264 50.2182 25.5189C50.2182 25.3114 50.3007 25.1124 50.4474 24.9657C50.5941 24.819 50.7931 24.7365 51.0006 24.7365H54.9126C55.1201 24.7365 55.3191 24.819 55.4658 24.9657C55.6125 25.1124 55.695 25.3114 55.695 25.5189V47.4258C55.695 47.6333 55.6125 47.8323 55.4658 47.979C55.3191 48.1257 55.1201 48.2082 54.9126 48.2082H18.9227C18.7152 48.2082 18.5162 48.1257 18.3695 47.979C18.2228 47.8323 18.1403 47.6333 18.1403 47.4258Z" fill="#3F3D56"/>
<path d="M34.5705 52.9025H39.2648C39.4723 52.9025 39.6713 52.8201 39.818 52.6734C39.9648 52.5267 40.0472 52.3277 40.0472 52.1202V51.3378H33.7881V52.1202C33.7881 52.3277 33.8705 52.5267 34.0172 52.6734C34.164 52.8201 34.363 52.9025 34.5705 52.9025Z" fill="#3964FC"/>
<path d="M25.9642 23.1717C25.9642 23.7942 26.2115 24.3912 26.6516 24.8314C27.0918 25.2716 27.6888 25.5189 28.3113 25.5189H30.6585C30.866 25.5189 31.065 25.6013 31.2117 25.748C31.3585 25.8947 31.4409 26.0937 31.4409 26.3012V29.6655L34.759 25.7943C34.8322 25.7082 34.9232 25.639 35.0257 25.5915C35.1282 25.5439 35.2398 25.5192 35.3528 25.5189H45.5239C46.1464 25.5189 46.7434 25.2716 47.1836 24.8314C47.6237 24.3912 47.871 23.7942 47.871 23.1717V14.5654C47.871 13.9429 47.6237 13.3459 47.1836 12.9057C46.7434 12.4656 46.1464 12.2183 45.5239 12.2183H28.3113C27.6888 12.2183 27.0918 12.4656 26.6516 12.9057C26.2115 13.3459 25.9642 13.9429 25.9642 14.5654V23.1717ZM40.1254 15.7805C40.1713 15.6885 40.2349 15.6064 40.3125 15.539C40.3901 15.4716 40.4802 15.4202 40.5777 15.3876C40.6752 15.3551 40.7782 15.3421 40.8808 15.3493C40.9833 15.3566 41.0834 15.384 41.1754 15.43L45.8697 17.7771C45.9924 17.8383 46.0968 17.9307 46.1726 18.045C46.2483 18.1593 46.2927 18.2915 46.3012 18.4284C46.3098 18.5652 46.2822 18.7019 46.2213 18.8248C46.1604 18.9476 46.0683 19.0523 45.9542 19.1283L41.2599 22.2579C41.0872 22.373 40.8759 22.4149 40.6724 22.3742C40.4689 22.3336 40.2898 22.2138 40.1747 22.0411C40.0595 21.8685 40.0177 21.6572 40.0583 21.4537C40.0989 21.2502 40.2188 21.0711 40.3914 20.956L43.9646 18.5744L40.4798 16.8343C40.387 16.7888 40.3041 16.7253 40.236 16.6476C40.1678 16.5698 40.1158 16.4793 40.0828 16.3813C40.0499 16.2833 40.0367 16.1798 40.044 16.0766C40.0513 15.9735 40.0789 15.8728 40.1254 15.7805ZM34.6143 22.9041L37.7438 14.2978C37.7762 14.1978 37.8284 14.1053 37.8973 14.0259C37.9662 13.9465 38.0504 13.8819 38.1449 13.8357C38.2393 13.7896 38.3421 13.763 38.4471 13.7575C38.5521 13.7519 38.6571 13.7676 38.7559 13.8036C38.8547 13.8396 38.9452 13.8951 39.0221 13.9669C39.0989 14.0386 39.1605 14.1251 39.2032 14.2212C39.2459 14.3173 39.2688 14.421 39.2705 14.5261C39.2722 14.6312 39.2527 14.7356 39.2131 14.833L36.0836 23.4393C36.0512 23.5393 35.999 23.6318 35.9301 23.7112C35.8612 23.7906 35.777 23.8553 35.6825 23.9014C35.588 23.9475 35.4852 23.9741 35.3802 23.9797C35.2753 23.9852 35.1702 23.9695 35.0715 23.9335C34.9727 23.8975 34.8821 23.842 34.8053 23.7703C34.7284 23.6985 34.6668 23.612 34.6242 23.5159C34.5815 23.4199 34.5586 23.3162 34.5569 23.211C34.5552 23.1059 34.5747 23.0015 34.6143 22.9041ZM27.9577 17.7771L32.652 15.43C32.744 15.384 32.8441 15.3567 32.9466 15.3494C33.0491 15.3422 33.1521 15.3552 33.2496 15.3878C33.3471 15.4203 33.4372 15.4717 33.5149 15.5391C33.5925 15.6065 33.6561 15.6885 33.702 15.7805C33.7479 15.8724 33.7753 15.9725 33.7825 16.0751C33.7898 16.1776 33.7767 16.2806 33.7442 16.378C33.7116 16.4755 33.6602 16.5657 33.5928 16.6433C33.5254 16.7209 33.4434 16.7845 33.3515 16.8304L29.8628 18.5744L33.436 20.956C33.5215 21.013 33.5949 21.0863 33.652 21.1717C33.7092 21.2571 33.749 21.3529 33.7691 21.4537C33.7892 21.5544 33.7893 21.6582 33.7693 21.759C33.7493 21.8598 33.7097 21.9557 33.6527 22.0411C33.5957 22.1266 33.5224 22.2 33.437 22.2572C33.3516 22.3143 33.2558 22.3541 33.155 22.3742C33.0542 22.3944 32.9505 22.3945 32.8497 22.3745C32.7489 22.3545 32.653 22.3149 32.5675 22.2579L27.8732 19.1283C27.7591 19.0523 27.667 18.9476 27.6061 18.8248C27.5451 18.7019 27.5176 18.5652 27.5261 18.4284C27.5347 18.2915 27.5791 18.1593 27.6548 18.045C27.7306 17.9307 27.835 17.8383 27.9577 17.7771Z" fill="#3964FC"/>
</svg>
