<svg width="73" height="73" viewBox="0 0 73 73" fill="none" xmlns="http://www.w3.org/2000/svg">
<rect y="0.646118" width="72.3516" height="72.3516" rx="25" fill="#F2F3F6"/>
<rect x="63.0421" y="2.90875" width="9.30951" height="9.30951" rx="4.65475" fill="#3964FC"/>
<path d="M43.2228 52.0945H39.379V48.5205L45.0723 44.8757L39.379 41.2309V37.0007H43.2228V31.7507H39.379V27.157H44.504V17.9695H32.9728V27.157H38.0978V31.7507H34.254V33.7195H28.4884V35.032H34.254V37.0007H38.0978V41.2309L32.4045 44.8757L38.0978 48.5205V52.0945H34.254C33.1944 52.0945 32.3322 52.9778 32.3322 54.0632V56.6882C32.3322 57.7737 33.1944 58.657 34.254 58.657H43.2228C44.2824 58.657 45.1447 57.7737 45.1447 56.6882V54.0632C45.1447 52.9778 44.2824 52.0945 43.2228 52.0945ZM41.9415 24.532H40.6603V23.2195H41.9415V24.532ZM35.5353 20.5945H41.9415V21.907H35.5353V20.5945ZM35.5353 24.532V23.2195H39.379V24.532H35.5353Z" fill="#3F3D56"/>
<path d="M27.3949 53.2147L28.8638 54.7195H23.2455C23.0521 54.1636 22.6248 53.7259 22.0822 53.5277V39.6257H20.8009V53.5277C20.0571 53.7994 19.5197 54.5213 19.5197 55.3757C19.5197 56.4612 20.3819 57.3445 21.4415 57.3445C22.2756 57.3445 22.9803 56.7939 23.2455 56.032H28.8638L27.3949 57.5368L28.3007 58.4647L31.3161 55.3757L28.3007 52.2868L27.3949 53.2147Z" fill="#3964FC"/>
<path d="M54.754 43.0277V24.4112C55.4978 24.1395 56.0352 23.4177 56.0352 22.5632C56.0352 21.4778 55.173 20.5945 54.1134 20.5945C53.2793 20.5945 52.5746 21.1451 52.3094 21.907H45.7852V23.2195H52.3094C52.5028 23.7753 52.9301 24.213 53.4727 24.4112V43.0284C52.9301 43.2266 52.5028 43.6643 52.3094 44.2201H47.9723L49.4413 42.7154L48.5354 41.7874L45.52 44.8757L48.5354 47.9647L49.4413 47.0368L47.9723 45.532H52.3094C52.5746 46.2939 53.2793 46.8445 54.1134 46.8445C55.173 46.8445 56.0352 45.9612 56.0352 44.8757C56.0352 44.0213 55.4978 43.2994 54.754 43.0277Z" fill="#3964FC"/>
<path d="M27.0284 34.3757L21.4415 30.288L15.8546 34.3757L21.4415 38.4635L27.0284 34.3757Z" fill="#3F3D56"/>
<path d="M48.9884 54.7195H50.2697V56.032H48.9884V54.7195Z" fill="#3964FC"/>
<path d="M46.4259 54.7195H47.7071V56.032H46.4259V54.7195Z" fill="#3964FC"/>
<path d="M51.5509 54.7195H52.8322V56.032H51.5509V54.7195Z" fill="#3964FC"/>
<path d="M25.2853 23.2195H26.5665V24.532H25.2853V23.2195Z" fill="#3964FC"/>
<path d="M30.4103 23.2195H31.6915V24.532H30.4103V23.2195Z" fill="#3964FC"/>
<path d="M27.8478 23.2195H29.129V24.532H27.8478V23.2195Z" fill="#3964FC"/>
</svg>
