<svg width="73" height="73" viewBox="0 0 73 73" fill="none" xmlns="http://www.w3.org/2000/svg">
<rect x="0.470215" y="0.646118" width="72.3516" height="72.3516" rx="25" fill="#F2F3F6"/>
<rect x="5.83691" y="63.6882" width="9.30951" height="9.30951" rx="4.65475" fill="#3964FC"/>
<path d="M51.8196 53.6236L53.4171 58.4639L55.1403 55.5643L57.4719 56.1526L55.8736 50.2334C54.6918 51.5413 53.3303 52.6863 51.8196 53.6236Z" fill="#3F3D56"/>
<path d="M38.3808 50.2342L36.7825 56.1533L39.114 55.5651L40.8372 58.4647L42.4348 53.6244C40.9248 52.6863 39.5633 51.5414 38.3808 50.2342Z" fill="#3F3D56"/>
<path d="M27.3296 21.0782C23.131 21.0782 19.7151 24.5276 19.7151 28.7675C19.7151 33.0073 23.131 36.4567 27.3296 36.4567C29.729 36.4567 31.9844 35.301 33.4213 33.3648V27.9985H34.9054C34.5223 24.1186 31.2709 21.0782 27.3296 21.0782ZM27.3296 33.381C24.81 33.381 22.7609 31.3118 22.7609 28.7675C22.7609 26.2231 24.81 24.1539 27.3296 24.1539C29.8493 24.1539 31.8984 26.2231 31.8984 28.7675C31.8984 31.3118 29.8493 33.381 27.3296 33.381Z" fill="#3F3D56"/>
<path d="M57.1568 29.5363C53.5909 29.5363 50.1331 28.526 47.1269 26.6083C44.1062 28.5298 40.6568 29.5363 37.0985 29.5363H34.9443V37.4408C34.9443 45.0485 39.9425 51.8696 47.1276 54.108C54.3127 51.8696 59.3109 45.0485 59.3109 37.4408V29.5363H57.1568ZM57.788 37.4408C57.788 44.1128 53.6084 50.1242 47.3873 52.3986L47.1276 52.4932L46.868 52.3986C40.6469 50.1242 36.4672 44.1128 36.4672 37.4408V31.078L37.2241 31.0734C40.5509 31.0534 43.8503 30.1991 46.7652 28.6044L47.1284 28.4052L47.4916 28.6044C50.408 30.1991 53.7066 31.0534 57.0311 31.0734L57.788 31.078V37.4408Z" fill="#3F3D56"/>
<path d="M44.0817 40.6196L42.874 41.8391L45.6046 44.5964L52.9039 37.2256L51.6962 36.006L45.6046 42.1574L44.0817 40.6196Z" fill="#3F3D56"/>
<path d="M33.4214 35.6355C31.7614 37.1341 29.5989 37.9945 27.3298 37.9945C22.2912 37.9945 18.1923 33.8554 18.1923 28.7675C18.1923 23.6795 22.2912 19.5404 27.3298 19.5404C32.1117 19.5404 36.0393 23.2697 36.4284 27.9985H37.0985C37.9117 27.9985 38.7173 27.937 39.5131 27.824V27.0689L37.7823 26.6575L37.6711 26.1993C37.4153 25.1412 37.0003 24.1324 36.4398 23.1982L36.1977 22.796L37.1335 21.2689L34.7555 18.8676L33.2432 19.8126L32.845 19.5681C31.9198 19.0022 30.9208 18.5831 29.873 18.3247L29.4192 18.2125L29.0111 16.4647H25.6485L25.2411 18.2125L24.7873 18.3247C23.7395 18.5831 22.7405 19.0022 21.8153 19.5681L21.4171 19.8126L19.9041 18.8676L17.526 21.2689L18.4619 22.796L18.2197 23.1982C17.6593 24.1324 17.2443 25.1412 16.9884 26.1993L16.8773 26.6575L15.1465 27.0697V30.4652L16.8773 30.8766L16.9884 31.3349C17.2443 32.3929 17.6593 33.4017 18.2197 34.336L18.4619 34.7381L17.526 36.2652L19.9041 38.6665L21.4163 37.7215L21.8145 37.9661C22.7397 38.532 23.7387 38.951 24.7865 39.2094L25.2403 39.3217L25.6485 41.0702H29.0111L29.4184 39.3224L29.8723 39.2102C30.92 38.9518 31.9191 38.5327 32.8442 37.9668L33.2425 37.7223L33.4374 37.8446C33.4351 37.7092 33.4214 37.5762 33.4214 37.4409V35.6355Z" fill="#3F3D56"/>
<path d="M37.9901 32.5936V37.4416C37.9901 43.3754 41.6504 48.7309 47.1276 50.8554C52.6047 48.7301 56.265 43.3746 56.265 37.4416V32.5936C53.0852 32.4621 49.9495 31.6239 47.1283 30.1507C44.3079 31.6239 41.1715 32.4621 37.9901 32.5936ZM45.3016 32.652L45.8354 34.0922C45.3275 34.2844 44.8112 34.4605 44.3018 34.6158L43.8617 33.1441C44.3399 32.998 44.8242 32.8327 45.3016 32.652ZM39.513 37.4408V34.0345L40.1755 33.9469C40.9088 33.8492 41.6527 33.7131 42.3868 33.5416L42.7302 35.0403C42.1682 35.171 41.6009 35.2825 41.0352 35.3747V37.4416C41.0352 37.6215 41.0397 37.8007 41.0489 37.9791L39.5275 38.0575C39.5176 37.8522 39.513 37.6469 39.513 37.4408ZM55.0574 37.2255L45.6047 46.7709L40.7207 41.8391L44.0818 38.445L45.6047 39.9829L51.6963 33.8315L55.0574 37.2255Z" fill="#3964FC"/>
<path d="M27.3298 31.8431C29.0119 31.8431 30.3756 30.4661 30.3756 28.7675C30.3756 27.0688 29.0119 25.6918 27.3298 25.6918C25.6476 25.6918 24.2839 27.0688 24.2839 28.7675C24.2839 30.4661 25.6476 31.8431 27.3298 31.8431Z" fill="#3964FC"/>
</svg>
