<svg width="487" height="366" viewBox="0 0 487 366" fill="none" xmlns="http://www.w3.org/2000/svg">
<path fill-rule="evenodd" clip-rule="evenodd" d="M380.292 174.327C379.909 172.293 379.67 170.236 379.575 168.169L403.199 176.121L379.639 163.864C379.981 157.773 381.563 151.816 384.287 146.359C387.012 140.901 390.822 136.057 395.484 132.123L418.312 165.134L400.587 128.42C405.796 125.16 411.621 123.007 417.698 122.096C423.776 121.185 429.976 121.536 435.912 123.126C441.848 124.715 447.393 127.511 452.202 131.337C457.01 135.164 460.979 139.939 463.862 145.367C466.744 150.794 468.478 156.757 468.955 162.884C469.433 169.011 468.643 175.17 466.636 180.979C464.629 186.787 461.447 192.12 457.289 196.645C453.131 201.17 448.086 204.79 442.467 207.28C443.051 210.448 443.292 213.669 443.185 216.889L407.304 216.602L442.668 222.429C441.473 229.773 438.465 236.702 433.918 242.591C429.371 248.48 423.428 253.143 416.626 256.157C418.124 264.422 417.267 272.941 414.152 280.742C411.037 288.542 405.79 295.308 399.011 300.267C392.849 304.775 385.647 307.623 378.096 308.56C377.32 308.657 376.541 308.734 375.759 308.791C370.164 309.196 364.568 308.544 359.257 306.895C359.023 308.57 358.476 310.292 357.597 311.951C356.279 314.44 354.423 316.392 352.376 317.647C352.486 320.046 351.914 322.677 350.596 325.165C349.276 327.657 347.417 329.611 345.367 330.866C345.438 333.458 344.826 336.023 343.593 338.304C343.154 339.122 342.647 339.902 342.079 340.636C337.05 337.101 331.936 333.63 326.736 330.223L327.073 329.556C328.276 327.232 330.077 325.27 332.29 323.872L332.301 323.866C332.204 321.486 332.778 318.882 334.083 316.418C335.401 313.929 337.257 311.977 339.304 310.721C339.194 308.323 339.766 305.692 341.084 303.204C341.973 301.525 343.107 300.09 344.38 298.949C340.139 295.518 336.541 291.325 333.785 286.561C329.579 279.291 327.504 270.984 327.797 262.59C328.089 254.196 330.738 246.053 335.44 239.093C340.142 232.133 346.708 226.637 354.386 223.233C354.359 223.084 354.354 222.941 354.369 222.806C352.701 213.061 354.304 203.034 358.935 194.29C363.633 185.421 371.175 178.388 380.35 174.319L380.292 174.327Z" fill="#F2F3F6"/>
<path fill-rule="evenodd" clip-rule="evenodd" d="M162.359 92.8067C163.24 90.0675 163.929 87.27 164.419 84.4346L130.412 91.069L165.189 78.4393C165.83 69.9666 164.735 61.4522 161.971 53.4172C159.208 45.3822 154.834 37.9955 149.117 31.7092L111.549 73.1207L142.738 25.6744C136.142 20.2294 128.496 16.2003 120.275 13.8378C112.055 11.4754 103.436 10.8301 94.9556 11.9422C86.475 13.0543 78.3141 15.9 70.9807 20.3021C63.6473 24.7042 57.2984 30.5686 52.3292 37.5302C47.36 44.4918 43.8768 52.4017 42.0963 60.7675C40.3159 69.1334 40.2764 77.7762 41.9803 86.1579C43.6841 94.5397 47.0948 102.481 52.0002 109.488C56.9055 116.495 63.2005 122.417 70.4933 126.886C69.1183 131.152 68.2103 135.554 67.7854 140.016L117.417 146.189L67.5329 147.759C67.7944 156.837 70.0346 165.732 74.0784 173.829C76.7689 179.226 80.2249 184.187 84.3243 188.564C88.1431 192.647 92.5082 196.214 97.3129 199.155C94.5797 207.668 93.7196 216.637 94.7519 225.455C95.0689 228.175 95.5659 230.88 96.2434 233.553C99.1173 244.892 105.124 255.193 113.576 263.278C122.028 271.364 132.585 276.908 144.039 279.277C151.703 280.861 159.562 280.982 167.209 279.669C167.237 281.994 167.678 284.437 168.574 286.852C169.94 290.529 172.147 293.564 174.745 295.67C174.153 298.96 174.461 302.696 175.825 306.37C177.188 310.04 179.389 313.069 181.981 315.175L181.98 315.177C181.375 318.791 181.748 322.5 183.06 325.921C183.511 327.131 184.065 328.299 184.716 329.413C192.305 325.445 200 321.586 207.799 317.838L207.712 317.583L207.707 317.568C207.626 317.331 207.542 317.087 207.452 316.833C206.218 313.408 204.095 310.373 201.301 308.04C201.9 304.743 201.594 300.995 200.226 297.311C198.861 293.634 196.654 290.599 194.055 288.493C194.647 285.203 194.339 281.467 192.975 277.793C192.063 275.338 190.776 273.169 189.248 271.371C195.694 267.418 201.396 262.306 206.05 256.261C213.185 246.992 217.568 235.903 218.699 224.261C219.128 219.833 219.081 215.393 218.57 211.015C217.74 203.871 215.676 196.891 212.437 190.395C207.219 179.931 199.164 171.146 189.19 165.044C193.461 151.742 193.14 137.392 188.278 124.294C183.414 111.189 174.285 100.099 162.359 92.8067Z" fill="#F2F3F6"/>
<path d="M145.123 330.934C145.123 330.934 136.911 329.621 131.984 335.423C131.984 335.423 135.597 338.27 143.371 334.329L145.123 330.934Z" fill="#3964FC"/>
<path d="M145.999 330.805C145.999 330.805 151.239 337.289 148.67 344.433C148.67 344.433 144.4 342.724 143.934 334.02L145.999 330.805Z" fill="#3964FC"/>
<path d="M150.691 320.204C150.691 320.204 147.407 314.182 134.268 322.613C134.268 322.613 136.02 326.664 141.823 326.336C147.626 326.007 149.178 323.38 150.691 320.204Z" fill="#3964FC"/>
<path d="M151.555 319.77C151.555 319.77 158.371 318.988 159.032 334.59C159.032 334.59 154.711 335.49 151.641 330.551C148.572 325.612 149.843 322.852 151.555 319.77Z" fill="#3964FC"/>
<path d="M155.528 307.328C155.528 307.328 151.696 296.703 137.787 304.258C137.787 304.258 140.962 314.007 154.105 310.941L155.528 307.328Z" fill="#3964FC"/>
<path d="M159.798 291.448C159.798 291.448 152.572 280.718 139.758 290.666C139.758 290.666 144.247 300.739 158.704 295.264L159.798 291.448Z" fill="#3964FC"/>
<path d="M161.331 276.338C161.331 276.338 152.901 266.484 140.215 276.338C140.215 276.338 148.212 284.988 161.331 278.856V276.338Z" fill="#3964FC"/>
<path d="M162.645 261.666C162.645 261.666 154.105 251.37 141.948 261.119C141.948 261.119 151.587 270.207 162.645 264.075V261.666Z" fill="#3964FC"/>
<path d="M161.879 248.633C161.879 248.633 152.885 235.385 141.51 244.363C141.51 244.363 151.149 255.754 161.879 251.152V248.633Z" fill="#3964FC"/>
<path d="M159.798 233.414C159.798 233.414 150.273 220.276 139.211 230.349C139.211 230.349 150.492 241.736 159.798 235.823V233.414Z" fill="#3964FC"/>
<path d="M156.619 219.81C156.619 219.81 145.346 207.465 135.503 212.38C135.503 212.38 147.258 225.492 157.112 223.083L156.619 219.81Z" fill="#3964FC"/>
<path d="M152.682 206.918C152.682 206.918 139.648 191.804 132.094 196.841C132.094 196.841 141.682 208.572 153.601 209.764L152.682 206.918Z" fill="#3964FC"/>
<path d="M146.992 191.957C146.992 191.957 135.597 179.608 127.276 182.674C127.276 182.674 137.021 195.488 148.521 195.816L146.992 191.957Z" fill="#3964FC"/>
<path d="M141.838 177.965C141.838 177.965 129.247 166.141 123.772 168.221C123.772 168.221 132.86 181.36 142.386 180.593L141.838 177.965Z" fill="#3964FC"/>
<path d="M136.802 165.046C136.802 165.046 125.962 150.921 120.05 152.016C120.05 152.016 126.619 164.608 136.802 166.485V165.046Z" fill="#3964FC"/>
<path d="M131.339 147.637C131.339 147.637 121.755 136.805 116.581 136.833C116.581 136.833 124.144 151.301 131.73 151.168L131.339 147.637Z" fill="#3964FC"/>
<path d="M128.097 136.027L118.845 113.472C118.845 113.472 118.38 133.861 129.278 140.211L128.097 136.027Z" fill="#3964FC"/>
<path d="M124.343 111.153C124.343 111.153 122.811 92.321 123.796 90.7881C123.796 90.7881 117.176 106.43 124.406 119.474L124.343 111.153Z" fill="#3964FC"/>
<path d="M155.884 307.073C155.884 307.073 165.484 301.126 171.694 315.676C171.694 315.676 163.154 321.346 154.758 310.784L155.884 307.073Z" fill="#3964FC"/>
<path d="M160.104 290.841C160.104 290.841 171.874 285.473 177.587 300.664C177.587 300.664 168.491 306.921 159.032 294.681L160.104 290.841Z" fill="#3964FC"/>
<path d="M161.879 277.241C161.879 277.241 170.309 267.387 182.995 277.241C182.995 277.241 175.002 285.891 161.879 279.76V277.241Z" fill="#3964FC"/>
<path d="M162.931 261.666C162.931 261.666 171.475 251.37 183.628 261.119C183.628 261.119 173.993 270.207 162.931 264.075V261.666Z" fill="#3964FC"/>
<path d="M161.879 249.009C161.879 249.009 167.869 234.169 180.891 240.551C180.891 240.551 173.852 253.713 162.407 251.472L161.879 249.009Z" fill="#3964FC"/>
<path d="M159.044 233.34C159.044 233.34 164.995 218.242 178.204 225.242C178.204 225.242 170.118 239.08 159.63 235.674L159.044 233.34Z" fill="#3964FC"/>
<path d="M155.352 219.888C155.352 219.888 157.699 203.332 168.628 201.85C168.628 201.85 166.309 219.306 156.811 222.868L155.352 219.888Z" fill="#3964FC"/>
<path d="M152.4 206.945C152.4 206.945 153.319 187.002 162.371 186.31C162.371 186.31 162.066 201.443 153.421 209.772L152.4 206.945Z" fill="#3964FC"/>
<path d="M146.05 191.386C146.05 191.386 148.752 174.806 157.39 172.776C157.39 172.776 156.318 188.836 146.906 195.457L146.05 191.386Z" fill="#3964FC"/>
<path d="M140.814 178.087C140.814 178.087 140.908 160.811 146.187 158.273C146.187 158.273 149.46 173.914 142.343 180.292L140.814 178.087Z" fill="#3964FC"/>
<path d="M136.399 164.842C136.399 164.842 137.142 147.05 142.605 144.544C142.605 144.544 144.478 158.621 137.22 166.004L136.399 164.842Z" fill="#3964FC"/>
<path d="M130.573 149.045C130.573 149.045 130.608 134.576 134.51 131.182C134.51 131.182 138.389 147.035 132.61 151.954L130.573 149.045Z" fill="#3964FC"/>
<path d="M128.559 135.315L132.352 111.231C132.352 111.231 137.513 130.967 128.379 139.66L128.559 135.315Z" fill="#3964FC"/>
<path d="M127.816 111.38C127.816 111.38 137.564 95.1951 137.361 93.3924C137.361 93.3924 136.329 110.363 124.066 118.81L127.816 111.38Z" fill="#3964FC"/>
<path d="M126.674 106.602C126.674 106.602 135.871 83.6049 140.032 81.7435C140.032 81.7435 126.893 88.4224 125.908 105.945L126.674 106.602Z" fill="#3964FC"/>
<path d="M131.781 151.293L132.41 151.101C124.648 125.79 122.709 109.652 126.955 105.608L126.502 105.131C122.005 109.398 123.827 125.348 131.781 151.293Z" fill="#444053"/>
<path d="M153.155 210.543L154.082 210.214C153.26 207.895 152.373 205.541 151.442 203.218C143.34 183.025 136.442 164.244 132.019 149.823L131.21 149.432C135.64 163.88 142.413 183.385 150.527 203.602C151.454 205.901 152.338 208.247 153.155 210.543Z" fill="#444053"/>
<path d="M133.568 349.88C133.693 349.739 146.276 335.576 155.043 311.386C160.184 297.229 163.048 282.347 163.529 267.293C164.131 248.473 160.182 227.459 153.417 208.372L152.682 209.232C167.866 252.074 161.832 288.789 153.831 310.902C145.15 334.868 132.715 348.883 132.59 349.02L133.568 349.88Z" fill="#444053"/>
<path d="M194.452 359.816C194.452 360.805 194.561 361.607 194.698 361.607C194.835 361.607 194.945 360.805 194.945 359.816C194.945 358.827 194.808 359.292 194.671 359.292C194.534 359.292 194.452 358.827 194.452 359.816Z" fill="#FFD037"/>
<path d="M193.079 360.997C193.948 361.47 194.706 361.756 194.769 361.634C194.831 361.513 194.186 361.032 193.318 360.559C192.45 360.086 192.79 360.43 192.728 360.559C192.665 360.688 192.211 360.524 193.079 360.997Z" fill="#FFD037"/>
<path d="M111.396 234.182L117.816 213.493C111.685 205.204 105.082 197.26 98.0372 189.699L92.3075 197.691L95.5945 187.098C86.7889 177.834 80.3584 172.245 80.3584 172.245C80.3584 172.245 67.6851 214.425 71.0289 254.377L92.3904 272.613L72.21 264.259C72.9161 268.824 73.9149 273.341 75.2003 277.783C88.3126 322.529 113.869 354.611 132.283 349.439C150.697 344.267 154.995 303.801 141.882 259.055C137.817 245.183 130.359 231.571 122.003 219.388L111.396 234.182Z" fill="#3F3D56"/>
<path d="M59.7719 256.944L54.3439 235.985C44.7193 231.991 34.8723 228.533 24.8498 225.625L24.1644 235.366L21.3853 224.635C8.95581 221.16 0.5 219.629 0.5 219.629C0.5 219.629 11.9218 262.151 35.8783 294.66L63.7929 299.46L42.1068 302.521C45.1216 306.072 48.3615 309.433 51.8073 312.585C86.6572 344.254 125.474 358.784 138.506 345.039C151.538 331.293 133.852 294.478 99.0017 262.808C88.1979 252.991 74.626 245.112 61.0406 238.911L59.7719 256.944Z" fill="#3964FC"/>
<path d="M417.007 318.807L421.046 314.536C420.557 311.823 419.912 309.14 419.114 306.498L416.767 307.774L418.835 305.587C417.815 302.33 416.93 300.237 416.93 300.237C416.93 300.237 408.795 308.991 404.807 319.05L407.79 325.924L403.906 321.579C403.529 322.766 403.228 323.974 403.006 325.198C400.808 337.542 403.143 348.252 408.223 349.119C413.303 349.986 419.203 340.682 421.402 328.338C422.006 324.395 421.989 320.384 421.352 316.445L417.007 318.807Z" fill="#3F3D56"/>
<path d="M476.761 327.252L482.474 325.641C483.487 323.071 484.352 320.447 485.064 317.782L482.381 317.686L485.306 316.861C486.153 313.557 486.5 311.317 486.5 311.317C486.5 311.317 474.914 314.695 466.189 321.287L465.113 328.681L464.083 322.996C463.134 323.821 462.238 324.704 461.402 325.639C453.002 335.093 449.347 345.443 453.237 348.756C457.128 352.069 467.091 347.09 475.491 337.636C478.09 334.566 480.194 331.124 481.728 327.43L476.761 327.252Z" fill="#3964FC"/>
<path d="M486.499 348.589H0.984436V349.785H486.499V348.589Z" fill="#3F3D56"/>
<path d="M93.0061 366C113.72 366 130.512 362.477 130.512 358.132C130.512 353.786 113.72 350.264 93.0061 350.264C72.2921 350.264 55.5 353.786 55.5 358.132C55.5 362.477 72.2921 366 93.0061 366Z" fill="#E6E6E6"/>
<path d="M124.183 241.167L125.65 244.21C125.65 244.21 133.98 255.366 128.834 257.114C123.689 258.861 120.958 246.533 120.958 246.533L119.598 244.808L124.183 241.167Z" fill="#A0616A"/>
<path d="M114.588 183.542L115.957 182.961C115.957 182.961 117.578 183.542 117.578 186.042C117.578 188.542 115.585 225.043 115.585 225.043L119.571 245.043L114.09 246.043L105.62 227.543L114.588 183.542Z" fill="#575A89"/>
<path d="M114.588 183.542L115.957 182.961C115.957 182.961 117.578 183.542 117.578 186.042C117.578 188.542 115.585 225.043 115.585 225.043L126.297 242.293L119.322 247.293L105.62 227.543L114.588 183.542Z" fill="#575A89"/>
<path d="M113.592 241.543C113.592 241.543 120.069 244.043 119.571 248.543C119.072 253.043 112.595 342.545 112.595 342.545L114.588 352.545L95.6555 353.045L95.1573 288.544L81.705 353.045H62.7722L76.2245 239.543L113.592 241.543Z" fill="#2F2E41"/>
<path d="M112.097 350.545L116.581 355.045C116.581 355.045 127.044 357.045 124.553 360.545C122.062 364.045 96.1538 359.545 96.1538 359.545L96.652 351.545L112.097 350.545Z" fill="#2F2E41"/>
<path d="M79.7121 350.545L84.1962 355.045C84.1962 355.045 94.6591 357.045 92.1679 360.545C89.6768 364.045 63.7687 359.545 63.7687 359.545L64.2669 351.545L79.7121 350.545Z" fill="#2F2E41"/>
<path d="M97.6485 165.541C104.252 165.541 109.606 160.169 109.606 153.541C109.606 146.914 104.252 141.541 97.6485 141.541C91.0445 141.541 85.6909 146.914 85.6909 153.541C85.6909 160.169 91.0445 165.541 97.6485 165.541Z" fill="#A0616A"/>
<path d="M105.122 160.542L104.126 181.042L88.6801 172.042L90.6732 160.542H105.122Z" fill="#A0616A"/>
<path d="M88.182 167.041L102.631 177.542L105.122 170.041L109.606 182.042L107.115 203.542L88.182 167.041Z" fill="#3964FC"/>
<path d="M89.731 165.559L104.125 187.542L104.703 169.163L106.476 170.565C107.451 171.337 108.24 172.321 108.782 173.443C109.324 174.564 109.606 175.795 109.606 177.042L116.581 183.542L114.09 208.542L113.592 238.043C113.592 238.043 116.581 240.543 115.585 242.043C114.588 243.543 110.603 247.043 106.118 247.043C101.634 247.043 73.7333 243.543 73.7333 241.543C73.7333 239.543 74.7298 213.542 74.7298 213.542V178.542L86.6874 169.541L89.731 165.559Z" fill="#575A89"/>
<path d="M72.7369 248.543L79.2141 258.043L81.7049 247.043L78.7156 245.043L72.7369 248.543Z" fill="#A0616A"/>
<path opacity="0.2" d="M104.156 262.87L94.578 288.907L95.513 289.253L105.091 263.216L104.156 262.87Z" fill="black"/>
<path d="M90.4241 141.791C90.4241 141.791 91.9188 134.291 100.389 135.791L99.3923 136.291C99.3923 136.291 107.364 135.291 106.368 139.791C106.368 139.791 112.845 143.791 111.35 148.291C110.471 150.899 109.804 153.575 109.357 156.291L107.862 154.791C107.862 154.791 106.368 144.791 97.3993 145.791C90.6732 146.541 87.9329 149.729 87.2323 152.026C86.9097 153.106 86.498 154.157 86.0014 155.168L85.4418 155.291C85.4418 155.291 82.4524 144.291 90.4241 141.791Z" fill="#2F2E41"/>
<path d="M80.2104 178.042L75.6748 177.83L74.7298 178.542C73.6452 179.63 72.6457 180.8 71.7404 182.042C70.744 183.542 57.7899 220.043 57.7899 220.043C57.5495 222.259 57.8931 224.501 58.7864 226.543C60.2811 230.043 72.2386 251.043 72.2386 251.043L81.2068 245.543L69.2492 221.043L77.7192 209.042L80.2104 178.042Z" fill="#575A89"/>
<path d="M345.355 104.576H343.591V56.0727C343.591 52.3861 342.868 48.7356 341.462 45.3297C340.056 41.9238 337.996 38.8291 335.398 36.2223C332.8 33.6155 329.717 31.5477 326.323 30.1369C322.929 28.7261 319.292 28 315.618 28H213.222C209.548 28 205.911 28.7261 202.517 30.1369C199.123 31.5477 196.04 33.6155 193.442 36.2223C190.844 38.8291 188.784 41.9238 187.378 45.3297C185.972 48.7356 185.249 52.3861 185.249 56.0727V322.168C185.249 325.854 185.972 329.505 187.378 332.911C188.784 336.317 190.844 339.411 193.442 342.018C196.04 344.625 199.123 346.693 202.517 348.104C205.911 349.514 209.548 350.24 213.222 350.24H315.618C319.292 350.24 322.929 349.514 326.323 348.104C329.717 346.693 332.8 344.625 335.398 342.018C337.996 339.411 340.056 336.317 341.462 332.911C342.868 329.505 343.591 325.854 343.591 322.168V139.102H345.355V104.576Z" fill="#2F2E41"/>
<path d="M337.888 54.1925V324.048C337.887 329.693 335.652 335.107 331.674 339.099C327.696 343.091 322.302 345.335 316.676 345.336H212.18C206.553 345.336 201.156 343.094 197.177 339.102C193.197 335.11 190.96 329.695 190.959 324.048V54.1925C190.961 48.5456 193.197 43.1305 197.177 39.1383C201.156 35.1462 206.553 32.9038 212.18 32.9045H224.856C224.234 34.4407 223.997 36.1067 224.166 37.7563C224.336 39.4058 224.906 40.9883 225.828 42.3647C226.75 43.7411 227.994 44.8692 229.452 45.6499C230.91 46.4306 232.536 46.84 234.188 46.8421H293.765C295.418 46.84 297.044 46.4306 298.502 45.6499C299.96 44.8692 301.204 43.7411 302.126 42.3647C303.047 40.9883 303.618 39.4058 303.788 37.7563C303.957 36.1067 303.72 34.4407 303.098 32.9045H316.676C322.302 32.9057 327.696 35.1489 331.674 39.1409C335.652 43.1329 337.887 48.547 337.888 54.1925Z" fill="#514E69"/>
<path d="M312.134 194.722H216.713C213.952 194.722 211.713 196.961 211.713 199.722V295.519C211.713 298.281 213.952 300.519 216.713 300.519H312.134C314.896 300.519 317.134 298.281 317.134 295.519V199.722C317.134 196.961 314.896 194.722 312.134 194.722Z" fill="#F2F3F6"/>
<path d="M292.211 147.019H237.232C235.994 147.019 234.99 148.023 234.99 149.262C234.99 150.5 235.994 151.505 237.232 151.505H292.211C293.45 151.505 294.454 150.5 294.454 149.262C294.454 148.023 293.45 147.019 292.211 147.019Z" fill="white"/>
<path d="M299.626 158.674H229.276C228.037 158.674 227.033 159.678 227.033 160.917C227.033 162.155 228.037 163.16 229.276 163.16H299.626C300.865 163.16 301.869 162.155 301.869 160.917C301.869 159.678 300.865 158.674 299.626 158.674Z" fill="white"/>
<path d="M281.58 204.935H243.638C242.784 204.935 242.091 205.628 242.091 206.483C242.091 207.338 242.784 208.031 243.638 208.031H281.58C282.434 208.031 283.127 207.338 283.127 206.483C283.127 205.628 282.434 204.935 281.58 204.935Z" fill="#D7D9E5"/>
<path d="M303.912 214.022H243.638C242.784 214.022 242.091 214.715 242.091 215.57C242.091 216.425 242.784 217.118 243.638 217.118H303.912C304.767 217.118 305.46 216.425 305.46 215.57C305.46 214.715 304.767 214.022 303.912 214.022Z" fill="#3964FC"/>
<path d="M292.847 222.677H244.297C243.443 222.677 242.75 223.37 242.75 224.224C242.75 225.079 243.443 225.772 244.297 225.772H292.847C293.701 225.772 294.394 225.079 294.394 224.224C294.394 223.37 293.701 222.677 292.847 222.677Z" fill="#D7D9E5"/>
<path d="M270.692 232.172H243.638C242.784 232.172 242.091 232.865 242.091 233.72C242.091 234.575 242.784 235.268 243.638 235.268H270.692C271.547 235.268 272.24 234.575 272.24 233.72C272.24 232.865 271.547 232.172 270.692 232.172Z" fill="#D7D9E5"/>
<path d="M286.046 241.448H243.638C242.784 241.448 242.091 242.141 242.091 242.995C242.091 243.85 242.784 244.543 243.638 244.543H286.046C286.901 244.543 287.594 243.85 287.594 242.995C287.594 242.141 286.901 241.448 286.046 241.448Z" fill="#3964FC"/>
<path d="M223.387 206.483C223.387 207.871 224.512 209.004 225.899 209.004C227.287 209.004 228.412 207.871 228.412 206.483C228.412 205.096 227.287 203.962 225.899 203.962C224.512 203.962 223.387 205.096 223.387 206.483Z" fill="#D7D9E5"/>
<path d="M223.387 215.57C223.387 216.958 224.512 218.092 225.899 218.092C227.287 218.092 228.412 216.958 228.412 215.57C228.412 214.183 227.287 213.049 225.899 213.049C224.512 213.049 223.387 214.183 223.387 215.57Z" fill="#3964FC"/>
<path d="M223.387 224.224C223.387 225.612 224.512 226.746 225.899 226.746C227.287 226.746 228.412 225.612 228.412 224.224C228.412 222.837 227.287 221.703 225.899 221.703C224.512 221.703 223.387 222.837 223.387 224.224Z" fill="#D7D9E5"/>
<path d="M223.387 233.72C223.387 235.108 224.512 236.242 225.899 236.242C227.287 236.242 228.412 235.108 228.412 233.72C228.412 232.333 227.287 231.199 225.899 231.199C224.512 231.199 223.387 232.333 223.387 233.72Z" fill="#D7D9E5"/>
<path d="M223.387 242.995C223.387 244.383 224.512 245.517 225.899 245.517C227.287 245.517 228.412 244.383 228.412 242.995C228.412 241.608 227.287 240.474 225.899 240.474C224.512 240.474 223.387 241.608 223.387 242.995Z" fill="#3964FC"/>
<path d="M281.58 250.781H243.638C242.784 250.781 242.091 251.474 242.091 252.329C242.091 253.183 242.784 253.876 243.638 253.876H281.58C282.434 253.876 283.127 253.183 283.127 252.329C283.127 251.474 282.434 250.781 281.58 250.781Z" fill="#D7D9E5"/>
<path d="M303.912 259.868H243.638C242.784 259.868 242.091 260.561 242.091 261.416C242.091 262.27 242.784 262.963 243.638 262.963H303.912C304.767 262.963 305.46 262.27 305.46 261.416C305.46 260.561 304.767 259.868 303.912 259.868Z" fill="#3964FC"/>
<path d="M292.847 268.522H244.297C243.443 268.522 242.75 269.215 242.75 270.07C242.75 270.925 243.443 271.618 244.297 271.618H292.847C293.701 271.618 294.394 270.925 294.394 270.07C294.394 269.215 293.701 268.522 292.847 268.522Z" fill="#D7D9E5"/>
<path d="M270.692 278.018H243.638C242.784 278.018 242.091 278.711 242.091 279.566C242.091 280.42 242.784 281.113 243.638 281.113H270.692C271.547 281.113 272.24 280.42 272.24 279.566C272.24 278.711 271.547 278.018 270.692 278.018Z" fill="#D7D9E5"/>
<path d="M286.046 287.293H243.638C242.784 287.293 242.091 287.986 242.091 288.841C242.091 289.696 242.784 290.389 243.638 290.389H286.046C286.901 290.389 287.594 289.696 287.594 288.841C287.594 287.986 286.901 287.293 286.046 287.293Z" fill="#D7D9E5"/>
<path d="M223.387 252.329C223.387 253.716 224.512 254.85 225.899 254.85C227.287 254.85 228.412 253.716 228.412 252.329C228.412 250.941 227.287 249.807 225.899 249.807C224.512 249.807 223.387 250.941 223.387 252.329Z" fill="#D7D9E5"/>
<path d="M223.387 261.416C223.387 262.803 224.512 263.937 225.899 263.937C227.287 263.937 228.412 262.803 228.412 261.416C228.412 260.028 227.287 258.894 225.899 258.894C224.512 258.894 223.387 260.028 223.387 261.416Z" fill="#3964FC"/>
<path d="M223.387 270.07C223.387 271.458 224.512 272.591 225.899 272.591C227.287 272.591 228.412 271.458 228.412 270.07C228.412 268.682 227.287 267.549 225.899 267.549C224.512 267.549 223.387 268.682 223.387 270.07Z" fill="#D7D9E5"/>
<path d="M223.387 279.566C223.387 280.953 224.512 282.087 225.899 282.087C227.287 282.087 228.412 280.953 228.412 279.566C228.412 278.178 227.287 277.044 225.899 277.044C224.512 277.044 223.387 278.178 223.387 279.566Z" fill="#D7D9E5"/>
<path d="M223.387 288.841C223.387 290.228 224.512 291.362 225.899 291.362C227.287 291.362 228.412 290.228 228.412 288.841C228.412 287.453 227.287 286.319 225.899 286.319C224.512 286.319 223.387 287.453 223.387 288.841Z" fill="#D7D9E5"/>
<path d="M264.424 133.53C283.406 133.53 298.794 118.087 298.794 99.037C298.794 79.9869 283.406 64.5437 264.424 64.5437C245.441 64.5437 230.053 79.9869 230.053 99.037C230.053 118.087 245.441 133.53 264.424 133.53Z" fill="#3964FC"/>
<path d="M264.14 82.1212C260.789 82.1212 257.513 83.1185 254.726 84.9869C251.94 86.8553 249.768 89.511 248.486 92.618C247.204 95.7251 246.868 99.144 247.522 102.442C248.176 105.741 249.789 108.771 252.159 111.149C254.529 113.527 257.548 115.146 260.834 115.802C264.121 116.458 267.528 116.122 270.624 114.835C273.72 113.548 276.366 111.368 278.228 108.572C280.09 105.776 281.083 102.488 281.083 99.1251C281.07 94.6195 279.281 90.3021 276.106 87.1161C272.931 83.9301 268.629 82.1344 264.14 82.1212ZM264.14 87.2224C265.145 87.2224 266.128 87.5216 266.964 88.0821C267.8 88.6426 268.451 89.4393 268.836 90.3714C269.221 91.3035 269.321 92.3292 269.125 93.3188C268.929 94.3083 268.445 95.2172 267.734 95.9306C267.023 96.6441 266.117 97.1299 265.131 97.3267C264.145 97.5235 263.123 97.4225 262.195 97.0364C261.266 96.6503 260.472 95.9965 259.913 95.1576C259.355 94.3187 259.057 93.3325 259.057 92.3235C259.061 90.972 259.598 89.6771 260.55 88.7215C261.503 87.7658 262.793 87.2269 264.14 87.2224V87.2224ZM264.14 111.78C262.132 111.771 260.156 111.27 258.385 110.321C256.613 109.373 255.099 108.004 253.974 106.335C254.055 102.935 260.751 101.063 264.14 101.063C267.528 101.063 274.224 102.935 274.306 106.335C273.179 108.003 271.665 109.37 269.893 110.319C268.122 111.268 266.147 111.769 264.14 111.78Z" fill="white"/>
<path d="M398.251 361.732C419.375 361.732 436.5 358.209 436.5 353.864C436.5 349.518 419.375 345.996 398.251 345.996C377.127 345.996 360.002 349.518 360.002 353.864C360.002 358.209 377.127 361.732 398.251 361.732Z" fill="#E6E6E6"/>
<path d="M357.712 237.171L352.688 236.297C352.688 236.297 342.422 231.542 341.799 235.143C341.177 238.744 350.975 241.933 350.975 241.933L361.52 240.801L357.712 237.171Z" fill="#FFB8B8"/>
<path d="M386.929 200.713L379.892 232.871L356.401 236.201L355.5 245.688L385.795 245.769L400.945 217.99L386.929 200.713Z" fill="#575A89"/>
<path opacity="0.2" d="M386.929 200.713L379.892 232.871L356.401 236.201L355.5 245.688L385.795 245.769L400.945 217.99L386.929 200.713Z" fill="black"/>
<path d="M351.171 210.039L347.586 206.401C347.586 206.401 341.976 196.549 339.387 199.118C336.797 201.688 342.931 209.993 342.931 209.993L352.172 215.213L351.171 210.039Z" fill="#FFB8B8"/>
<path d="M400.557 190.544L404.97 189.464C406.654 189.466 408.318 189.093 409.841 188.371C411.363 187.648 412.707 186.595 413.774 185.288C414.841 183.98 415.605 182.451 416.011 180.811C416.417 179.171 416.455 177.46 416.121 175.804C416.126 171.851 414.566 168.058 411.785 165.26C409.003 162.461 405.228 160.886 401.289 160.881H401.289C397.35 160.876 393.571 162.442 390.783 165.233C387.994 168.025 386.425 171.814 386.42 175.766C385.849 177.76 385.81 179.869 386.306 181.883C386.803 183.896 387.818 185.743 389.249 187.24C390.681 188.736 392.478 189.829 394.463 190.409C396.447 190.989 398.549 191.035 400.557 190.544Z" fill="#2F2E41"/>
<path d="M374.6 264.354L378.192 303.83L384.699 342.578L395.624 342.592L394.215 304.581L388.446 258.524L374.6 264.354Z" fill="#2F2E41"/>
<path d="M386.158 340.387L378.869 344.764C378.869 344.764 367.214 346.211 369.394 349.869C371.575 353.526 397.07 351.365 397.072 349.904C397.073 348.442 396.355 340.4 394.898 340.398L386.158 340.387Z" fill="#2F2E41"/>
<path d="M406.849 260.944C406.849 260.944 406.644 266.588 401.535 275.352L402.229 302.398L428.408 336.055L418.929 344.083L386.928 307.496L378.971 263.629L389.181 253.408L406.849 260.944Z" fill="#2F2E41"/>
<path d="M426.223 336.052C426.223 336.052 434.961 337.525 433.5 341.178C432.039 344.831 428.376 361.638 418.91 359.433C418.91 359.433 414.54 359.428 416 356.506C416.878 354.748 417.853 353.041 418.92 351.393L418.932 341.891L426.223 336.052Z" fill="#2F2E41"/>
<path d="M395.827 191.286C401.861 191.286 406.752 186.378 406.752 180.322C406.752 174.267 401.861 169.358 395.827 169.358C389.793 169.358 384.902 174.267 384.902 180.322C384.902 186.378 389.793 191.286 395.827 191.286Z" fill="#FFB8B8"/>
<path d="M400.916 187.638L400.901 200.064L389.247 200.05L390.719 187.625L400.916 187.638Z" fill="#FFB8B8"/>
<path d="M408.1 265.857L400.87 264.643C391.647 263.088 382.202 263.487 373.141 265.815L376.411 233.145L376.837 228.887L377.749 219.767C377.749 219.767 374.597 207.75 379.223 203.691C384.87 198.735 389.87 194.79 389.87 194.79L400.908 195.676C407.079 208.025 405.742 223.547 401.579 240.268L408.1 265.857Z" fill="#575A89"/>
<path d="M396.05 197.371L371.72 219.459L350.665 208.486L346.244 213.915L364.842 230.36C366.12 231.28 367.622 231.836 369.188 231.971C370.755 232.106 372.329 231.814 373.744 231.127L397.47 219.604L396.05 197.371Z" fill="#575A89"/>
<path d="M416.917 172.244C420.81 172.244 423.965 169.077 423.965 165.171C423.965 161.264 420.81 158.097 416.917 158.097C413.024 158.097 409.868 161.264 409.868 165.171C409.868 169.077 413.024 172.244 416.917 172.244Z" fill="#2F2E41"/>
<path d="M410.413 161.368C410.414 160.321 410.646 159.288 411.093 158.343C411.54 157.397 412.19 156.563 412.997 155.901C413.804 155.238 414.748 154.764 415.76 154.511C416.771 154.259 417.827 154.235 418.849 154.442C417.947 154.014 416.965 153.784 415.967 153.765C414.97 153.747 413.98 153.941 413.063 154.336C412.146 154.73 411.323 155.315 410.649 156.053C409.974 156.79 409.463 157.663 409.15 158.613C408.836 159.564 408.728 160.57 408.831 161.566C408.934 162.561 409.247 163.524 409.748 164.389C410.249 165.254 410.928 166.003 411.74 166.586C412.551 167.168 413.476 167.571 414.454 167.767C413.245 167.196 412.223 166.29 411.507 165.157C410.791 164.024 410.412 162.71 410.413 161.368Z" fill="#2F2E41"/>
<path d="M404.366 165.38L394.863 163.624L387.555 168.22C385.758 169.35 384.322 170.974 383.417 172.898C382.512 174.823 382.176 176.967 382.448 179.078L389.768 177.216L391.407 173.091C392.459 174.817 393.929 176.249 395.679 177.254C399.826 179.643 400.787 184.721 401.277 190.197L409.295 185.821L414.403 177.787L404.366 165.38Z" fill="#2F2E41"/>
<path opacity="0.2" d="M395.389 212.967L376.412 233.145L376.837 228.886L395.389 212.967Z" fill="black"/>
<path d="M409.158 62.7934C409.158 62.7934 421.097 4.36139 459.574 21.9324C459.574 21.9324 467.063 22.4751 468.559 29.8148C468.559 29.8148 465.547 29.1176 465.011 35.1883C464.8 37.3442 464.339 39.4683 463.637 41.5176C462.697 44.2841 460.884 46.6702 458.47 48.3165C458.47 48.3165 447.46 62.6917 419.361 61.8966C419.361 61.8966 412.351 65.0029 410.918 64.4214L417.664 55.8278C417.664 55.8278 423.774 61.0224 430.299 59.9454C430.299 59.9454 417.818 56.2643 418.59 54.4731C418.746 54.1121 422.365 50.0827 422.365 50.0827C422.365 50.0827 433.028 59.0515 443.045 57.1243C443.045 57.1243 427.583 54.7307 423.724 48.5363L429.542 42.7757C429.542 42.7757 440.349 52.8154 451.839 51.0484C451.839 51.0484 435.766 47.986 430.898 41.5946L437.384 36.701C437.384 36.701 448.115 46.2884 457.661 44.7545C457.661 44.7545 439.451 39.3408 438.945 35.6845C438.945 35.6845 445.176 31.5498 447.351 31.2468C447.351 31.2468 455.216 37.9511 460.683 36.5612C460.683 36.5612 448.896 31.6536 449.187 30.2967C449.187 30.2967 458.732 27.0718 464.441 28.0014C464.441 28.0014 456.122 26.0212 448.771 28.7874C448.771 28.7874 451.064 23.8095 455.26 21.6695C455.26 21.6695 449.312 20.976 446.461 29.5957C446.461 29.5957 439.12 32.4083 438.433 33.4978C438.433 33.4978 440.033 24.6015 443.79 19.9501C443.79 19.9501 437.144 23.1466 436.673 34.7391L430.043 39.5136C430.043 39.5136 431.549 27.635 434.58 23.2355C434.58 23.2355 428.301 27.5478 428.468 40.8557L422.711 46.4424C422.711 46.4424 423.226 36.1061 425.523 30.4852C425.523 30.4852 420.564 35.744 421.102 48.1046L417.684 52.3123C417.684 52.3123 418.194 44.7783 418.531 42.6213C418.867 40.4644 418.323 40.2014 418.323 40.2014C416.352 44.5331 415.622 49.327 416.215 54.049C416.215 54.049 409.748 63.1343 409.158 62.7934Z" fill="#3964FC"/>
<path d="M57.1285 106.831C57.1285 106.831 26.3009 104.973 29.9028 126.601C29.9028 126.601 29.1808 130.422 32.6449 132.158C32.6449 132.158 32.7016 130.535 35.8169 131.095C36.9233 131.281 38.048 131.336 39.1673 131.257C40.6806 131.157 42.1194 130.565 43.2641 129.57C43.2641 129.57 51.9446 125.984 55.3194 111.804C55.3194 111.804 57.8099 108.713 57.7126 107.918L52.5043 110.141C52.5043 110.141 54.281 113.897 52.8856 117.02C52.8856 117.02 52.7153 110.279 51.7174 110.433C51.5146 110.433 49.0078 111.739 49.0078 111.739C49.0078 111.739 52.0743 118.286 49.7623 123.04C49.7623 123.04 50.6384 114.976 48.0505 112.209L44.3837 114.383C44.3837 114.383 47.9613 121.141 45.5357 126.658C45.5357 126.658 46.1604 118.196 43.613 114.903L40.295 117.499C40.295 117.499 43.6536 124.159 41.6092 128.735C41.6092 128.735 41.3334 118.886 39.573 118.14C39.573 118.14 36.6687 120.703 36.2225 121.758C36.2225 121.758 38.5264 126.625 37.0986 129.148C37.0986 129.148 36.2225 122.585 35.4761 122.553C35.4761 122.553 32.58 126.901 32.2798 129.854C32.4247 127.101 33.286 124.433 34.7785 122.115C33.1072 122.431 31.5648 123.229 30.3409 124.411C30.3409 124.411 30.7952 121.336 35.4924 121.068C35.4924 121.068 37.9261 117.766 38.5265 117.564C38.5265 117.564 33.8536 117.174 31.0224 118.432C31.0224 118.432 33.5129 115.535 39.3783 116.85L42.6233 114.173C42.6233 114.173 36.4659 113.361 33.8618 114.262C33.8618 114.262 36.8634 111.698 43.5076 113.564L47.077 111.43C47.077 111.43 41.8282 110.303 38.7049 110.708C38.7049 110.708 42.0067 108.932 48.1236 110.855L50.679 109.711C50.679 109.711 46.8337 108.956 45.706 108.834C44.5784 108.713 44.5216 108.405 44.5216 108.405C46.957 107.999 49.457 108.28 51.7417 109.216C51.7417 109.216 57.2258 107.171 57.1285 106.831Z" fill="#3964FC"/>
</svg>
