<svg width="594" height="526" viewBox="0 0 594 526" fill="none" xmlns="http://www.w3.org/2000/svg">
<g clip-path="url(#clip0)">
<path opacity="0.1" d="M562.037 318.176C570.24 318.176 576.891 317.267 576.891 316.144C576.891 315.022 570.24 314.112 562.037 314.112C553.834 314.112 547.183 315.022 547.183 316.144C547.183 317.267 553.834 318.176 562.037 318.176Z" fill="#3964FC"/>
<path opacity="0.1" d="M505.136 323.934C513.339 323.934 519.99 323.024 519.99 321.901C519.99 320.779 513.339 319.869 505.136 319.869C496.932 319.869 490.282 320.779 490.282 321.901C490.282 323.024 496.932 323.934 505.136 323.934Z" fill="#3964FC"/>
<path opacity="0.1" d="M438.112 316.144C446.315 316.144 452.965 315.234 452.965 314.112C452.965 312.989 446.315 312.079 438.112 312.079C429.908 312.079 423.258 312.989 423.258 314.112C423.258 315.234 429.908 316.144 438.112 316.144Z" fill="#3964FC"/>
<path opacity="0.1" d="M527.908 339.737C533.74 339.737 538.468 339.089 538.468 338.288C538.468 337.488 533.74 336.84 527.908 336.84C522.076 336.84 517.348 337.488 517.348 338.288C517.348 339.089 522.076 339.737 527.908 339.737Z" fill="#3964FC"/>
<path opacity="0.1" d="M468.854 338.288C474.686 338.288 479.414 337.64 479.414 336.84C479.414 336.039 474.686 335.391 468.854 335.391C463.021 335.391 458.294 336.039 458.294 336.84C458.294 337.64 463.021 338.288 468.854 338.288Z" fill="#3964FC"/>
<path d="M504.815 321.44C504.815 321.44 525.652 253.314 501.556 226.028C483.559 205.615 463.069 208.077 453.91 210.584C451.539 211.213 449.334 212.349 447.447 213.914C445.56 215.478 444.037 217.433 442.984 219.643C439.77 226.535 440.361 237.722 462.973 250.782C500.836 272.651 503.195 302.649 503.195 302.649L504.815 321.44Z" fill="#3964FC"/>
<path d="M457.169 220.245C457.169 220.245 518.588 239.402 504.815 321.44" stroke="#565987" stroke-miterlimit="10"/>
<path d="M493.033 227.112C493.033 227.112 484.575 232.799 487.249 241.338" stroke="#565987" stroke-miterlimit="10"/>
<path d="M463.333 232.17C463.333 232.17 468.474 226.926 474.793 229.817" stroke="#565987" stroke-miterlimit="10"/>
<path d="M487.609 258.552C487.609 258.552 496.684 253.962 499.03 259.713" stroke="#565987" stroke-miterlimit="10"/>
<path d="M510.072 268.131C510.072 268.131 503.253 267.592 503.131 270.843" stroke="#565987" stroke-miterlimit="10"/>
<path d="M505.656 321.985C505.656 321.985 481.233 272.471 474.555 273.555C471.341 274.068 469.901 277.196 469.239 280.331C468.417 284.389 468.882 288.602 470.57 292.384C474.034 300.309 483.334 315.356 505.656 321.985Z" fill="#3964FC"/>
<path d="M474.735 282.953C474.735 282.953 500.348 319.997 505.297 321.626" stroke="#565987" stroke-miterlimit="10"/>
<path d="M472.382 288.736H478.36" stroke="#565987" stroke-miterlimit="10"/>
<path d="M479.542 302.29L488.913 302.687" stroke="#565987" stroke-miterlimit="10"/>
<path d="M485.243 291.448L484.228 296.314" stroke="#565987" stroke-miterlimit="10"/>
<path d="M495.206 306.265L495.026 310.688" stroke="#565987" stroke-miterlimit="10"/>
<path d="M504.937 321.985C504.937 321.985 529.36 272.471 536.038 273.555C539.252 274.068 540.692 277.196 541.354 280.331C542.176 284.389 541.711 288.602 540.023 292.384C536.559 300.309 527.259 315.356 504.937 321.985Z" fill="#3964FC"/>
<path d="M535.859 282.953C535.859 282.953 510.246 319.997 505.297 321.626" stroke="#565987" stroke-miterlimit="10"/>
<path d="M538.211 288.736H532.233" stroke="#565987" stroke-miterlimit="10"/>
<path d="M531.051 302.29L521.68 302.687" stroke="#565987" stroke-miterlimit="10"/>
<path d="M525.35 291.448L526.365 296.314" stroke="#565987" stroke-miterlimit="10"/>
<path d="M515.381 306.265L515.567 310.688" stroke="#565987" stroke-miterlimit="10"/>
<path d="M463.037 333.551C462.374 333.009 461.891 332.28 461.649 331.461C461.541 331.048 461.579 330.611 461.756 330.222C461.932 329.834 462.237 329.517 462.619 329.326C463.513 328.986 464.464 329.601 465.19 330.23C465.916 330.858 466.739 331.557 467.684 331.428C467.199 330.988 466.836 330.431 466.631 329.809C466.426 329.188 466.386 328.524 466.514 327.883C466.554 327.617 466.665 327.367 466.835 327.159C467.33 326.633 468.23 326.864 468.822 327.274C470.705 328.601 471.232 331.153 471.245 333.448C471.337 332.596 471.337 331.736 471.245 330.884C471.208 330.459 471.276 330.032 471.443 329.64C471.61 329.247 471.871 328.902 472.202 328.633C472.649 328.389 473.153 328.27 473.661 328.287C474.082 328.227 474.51 328.256 474.919 328.372C475.327 328.488 475.707 328.689 476.033 328.96C476.746 329.73 476.56 331.018 475.937 331.864C475.235 332.639 474.407 333.29 473.488 333.788C472.784 334.203 472.183 334.773 471.733 335.455C471.683 335.549 471.64 335.648 471.605 335.75H466.296C465.115 335.166 464.019 334.426 463.037 333.551Z" fill="#3964FC"/>
<path d="M556.021 313.605C555.356 313.066 554.871 312.337 554.633 311.515C554.526 311.103 554.564 310.667 554.74 310.28C554.917 309.892 555.222 309.577 555.603 309.387C556.497 309.047 557.448 309.662 558.174 310.284C558.9 310.906 559.73 311.618 560.674 311.483C560.187 311.045 559.822 310.487 559.616 309.866C559.41 309.244 559.369 308.58 559.498 307.938C559.537 307.672 559.651 307.423 559.826 307.22C560.321 306.694 561.214 306.918 561.806 307.335C563.689 308.656 564.216 311.182 564.229 313.509C564.323 312.657 564.323 311.797 564.229 310.945C564.192 310.52 564.26 310.093 564.427 309.701C564.594 309.308 564.855 308.963 565.186 308.694C565.635 308.457 566.138 308.34 566.645 308.355C567.064 308.289 567.491 308.312 567.9 308.423C568.309 308.533 568.689 308.728 569.017 308.996C569.737 309.759 569.551 311.047 568.921 311.894C568.224 312.684 567.395 313.347 566.472 313.855C565.768 314.271 565.168 314.841 564.717 315.522C564.664 315.616 564.621 315.715 564.589 315.817H559.28C558.099 315.228 557.004 314.484 556.021 313.605Z" fill="#3964FC"/>
<path d="M525.028 333.551C524.366 333.009 523.882 332.28 523.64 331.461C523.533 331.048 523.571 330.611 523.747 330.222C523.924 329.834 524.229 329.517 524.611 329.326C525.504 328.986 526.455 329.601 527.182 330.23C527.908 330.858 528.731 331.557 529.675 331.428C529.19 330.989 528.826 330.431 528.62 329.81C528.414 329.189 528.372 328.525 528.499 327.883C528.544 327.617 528.657 327.368 528.827 327.159C529.322 326.633 530.222 326.864 530.813 327.274C532.696 328.601 533.223 331.153 533.236 333.448C533.339 332.597 533.35 331.737 533.268 330.884C533.232 330.459 533.3 330.032 533.467 329.64C533.634 329.247 533.894 328.902 534.226 328.633C534.672 328.389 535.176 328.27 535.685 328.287C536.105 328.227 536.534 328.256 536.942 328.372C537.351 328.488 537.731 328.689 538.057 328.96C538.77 329.73 538.584 331.018 537.96 331.864C537.259 332.639 536.431 333.29 535.511 333.788C534.807 334.203 534.207 334.773 533.757 335.455C533.706 335.549 533.663 335.648 533.628 335.75H528.319C527.128 335.169 526.02 334.429 525.028 333.551Z" fill="#3964FC"/>
<path d="M437.148 293.237C437.148 293.237 435.155 295.833 438.067 299.751C440.978 303.668 443.369 306.983 442.405 309.425C442.405 309.425 438.015 302.148 434.442 302.046C430.868 301.943 433.214 297.616 437.148 293.237Z" fill="#3964FC"/>
<path opacity="0.1" d="M437.148 293.237C436.972 293.487 436.833 293.761 436.736 294.051C433.253 298.135 431.395 301.95 434.744 302.046C437.868 302.136 441.615 307.701 442.508 309.098C442.508 309.207 442.444 309.316 442.405 309.419C442.405 309.419 438.015 302.142 434.442 302.04C430.868 301.937 433.214 297.616 437.148 293.237Z" fill="black"/>
<path d="M433.446 296.545C433.446 297.462 433.548 298.199 433.677 298.199C433.806 298.199 433.902 297.462 433.902 296.545C433.902 295.628 433.773 296.064 433.651 296.064C433.529 296.064 433.446 295.635 433.446 296.545Z" fill="#FFD037"/>
<path d="M432.173 297.635C432.976 298.077 433.683 298.34 433.741 298.231C433.799 298.122 433.201 297.673 432.398 297.238C431.594 296.802 431.909 297.116 431.845 297.238C431.781 297.359 431.37 297.199 432.173 297.635Z" fill="#FFD037"/>
<path d="M447.656 293.237C447.656 293.237 449.649 295.833 446.737 299.751C443.826 303.668 441.435 306.983 442.405 309.425C442.405 309.425 446.789 302.148 450.362 302.046C453.936 301.943 451.59 297.616 447.656 293.237Z" fill="#3964FC"/>
<path opacity="0.1" d="M447.656 293.237C447.833 293.487 447.971 293.761 448.068 294.051C451.551 298.135 453.409 301.95 450.06 302.046C446.937 302.136 443.189 307.701 442.296 309.098C442.326 309.207 442.362 309.314 442.405 309.419C442.405 309.419 446.789 302.142 450.362 302.04C453.936 301.937 451.59 297.616 447.656 293.237Z" fill="black"/>
<path d="M451.358 296.545C451.358 297.462 451.256 298.199 451.127 298.199C450.999 298.199 450.902 297.462 450.902 296.545C450.902 295.628 451.031 296.064 451.153 296.064C451.275 296.064 451.358 295.635 451.358 296.545Z" fill="#FFD037"/>
<path d="M452.631 297.635C451.828 298.077 451.121 298.34 451.063 298.231C451.005 298.122 451.603 297.673 452.406 297.238C453.21 296.802 452.895 297.116 452.959 297.238C453.023 297.359 453.434 297.199 452.631 297.635Z" fill="#FFD037"/>
<path d="M450.722 309.085C450.722 309.085 445.163 308.919 443.485 307.726C441.808 306.534 434.924 305.11 434.487 307.021C434.05 308.932 426.131 316.522 432.404 316.574C438.677 316.625 447.007 315.599 448.678 314.58C450.349 313.56 450.722 309.085 450.722 309.085Z" fill="#A8A8A8"/>
<path opacity="0.2" d="M432.314 315.907C438.594 315.958 446.911 314.932 448.588 313.913C449.874 313.144 450.369 310.361 450.517 309.079H450.697C450.697 309.079 450.349 313.567 448.672 314.573C446.994 315.58 438.684 316.619 432.398 316.567C430.585 316.567 429.962 315.926 429.994 314.958C430.27 315.542 430.965 315.901 432.314 315.907Z" fill="black"/>
<path d="M289.332 223.881C288.51 223.958 287.674 223.919 286.858 224.047C285.487 224.319 284.18 224.843 283.001 225.592C277.152 228.913 271.631 233.478 269.208 239.736C269.009 240.12 268.946 240.561 269.028 240.986C269.172 241.336 269.407 241.642 269.71 241.87L271.985 243.935C272.273 244.233 272.615 244.472 272.994 244.64C273.608 244.8 274.255 244.78 274.858 244.582C281.112 243.153 287.758 241.505 292.147 236.838C294.23 234.626 296.152 231.58 299.217 231.497C300.503 231.497 301.705 231.991 302.971 232.138C304.237 232.286 305.76 231.747 306.063 230.516C306.161 229.904 306.089 229.277 305.857 228.702L303.967 222.425C303.453 220.707 298.266 220.617 296.537 220.925C293.902 221.38 292.128 223.624 289.332 223.881Z" fill="#65617D"/>
<path d="M311.596 259.238C311.506 261.386 311.68 263.559 311.326 265.688C311.016 267.366 310.477 268.995 309.726 270.528C308.57 272.995 307.101 275.302 305.355 277.395C303.729 279.318 301.782 281.126 299.372 281.883C296.961 282.639 293.998 282.094 292.494 280.068C291.267 278.421 291.209 276.222 291.299 274.164C291.517 269.105 292.314 263.976 294.59 259.45C295.567 257.527 296.807 255.693 297.803 253.75C299.886 249.718 301.075 244.935 304.668 242.153C306.922 243.191 309.332 243.852 311.802 244.108C312.76 244.211 315.498 244.275 315.819 245.499C316.038 246.326 314.238 248.641 313.891 249.455C312.519 252.544 311.741 255.863 311.596 259.238Z" fill="#65617D"/>
<path d="M286.119 166.776C286.89 168.738 287.867 170.661 288.047 172.751C288.175 174.034 288.047 175.316 288.047 176.598C288.155 178.355 288.448 180.095 288.921 181.791L292.501 196.409C293.034 198.595 293.568 200.839 293.291 203.07C293.105 204.557 292.565 206 292.572 207.494C292.64 208.626 292.821 209.75 293.111 210.847C293.789 214.236 293.604 217.741 292.572 221.04C292.466 221.289 292.428 221.561 292.462 221.829C292.552 222.246 292.957 222.502 293.324 222.701C297.178 224.804 301.379 226.201 305.728 226.823C309.653 217.509 312.396 207.742 313.891 197.749C314.804 191.696 315.247 185.567 316.417 179.56C316.444 179.213 316.591 178.886 316.835 178.637C317.272 178.271 317.934 178.502 318.448 178.746C325.016 181.896 331.335 185.54 337.351 189.645C339.466 186.913 340.953 183.75 341.707 180.381C342.462 177.012 342.464 173.519 341.715 170.148C340.959 167.243 339.882 164.43 338.501 161.763C337.031 158.518 335.198 155.449 333.038 152.614C328.269 146.651 321.276 142.843 314.077 140.259C309.7 138.682 305.195 137.515 300.696 136.323C298.176 135.65 293.953 133.457 291.505 135.162C288.934 136.938 287.224 141.343 286.17 144.138C284.869 147.605 284.161 151.266 284.075 154.967C283.969 158.999 284.663 163.012 286.119 166.776Z" fill="#3F3D56"/>
<path d="M337.788 184.4C336.445 185.862 337.576 188.196 337.319 190.171C337.15 191.062 336.831 191.919 336.374 192.703L330.223 204.75C329.195 206.557 328.425 208.5 327.935 210.52C327.093 214.866 328.822 219.752 326.611 223.592C325.897 224.829 324.792 225.894 324.496 227.291C324.278 228.311 324.496 229.375 324.387 230.407C324.239 231.619 323.59 232.709 323.23 233.876C322.949 234.997 322.749 236.137 322.632 237.286C321.852 242.189 319.279 246.63 315.408 249.75C313.19 251.625 310.342 252.592 307.438 252.455C304.571 252.212 301.724 250.269 301.139 247.461C300.94 246.506 300.979 245.441 300.381 244.666C299.532 243.557 297.746 243.512 296.929 242.377L300.092 237.184C301.075 235.575 302.078 233.895 302.238 232.016C302.431 229.715 301.319 227.42 301.718 225.144C302.058 223.188 303.466 221.56 303.89 219.624C304.417 217.219 303.363 214.79 302.791 212.392C301.39 206.487 302.958 200.332 304.52 194.44C306.596 186.644 308.723 178.727 312.927 171.835C321.315 176.342 329.027 180.669 337.788 184.4Z" fill="#3F3D56"/>
<path d="M337.865 62.28C338.366 63.6392 338.096 65.1458 338 66.5883C337.775 69.7939 338.456 72.9995 338.302 76.25C338.148 79.5005 337.145 82.6035 336.451 85.7642C334.478 94.7848 334.953 104.184 333.167 113.243C330.962 124.462 325.325 134.912 324.213 146.299C323.86 149.915 323.905 153.787 321.919 156.839C310.117 151.657 298.961 145.12 288.677 137.362C290.939 120.622 293.176 103.799 292.874 86.9118C292.727 84.8761 292.87 82.8299 293.298 80.834C293.834 79.1575 294.604 77.5647 295.586 76.1025C298.073 72.0699 300.811 68.1975 303.543 64.3316C305.291 61.8569 307.181 59.2603 309.97 58.0999C312.76 56.9395 316.063 57.4588 319.104 58.0101C322.763 58.6769 326.418 59.3437 330.069 60.0104C332.35 60.4272 336.888 59.6322 337.865 62.28Z" fill="#3964FC"/>
<path d="M249.856 126.424C248.356 124.928 246.721 123.574 244.971 122.379C247.253 119.609 246.803 115.602 247.362 112.057C247.82 109.754 248.516 107.504 249.438 105.344C249.669 104.735 249.997 104.062 250.633 103.902C251.024 103.853 251.42 103.916 251.777 104.081C253.706 104.761 257.729 104.722 259.227 105.966C261.033 107.479 259.381 110.646 258.7 112.537C258.217 113.807 250.813 127.386 249.856 126.424Z" fill="#BE6F72"/>
<path d="M255.454 246.153C256.422 247.716 257.054 249.463 257.311 251.282C257.466 253.103 256.797 255.097 255.242 256.058C253.686 257.02 251.456 256.7 249.605 256.123C245.679 254.849 242.066 252.763 239.004 250.001C235.942 247.239 233.498 243.863 231.833 240.095C231.249 238.748 230.741 237.318 229.706 236.28C228.937 235.606 228.084 235.035 227.167 234.581C224.641 233.158 222.205 231.286 221.036 228.631C219.866 225.977 220.393 222.432 222.816 220.855C223.571 220.419 224.406 220.139 225.271 220.028C226.136 219.918 227.014 219.981 227.855 220.213C229.53 220.688 231.134 221.385 232.624 222.284C235.118 223.637 238.164 224.804 240.337 226.605C242.265 228.189 243.994 230.33 245.639 232.196C247.524 234.342 249.29 236.59 250.929 238.928C251.456 239.614 255.897 245.531 255.454 246.153Z" fill="#65617D"/>
<path d="M208.342 232.696C208.123 235.922 207.552 239.114 206.638 242.217C206.118 243.96 205.43 245.775 203.984 246.884C202.761 247.675 201.374 248.181 199.928 248.365C199.424 248.501 198.897 248.534 198.379 248.461C197.492 248.275 196.862 247.512 196.316 246.788C194.169 243.954 192.08 240.96 191.174 237.524C189.889 232.542 191.174 227.202 193.404 222.547C194.206 220.671 195.375 218.973 196.843 217.553C198.657 216.066 200.836 215.09 203.155 214.725C205.526 214.251 208.438 213.238 208.612 216.117C208.865 221.643 208.775 227.18 208.342 232.696Z" fill="#65617D"/>
<path d="M243.904 112.191C248.339 114.48 253.262 117.391 254.188 122.282C254.76 125.27 253.661 128.328 253.841 131.367C254.001 134.041 255.126 136.624 254.985 139.291C254.834 140.552 254.62 141.803 254.342 143.042C253.963 145.408 254.188 147.818 254.091 150.21C253.879 155.595 252.073 160.775 251.199 166.09C250.58 169.885 250.436 173.742 250.768 177.573C250.98 180.047 251.411 182.509 251.411 184.997C251.411 186.788 251.263 188.577 250.968 190.344C250.106 195.895 248.371 201.277 245.826 206.288C242.734 212.36 243.171 220.194 243.499 226.996C243.642 227.934 243.522 228.893 243.152 229.766C242.342 231.234 240.324 231.446 238.653 231.305C232.456 230.74 226.708 227.837 222.584 223.188C221.983 222.604 221.575 221.85 221.415 221.028C221.273 219.656 222.379 218.527 223.176 217.393C225.888 213.546 225.2 208.333 225.522 203.608C225.756 200.171 226.58 196.799 227.958 193.639C228.755 191.812 229.751 190.01 229.931 188.023C230.098 186.17 229.532 184.336 228.973 182.567L227.045 176.463C224.056 166.981 221.048 157.441 216.524 148.588C213.555 150.514 211.43 153.493 210.578 156.922C208.894 162.961 211.292 169.706 208.997 175.515C208.617 176.32 208.301 177.154 208.052 178.009C207.917 178.746 207.865 179.497 207.898 180.246C207.958 186.495 208.339 192.737 209.042 198.948C209.077 199.888 209.342 200.806 209.813 201.621C210.193 202.166 210.745 202.57 211.15 203.089C212.275 204.544 212.063 206.583 211.793 208.398L210.508 216.976C210.485 217.411 210.34 217.831 210.09 218.188C209.787 218.48 209.409 218.684 208.997 218.777C204.913 220.042 200.608 220.436 196.361 219.931C195.108 219.784 193.97 218.944 192.922 218.239C192.813 216.957 194.414 216.104 194.471 214.828C194.409 214.072 194.057 213.369 193.488 212.866C191.097 210.174 188.243 207.314 188.269 203.717C188.269 202.775 188.494 201.833 188.462 200.89C188.378 198.473 186.707 196.402 186.122 194.075C185.402 191.196 186.36 188.209 186.726 185.266C187.228 181.304 186.636 177.29 186.084 173.335L183.931 158.82C183.68 156.567 183.233 154.34 182.594 152.165C181.783 150.023 180.832 147.937 179.746 145.92C177.69 141.753 175.999 137.419 174.315 133.098C173.78 131.924 173.444 130.67 173.319 129.386C173.223 127.187 174.36 125.11 175.774 123.417C178.423 120.272 182.037 118.086 186.058 117.198C186.73 117.011 187.436 116.983 188.121 117.115C188.697 117.306 189.238 117.589 189.722 117.955C194.69 121.196 200.344 123.246 206.239 123.944C212.135 124.641 218.112 123.967 223.703 121.975C224.346 122.462 225.535 122.25 226.274 121.904C228.337 120.962 230.021 119.391 231.833 118.057C235.208 115.506 239.758 113.082 243.904 112.191Z" fill="#3F3D56"/>
<path d="M110.685 276.837C111.026 277.819 111.54 278.733 112.202 279.536C114.528 282.562 117.774 284.979 119.272 288.512C119.587 289.268 119.818 290.063 120.107 290.833C120.987 293.155 122.421 295.228 124.285 296.872C125.707 298.049 127.252 299.07 128.893 299.917C131.734 301.462 134.807 302.86 138.033 302.777C138.682 302.763 139.328 302.686 139.961 302.546C140.966 302.338 141.934 301.984 142.834 301.495C144.91 300.353 146.691 298.122 146.279 295.795C146.196 295.351 146.056 294.92 145.862 294.513C145.521 293.864 145.127 293.245 144.685 292.66C143.599 291.16 142.481 289.621 140.893 288.659C139.106 287.569 136.857 287.3 135.25 285.954C134.616 285.381 134.068 284.721 133.624 283.992C132.168 281.759 131.082 279.306 130.41 276.728C129.922 274.805 129.594 272.695 128.186 271.285C126.779 269.875 124.844 269.554 122.967 269.233C122.333 269.103 121.687 269.041 121.039 269.047C120.12 269.08 119.169 269.342 118.308 268.913C117.446 268.483 117.157 267.874 116.116 267.958C115.287 268.069 114.506 268.409 113.86 268.938C111.418 270.74 109.798 273.946 110.685 276.837Z" fill="#3F3D56"/>
<path d="M133.521 279.754C133.939 281.928 134.582 284.242 136.266 285.659C137.339 286.582 138.837 287.159 139.37 288.461C139.903 289.762 139.216 291.397 138.329 292.589C137.196 294.097 135.793 295.382 134.19 296.378C132.827 297.218 131.201 297.859 129.639 297.488C128.354 297.186 127.338 296.263 126.38 295.372C124.182 293.34 121.933 291.23 120.699 288.506C119.413 285.633 119.349 282.306 117.948 279.479C117.131 277.831 115.872 276.388 115.377 274.619C115.155 273.979 115.155 273.284 115.377 272.644C115.616 272.187 115.979 271.804 116.424 271.541C116.869 271.277 117.379 271.142 117.896 271.15C118.931 271.185 119.952 271.402 120.911 271.792C123.812 272.823 126.783 273.652 129.8 274.273C131.002 274.497 131.728 274.491 132.371 275.651C132.964 276.951 133.353 278.335 133.521 279.754Z" fill="#FBBEBE"/>
<path d="M140.977 298.129C140.5 298.856 140.163 299.664 139.981 300.514C139.829 301.174 139.805 301.857 139.91 302.527C140.914 302.319 141.882 301.965 142.783 301.475C144.859 300.334 146.639 298.103 146.228 295.776C146.145 295.332 146.004 294.901 145.81 294.494C145.503 294.425 145.184 294.438 144.884 294.531C144.584 294.625 144.314 294.795 144.1 295.026C142.904 295.891 141.85 296.938 140.977 298.129Z" fill="#FBBEBE"/>
<path d="M117.941 249.416C117.662 250.017 117.578 250.69 117.703 251.34C117.999 252.622 119.317 253.359 120.506 253.943L131.811 259.456C132.596 259.818 133.36 260.223 134.1 260.668C136.028 261.848 137.545 263.515 139.19 265.04C140.835 266.566 142.667 267.996 144.846 268.535C147.021 269.01 149.294 268.713 151.273 267.695C152.34 267.165 153.33 266.494 154.217 265.701C154.985 265.029 155.695 264.293 156.338 263.502C156.891 262.92 157.287 262.207 157.489 261.431C157.701 260.258 157.116 259.104 156.434 258.136C156.042 257.578 155.613 257.046 155.149 256.546C150.862 251.821 143.837 249.372 137.795 248.41C135.391 248.025 133.11 247.128 130.796 246.397C128.482 245.666 126.033 245.115 123.629 245.454C121.226 245.794 118.86 247.173 117.941 249.416Z" fill="#3F3D56"/>
<path opacity="0.1" d="M117.941 249.416C117.662 250.017 117.578 250.69 117.703 251.34C117.999 252.622 119.317 253.359 120.506 253.943L131.811 259.456C132.596 259.818 133.36 260.223 134.1 260.668C136.028 261.848 137.545 263.515 139.19 265.04C140.835 266.566 142.667 267.996 144.846 268.535C147.021 269.01 149.294 268.713 151.273 267.695C152.34 267.165 153.33 266.494 154.217 265.701C154.985 265.029 155.695 264.293 156.338 263.502C156.891 262.92 157.287 262.207 157.489 261.431C157.701 260.258 157.116 259.104 156.434 258.136C156.042 257.578 155.613 257.046 155.149 256.546C150.862 251.821 143.837 249.372 137.795 248.41C135.391 248.025 133.11 247.128 130.796 246.397C128.482 245.666 126.033 245.115 123.629 245.454C121.226 245.794 118.86 247.173 117.941 249.416Z" fill="black"/>
<path d="M146.234 252.936C147.104 253.91 147.819 255.01 148.355 256.199C148.838 256.978 149.01 257.91 148.837 258.809C148.585 259.414 148.18 259.944 147.661 260.348L146.536 261.386C146.197 261.738 145.802 262.033 145.367 262.258C144.751 262.488 144.094 262.586 143.438 262.547C141.928 262.547 140.302 262.547 139.074 261.643C137.397 260.437 137.095 257.943 137.86 256.026C138.624 254.109 140.225 252.661 141.838 251.365C143.149 250.308 145.315 251.968 146.234 252.936Z" fill="#FBBEBE"/>
<path d="M153.099 259.565C152.891 260.629 152.991 261.73 153.388 262.739C153.671 263.701 153.947 264.662 154.223 265.643C154.223 265.643 154.223 265.643 154.223 265.682C154.991 265.01 155.701 264.274 156.345 263.483C156.897 262.9 157.293 262.188 157.495 261.412C157.707 260.239 157.122 259.084 156.441 258.116C156.049 257.558 155.619 257.027 155.155 256.526C154.853 256.918 154.59 257.302 154.371 257.552C153.809 258.126 153.375 258.812 153.099 259.565Z" fill="#FBBEBE"/>
<path d="M123.565 211.783C122.235 217.36 122.8 223.195 123.507 228.888C124.047 233.222 124.651 237.71 123.366 241.883C122.89 243.441 122.138 245.025 122.428 246.634C122.974 249.666 126.637 250.833 129.671 251.404C130.546 251.626 131.456 251.68 132.351 251.564C133.25 251.32 134.083 250.882 134.794 250.282C139.106 247.155 142.381 242.812 144.197 237.812C145.347 234.466 145.714 230.907 146.067 227.388C146.659 221.464 147.256 215.469 146.389 209.584C146.132 207.853 145.746 206.141 145.585 204.397C145.383 201.364 145.551 198.318 146.087 195.325C147.193 187.912 148.869 180.594 151.1 173.437C144.979 174.248 138.758 173.127 133.309 170.232C134.363 170.796 133.155 179.791 133.026 181.054C132.636 184.819 131.955 188.549 130.989 192.209C129.196 199.05 125.191 204.987 123.565 211.783Z" fill="#3F3D56"/>
<path opacity="0.1" d="M123.565 211.783C122.235 217.36 122.8 223.195 123.507 228.888C124.047 233.222 124.651 237.71 123.366 241.883C122.89 243.441 122.138 245.025 122.428 246.634C122.974 249.666 126.637 250.833 129.671 251.404C130.546 251.626 131.456 251.68 132.351 251.564C133.25 251.32 134.083 250.882 134.794 250.282C139.106 247.155 142.381 242.812 144.197 237.812C145.347 234.466 145.714 230.907 146.067 227.388C146.659 221.464 147.256 215.469 146.389 209.584C146.132 207.853 145.746 206.141 145.585 204.397C145.383 201.364 145.551 198.318 146.087 195.325C147.193 187.912 148.869 180.594 151.1 173.437C144.979 174.248 138.758 173.127 133.309 170.232C134.363 170.796 133.155 179.791 133.026 181.054C132.636 184.819 131.955 188.549 130.989 192.209C129.196 199.05 125.191 204.987 123.565 211.783Z" fill="black"/>
<path d="M156.936 179.098C159.507 186.529 158.941 194.646 157.829 202.429C156.717 210.212 155.078 217.995 155.56 225.836C155.747 228.913 156.248 232.074 155.348 235.017C154.848 236.453 154.186 237.827 153.375 239.114L132.866 274.491C132.343 275.409 131.599 276.182 130.701 276.742C129.803 277.302 128.78 277.63 127.724 277.696C125.532 277.85 123.379 277.132 121.335 276.331C119.977 275.882 118.715 275.184 117.614 274.273C117.068 273.819 116.64 273.24 116.367 272.586C116.094 271.932 115.983 271.222 116.045 270.516C116.964 264.374 118.346 258.084 119.368 251.923C120.063 247.743 121.579 243.74 123.829 240.146C125.416 237.581 127.37 235.28 128.739 232.613C132.673 224.971 131.31 215.649 128.276 207.609C125.243 199.569 120.724 192.107 118.314 183.888C117.6 181.6 117.191 179.229 117.099 176.835C117.07 174.363 117.529 171.91 118.451 169.615C119.373 167.32 120.74 165.229 122.473 163.461C122.978 162.89 123.616 162.45 124.33 162.179C125.165 161.986 126.035 162.001 126.862 162.224C138.284 164.436 153.163 168.122 156.936 179.098Z" fill="#3F3D56"/>
<path d="M341.291 68.1655C341.663 70.9736 340.648 73.8138 339.202 76.2436C333.732 85.3475 321.122 89.3738 311.372 85.136C307.354 83.3857 303.954 80.5007 300.625 77.6541C299.507 76.6924 298.343 75.6858 297.778 74.3267C296.782 71.9225 297.983 69.0567 299.944 67.3385C301.904 65.6203 304.443 64.774 306.969 64.0111C315.305 61.4209 339.305 53.2531 341.291 68.1655Z" fill="#FBBEBE"/>
<path d="M336.412 59.2539C344.003 65.3446 355.052 71.1467 363.651 75.6602C366.576 77.1989 369.822 78.9299 370.876 82.0714C371.441 83.7511 371.255 85.5783 371.068 87.3478C370.708 90.7521 370.336 94.2078 369.018 97.3685C367.469 101.068 364.731 104.119 362.533 107.479C358.677 113.364 356.414 120.301 351.651 125.501C354.865 136.15 358.381 146.786 359.525 157.839C359.588 158.143 359.554 158.459 359.429 158.743C359.297 158.93 359.126 159.085 358.927 159.198L350.932 164.43C350.06 164.937 349.28 165.587 348.624 166.353C347.21 168.187 347.397 170.764 346.522 172.899C346.043 173.941 345.358 174.876 344.507 175.647C343.657 176.418 342.659 177.01 341.573 177.387C339.388 178.138 337.061 178.383 334.767 178.105C331.846 177.921 329.034 176.934 326.643 175.252C324.605 173.713 323.153 171.552 321.752 169.424C320.713 167.972 319.851 166.403 319.181 164.75C318.326 162.391 318.274 159.82 318.307 157.307C318.328 152.524 318.786 147.754 319.676 143.055C320.048 141.189 320.511 139.349 320.807 137.471C321.398 133.688 321.282 129.828 321.719 126.027C322.317 121.75 323.273 117.532 324.58 113.416C325.294 110.866 325.852 108.276 326.251 105.658C327.003 101.055 328.5 96.612 329.998 92.1947L332.569 84.623C333.115 82.9882 333.668 81.3597 334.317 79.7634C335.525 76.7822 337.081 73.8779 337.492 70.6979C337.948 67.2295 334.195 63.1135 335.461 59.8566C335.564 59.4976 336.123 59.0231 336.412 59.2539Z" fill="#3F3D56"/>
<path d="M368.819 80.2827C370.599 81.0841 371.583 82.9946 372.219 84.841C373.653 89.0023 373.998 93.46 373.222 97.7916C372.97 98.8806 372.799 99.9862 372.707 101.1C372.721 102.391 372.848 103.678 373.087 104.947C373.729 109.851 373.087 114.833 373.299 119.782C373.517 125.347 374.732 131.226 372.392 136.284C370.837 139.644 367.893 142.144 364.988 144.414C354.172 152.822 342.239 159.692 329.529 164.827C331.72 162.199 331.759 158.243 330.3 155.146C328.841 152.05 326.129 149.722 323.23 147.914C326.919 147.096 330.493 145.824 333.867 144.125C340.603 140.715 346.375 135.72 352.076 130.777C352.917 130.174 353.571 129.348 353.965 128.392C354.544 126.469 352.95 124.642 351.844 122.956C348.496 117.827 349.273 111.127 350.675 105.19C352.236 98.6828 354.531 92.2011 358.715 86.9695C361.325 83.6998 364.731 81.1866 368.819 80.2827Z" fill="#3F3D56"/>
<path d="M328.963 164.987C328.385 165.927 327.635 166.749 326.752 167.411C324.824 168.693 322.176 168.206 320.023 167.295C318.022 166.449 316.176 165.277 314.559 163.827C313.865 163.09 313.044 162.482 312.136 162.032C310.452 161.391 308.1 161.872 307.155 160.326C307.045 160.164 306.991 159.971 307.001 159.775C307.059 159.217 307.791 159.063 308.357 159.031C310.981 158.858 313.528 158.074 315.793 156.743C315.07 156.221 314.451 155.569 313.968 154.819C313.768 154.558 313.66 154.238 313.66 153.909C313.738 153.551 313.935 153.231 314.219 152.998C316.285 151.054 318.884 149.766 321.686 149.3C324.489 148.835 327.366 149.211 329.953 150.383C330.458 150.586 330.901 150.918 331.238 151.344C331.476 151.738 331.636 152.173 331.708 152.627C332.125 154.422 333.636 157.114 333.089 158.929C332.485 161.012 330.204 163.224 328.963 164.987Z" fill="#FBBEBE"/>
<path d="M285.135 156.903C293.131 147.69 296.704 135.566 300.021 123.84L302.393 115.506L308.113 95.4324C308.955 92.4704 309.797 89.5084 310.356 86.4887C311.314 81.2764 311.404 75.9487 311.346 70.6531C311.264 68.4578 310.76 66.2986 309.861 64.2932C309.302 62.9083 309.032 61.4338 308.576 60.0041C307.995 58.0109 307.127 56.1125 305.998 54.3686C305.684 53.8502 305.292 53.3831 304.835 52.9838C304.044 52.4476 303.148 52.0849 302.206 51.9196C300.163 51.3135 298.045 50.9921 295.914 50.9643C293.78 51.0412 291.582 51.7785 290.206 53.3941C289.159 54.6315 288.677 56.2343 287.847 57.6255C287.462 58.1952 287.112 58.7883 286.8 59.4014C286.446 60.3329 286.251 61.3166 286.221 62.3121C285.887 66.3512 285.602 70.3945 285.367 74.4421C285.257 76.2821 285.161 78.1349 285.232 79.9814C285.289 81.4175 285.444 82.8472 285.598 84.2769L287.121 98.2789C287.475 101.568 287.224 104.645 287.52 107.941C288.24 115.897 286.523 123.853 284.762 131.662C283.92 135.374 283.053 139.137 281.253 142.497C279.665 145.472 277.287 148.491 277.917 151.806C278.136 152.96 278.721 154.037 278.811 155.204C278.767 155.927 278.838 156.652 279.023 157.352C279.285 157.828 279.692 158.209 280.185 158.439C280.679 158.67 281.233 158.738 281.767 158.634C283.04 158.411 284.215 157.807 285.135 156.903Z" fill="#3F3D56"/>
<path d="M286.112 120.032C286.356 121.872 286.17 123.738 286.26 125.591C286.462 127.977 286.892 130.338 287.545 132.643C288.188 135.207 289.011 138.08 291.28 139.503C291.849 139.798 292.393 140.139 292.906 140.522C293.159 140.721 293.344 140.992 293.439 141.299C293.533 141.606 293.531 141.935 293.433 142.24L291.665 141.946C291.866 142.098 292.032 142.292 292.152 142.513C292.273 142.735 292.345 142.979 292.364 143.23C292.383 143.481 292.349 143.733 292.264 143.97C292.179 144.207 292.045 144.424 291.87 144.605C291.695 144.787 291.484 144.93 291.25 145.024C291.016 145.119 290.764 145.163 290.512 145.154C290.26 145.145 290.012 145.083 289.786 144.972C289.559 144.861 289.359 144.704 289.197 144.51C289.264 145.088 289.21 145.673 289.037 146.228C288.947 146.501 288.776 146.739 288.546 146.911C288.316 147.083 288.038 147.18 287.751 147.19C287.418 147.138 287.102 147.006 286.832 146.805L282.217 143.952C280.834 143.21 279.684 142.1 278.894 140.747L276.876 137.714C276.431 137.13 276.078 136.481 275.828 135.791C275.076 133.226 277.178 130.38 276.086 127.963C275.757 127.367 275.372 126.804 274.935 126.283C272.602 123.077 272.75 118.718 273.007 114.743C273.09 113.403 273.335 111.813 274.549 111.229C275.513 110.761 276.67 111.178 277.564 111.762C278.457 112.345 279.248 113.114 280.263 113.461C280.906 113.679 281.613 113.704 282.256 113.935C283.156 114.249 283.991 115.474 284.595 116.198C285.45 117.31 285.975 118.638 286.112 120.032Z" fill="#FBBEBE"/>
<path d="M229.79 62.4146C229.244 63.6647 228.477 64.8068 227.527 65.7869C227.05 66.2767 226.464 66.6478 225.816 66.8705C225.169 67.0932 224.478 67.1613 223.799 67.0692C222.372 66.7871 221.325 65.6138 220.38 64.5047C217.912 61.6132 215.412 58.6833 213.753 55.2597C211.221 50.0474 210.816 44.0979 210.45 38.3214C210.36 36.834 210.283 35.2568 210.996 33.9553C211.902 32.2949 213.824 31.5127 215.598 30.8523L225.4 27.198C226 26.9142 226.665 26.7926 227.328 26.8453C228.864 27.1018 229.43 28.9482 229.847 30.442C230.595 33.1264 231.837 35.6484 233.511 37.879C235.709 40.8025 240.639 44.739 237.824 48.3869C234.424 52.7594 232.264 57.478 229.79 62.4146Z" fill="#BE6F72"/>
<path d="M242.329 45.7327C246.623 49.7589 248.075 56.0291 247.87 61.8953C247.664 67.7616 246.031 73.4804 245.099 79.2761C244.167 85.0718 243.981 91.2586 246.507 96.5863C247.375 98.4135 248.557 100.106 249.161 102.036C249.668 103.943 249.84 105.923 249.669 107.889C249.659 109.962 249.262 112.014 248.499 113.941C247.13 116.967 244.315 119.07 241.622 120.994C236.127 124.956 230.522 128.982 224.069 131.053C219.699 132.457 215.071 132.919 210.495 133.169C207.396 133.415 204.28 133.327 201.201 132.906C195.814 132.01 190.864 129.396 187.093 125.456C186.436 124.821 185.894 124.077 185.492 123.257C185.1 122.19 184.91 121.059 184.933 119.923C184.779 115.713 184.805 111.503 185.01 107.293C185.128 103.281 185.682 99.2933 186.662 95.4002C187.89 90.9124 190.017 86.7067 191.631 82.3342C197.248 67.1333 196.682 49.8359 204.485 35.6415C206.169 32.5769 208.984 29.3521 212.455 29.8393C213.123 29.8794 213.751 30.1676 214.216 30.6472C214.615 31.2307 214.838 31.9159 214.859 32.6218C215.688 39.5203 216.864 46.5982 220.123 52.8235C221.408 55.2661 223.336 58.9846 226.299 59.6386C229.262 60.2925 231.011 57.4716 232.598 55.4713C235.388 51.8032 238.661 48.5274 242.329 45.7327Z" fill="#E3E8F4"/>
<path d="M262.877 35.353C263.753 35.8251 264.571 36.3975 265.313 37.0584C267.242 38.8792 267.949 41.668 267.936 44.3095C267.923 46.9509 267.293 49.5538 266.907 52.1696C265.872 59.2219 266.753 66.4409 267.164 73.583C267.29 74.7361 267.22 75.902 266.959 77.0322C266.644 78.1093 265.995 79.0581 265.577 80.1032C264.349 83.1934 265.275 86.7195 264.555 89.9636C263.784 93.4192 261.142 96.5607 261.637 100.068C261.836 101.44 262.498 102.703 262.781 104.062C263.064 105.421 262.819 107.062 261.643 107.793C260.467 108.524 258.757 107.992 257.356 108.396C256.787 108.605 256.233 108.854 255.698 109.139C253.532 110.114 250.948 109.781 248.814 108.716C246.723 107.578 244.843 106.09 243.255 104.318C240.806 101.818 238.434 99.0803 237.361 95.7529C235.793 90.9317 237.187 85.6809 238.891 80.8982C240.594 76.1154 242.625 71.2814 242.323 66.1973C242.156 63.3507 241.256 60.6131 240.716 57.8178C240.048 53.9449 239.808 50.0104 240.003 46.0854C240.086 43.2131 240.279 40.2512 241.519 37.6546C242.404 35.9226 243.71 34.4397 245.318 33.342C246.926 32.2442 248.785 31.5668 250.723 31.3717C255.222 30.8844 259.079 33.1732 262.877 35.353Z" fill="#3F3D56"/>
<path opacity="0.1" d="M250.723 97.3236C250.768 99.3751 251.137 101.407 251.816 103.344C252.966 100.728 253.101 97.7916 253.256 94.945C253.898 85.1423 256.077 75.8974 258.398 66.4024C256.707 67.6846 255.756 70.8902 254.946 72.8136C251.732 80.5697 250.29 88.9422 250.723 97.3236Z" fill="black"/>
<path d="M207.397 29.0187C204.299 29.8329 201.612 31.6666 198.611 32.8654C195.493 34.1477 192.138 34.6926 188.867 35.4812C181.295 37.3148 173.692 40.7192 169.122 47.0214C165.754 51.6567 164.359 57.3819 162.052 62.6326C160.124 67.0371 157.553 71.1659 156.132 75.7499C154.275 81.7316 154.487 88.1428 154.943 94.3873C155.316 99.5162 155.882 104.703 158.215 109.248C159.436 111.633 161.12 113.768 162.341 116.153C163.807 119.019 164.578 122.18 165.799 125.129C167.02 128.078 168.814 131.027 171.648 132.566L176.34 129.828C183.339 125.744 190.339 121.654 197.119 117.218C203.033 113.371 208.997 108.954 212.147 102.632C214.936 97.0479 215.212 90.5213 214.493 84.3217C213.773 78.1221 212.127 72.0571 211.279 65.8767C210.198 58.0979 210.361 50.1974 211.761 42.4694C212.404 38.9817 214.113 35.3786 214.467 31.9038C214.859 28.1917 210.077 28.3135 207.397 29.0187Z" fill="#3F3D56"/>
<path d="M178.39 130.938C181.983 134.329 187.151 135.316 191.643 137.349C194.981 138.895 197.987 141.072 200.494 143.76C201.876 145.273 203.213 147.331 202.518 149.254C201.933 150.908 200.14 151.755 198.495 152.37C196.451 153.139 194.169 153.819 192.132 153.043C190.936 152.588 189.972 151.678 188.873 151.03C186.18 149.434 182.787 149.427 180.023 147.953C176.128 145.876 174.187 141.304 170.523 138.836C168.518 137.49 165.748 136.387 165.542 133.983C165.533 133.113 165.717 132.253 166.082 131.463C166.821 129.501 168.081 122.763 170.896 122.943C173.962 123.142 176.109 129.316 178.39 130.938Z" fill="#FBBEBE"/>
<path d="M159.565 100.888C160.741 105.107 163.472 108.704 166.307 112.05C168.344 114.454 170.581 117.07 170.652 120.218C170.716 123.193 168.724 125.93 166.153 127.45C163.582 128.969 160.554 129.457 157.579 129.649C155.198 129.878 152.796 129.711 150.47 129.155C144.595 127.565 140.52 122.456 135.899 118.506C133.155 116.166 130.07 114.127 127.968 111.197C125.866 108.268 124.979 104.062 127.049 101.106C127.796 100.148 128.659 99.2867 129.62 98.5418C133.13 95.5061 136.123 91.9227 138.483 87.9313C139.434 86.322 140.347 84.5782 141.947 83.6101C144.242 82.2189 147.186 82.8536 149.782 83.5332C152.604 84.2705 160.554 85.713 161.107 89.3033C161.332 90.7778 159.5 93.073 159.224 94.6566C158.872 96.7333 158.989 98.8621 159.565 100.888Z" fill="#FBBEBE"/>
<path d="M174.097 108.928C174.939 110.45 175.632 112.05 176.166 113.704C178.127 120.5 174.624 127.501 172.953 134.374C170.819 143.176 171.725 152.383 171.622 161.442C171.577 165.584 171.134 170.142 168.145 173.014C167.374 173.745 166.448 174.361 165.928 175.284C165.606 175.96 165.366 176.673 165.214 177.406C164.758 178.99 163.949 180.451 162.847 181.679C161.745 182.907 160.379 183.871 158.851 184.499C157.323 185.126 155.673 185.401 154.024 185.303C152.374 185.205 150.768 184.737 149.326 183.932C146.89 182.58 144.775 180.233 141.986 180.163C141.109 180.205 140.235 180.301 139.37 180.451C136.593 180.727 133.875 179.701 131.272 178.695C130.65 178.499 130.071 178.19 129.562 177.784C129.093 177.355 128.791 176.778 128.36 176.316C126.772 174.611 124.06 174.905 121.772 174.431C120.065 174.05 118.501 173.192 117.264 171.958C116.027 170.725 115.168 169.165 114.786 167.462C114.323 165.257 114.715 162.974 115.1 160.75L116.823 150.838C117.546 147.202 118.046 143.526 118.321 139.83C118.532 135.653 118.173 131.466 117.254 127.386C116.495 124.052 115.364 120.789 114.953 117.391C114.236 111.301 115.842 105.165 119.452 100.202C120.345 98.9777 121.515 97.7532 123.032 97.6378C124.259 97.5288 125.41 98.1827 126.477 98.811C135.745 104.282 145.077 109.64 154.474 114.884C157.045 116.326 159.674 117.775 162.541 118.487C163.402 118.705 164.636 118.615 164.758 117.743C164.773 117.411 164.686 117.082 164.507 116.801C162.9 113.717 160.574 111.069 158.723 108.133C156.872 105.197 155.445 101.722 155.991 98.3109C156.737 93.5923 161.133 90.47 164.726 94.1693C168.756 98.3686 171.455 103.767 174.097 108.928Z" fill="#F86D70"/>
<path d="M145.315 168.764C152.854 169.244 160.561 169.757 167.541 172.642C169.784 173.566 172.162 174.758 174.521 174.187C175.695 173.831 176.787 173.247 177.735 172.469C180.641 170.344 183.386 168.008 185.949 165.481C185.692 164.077 183.783 163.885 182.356 163.897C178.877 163.918 175.445 163.095 172.355 161.5C171.339 160.89 170.262 160.39 169.141 160.006C166.088 159.166 162.978 160.769 159.912 161.551C155.374 162.705 150.592 162.032 145.958 161.352L133.45 159.512C132.287 159.346 130.976 159.211 130.05 159.929C129.432 160.512 129.008 161.271 128.836 162.102C127.306 167.231 128.039 167.661 133.129 167.981L145.315 168.764Z" fill="#FBBEBE"/>
<path opacity="0.1" d="M316.102 79.7505C327.461 79.7505 336.669 70.5653 336.669 59.2347C336.669 47.9041 327.461 38.7189 316.102 38.7189C304.743 38.7189 295.535 47.9041 295.535 59.2347C295.535 70.5653 304.743 79.7505 316.102 79.7505Z" fill="black"/>
<path d="M315.954 78.8593C327.313 78.8593 336.522 69.6741 336.522 58.3435C336.522 47.0129 327.313 37.8277 315.954 37.8277C304.595 37.8277 295.387 47.0129 295.387 58.3435C295.387 69.6741 304.595 78.8593 315.954 78.8593Z" fill="#FBBEBE"/>
<path d="M333.314 32.2949C334.96 33.3078 336.682 34.3978 337.582 36.1031C338.066 37.2609 338.434 38.4635 338.681 39.6934C339.806 43.5401 342.801 46.8804 342.981 50.8873C343.18 55.279 339.877 59.0937 336.136 61.3953C335.282 62.023 334.253 62.3683 333.192 62.3826C332.106 62.3121 331.168 61.6325 330.171 61.1965C325.949 59.3245 321.225 61.6966 316.751 62.7865C312.102 63.9064 307.225 63.6207 302.74 61.9659C300.329 61.0683 297.99 59.722 296.479 57.6383C294.969 55.5547 294.429 52.6376 295.715 50.4001C296.357 49.2589 297.424 48.2267 297.353 46.9252C297.315 46.1431 296.852 45.4378 296.711 44.6685C296.505 43.444 297.148 42.2515 297.803 41.2064C300.778 36.4317 304.537 32.1902 308.923 28.6597C310.208 27.6083 311.693 26.5825 313.377 26.5056C316.758 26.3581 319.663 28.8713 323.14 28.8841C327.086 28.8969 329.921 30.2048 333.314 32.2949Z" fill="#3F3D56"/>
<path opacity="0.1" d="M240.24 54.0096C251.954 54.0096 261.451 44.5373 261.451 32.8526C261.451 21.168 251.954 11.6957 240.24 11.6957C228.526 11.6957 219.03 21.168 219.03 32.8526C219.03 44.5373 228.526 54.0096 240.24 54.0096Z" fill="black"/>
<path d="M240.613 53.4903C252.327 53.4903 261.823 44.018 261.823 32.3333C261.823 20.6487 252.327 11.1764 240.613 11.1764C228.899 11.1764 219.403 20.6487 219.403 32.3333C219.403 44.018 228.899 53.4903 240.613 53.4903Z" fill="#BE6F72"/>
<path d="M251.945 44.2838C254.94 45.9571 258.635 45.784 261.978 45.0211C263.873 44.6657 265.67 43.9093 267.248 42.8028C268.032 42.2443 268.678 41.5154 269.138 40.6713C269.597 39.8273 269.859 38.89 269.902 37.9303C269.902 35.7825 268.488 33.8463 268.315 31.6986C268.103 28.9931 269.87 26.4927 270.057 23.7744C270.243 21.056 268.9 18.6069 267.589 16.2733C265.333 12.2663 262.987 8.20798 259.554 5.14342C256.122 2.07887 251.366 0.123457 246.867 1.15566C244.656 1.66214 242.606 2.84822 240.35 3.07902C238.344 3.26494 236.365 2.66229 234.366 2.40584C232.367 2.1494 230.124 2.30968 228.69 3.68808C227.906 4.45743 227.405 5.54092 226.486 6.1051C225.863 6.39186 225.218 6.62979 224.558 6.81675C222.237 7.74637 221.177 10.3557 220.354 12.7022L214.84 28.4674C216.684 29.7496 218.908 30.333 220.926 31.3203C222.944 32.3077 224.905 33.8848 225.316 36.0903C225.631 37.7636 225.033 39.6869 226.01 41.0846C226.904 42.3668 228.723 42.5848 230.265 42.3668C231.808 42.1488 233.357 41.6167 234.899 41.8539C238.756 42.4373 240.189 44.7967 243.756 41.8539C247.323 38.9112 248.628 42.4245 251.945 44.2838Z" fill="#3F3D56"/>
<path opacity="0.1" d="M150.476 99.2791C161.126 99.2791 169.758 90.6679 169.758 80.0455C169.758 69.4231 161.126 60.8119 150.476 60.8119C139.827 60.8119 131.194 69.4231 131.194 80.0455C131.194 90.6679 139.827 99.2791 150.476 99.2791Z" fill="black"/>
<path d="M151.222 98.234C161.871 98.234 170.504 89.6228 170.504 79.0004C170.504 68.378 161.871 59.7668 151.222 59.7668C140.573 59.7668 131.94 68.378 131.94 79.0004C131.94 89.6228 140.573 98.234 151.222 98.234Z" fill="#FBBEBE"/>
<path d="M165.986 60.1964C161.395 56.6833 156.237 53.9774 150.733 52.1952C147.211 51.054 143.381 50.2719 139.807 51.3233C134.961 52.7017 128.476 54.7597 125.474 58.8052C123.996 60.7926 122.498 62.8378 121.785 65.2164C120.358 69.9991 122.389 75.096 122.254 80.0839C122.093 85.8989 119.002 91.2074 115.627 95.9516C112.253 100.696 111.572 107.492 109.579 112.967C108.898 114.845 108.68 117.455 110.434 118.397C111.977 119.25 113.841 118.186 115.268 117.16L123.848 110.973C124.515 110.426 125.284 110.017 126.11 109.768C127.878 109.357 129.607 110.46 131.085 111.505L149.082 124.199C149.437 123.475 149.629 122.681 149.644 121.875C149.658 121.068 149.495 120.269 149.165 119.532C150.856 120.051 152.083 121.455 153.568 122.456C155.053 123.456 157.309 123.783 158.388 122.385C159.468 120.987 158.652 119.109 157.45 117.981C156.248 116.852 154.667 116.179 153.491 115.019C151.158 112.704 150.92 109.05 149.448 106.126C148.394 104.075 146.691 102.356 145.945 100.17C144.73 96.5992 146.318 92.7525 147.873 89.3161C149.731 85.2385 151.833 80.8853 155.785 78.7568C157.116 78.0388 158.588 77.6156 159.95 76.9617C163.344 75.3397 167.579 71.5122 169.238 68.0822C170.69 65.0369 168.454 62.0941 165.986 60.1964Z" fill="#3F3D56"/>
<path opacity="0.1" d="M136.799 123.757C138.644 124.93 140.726 125.68 142.539 126.905C144.351 128.129 145.939 129.989 145.99 132.168C146.042 134.252 144.705 136.079 143.419 137.733L127.762 158.23L135.745 160.339C134.46 162.109 134.132 164.365 133.463 166.443C132.795 168.52 131.535 170.68 129.401 171.225C127.473 171.719 125.455 170.706 123.462 170.822C121.991 170.911 120.602 171.604 119.13 171.661C117.234 171.732 115.473 170.738 113.892 169.687C110.37 167.334 106.873 163.962 106.899 159.73C106.983 158.299 107.27 156.887 107.754 155.537C110.061 148.03 112.452 140.343 117.234 134.098C119.805 130.764 122.948 127.95 126.091 125.155C126.806 124.437 127.647 123.857 128.572 123.443C130.629 122.673 132.872 123.622 134.999 124.238C137.127 124.853 139.807 124.943 141.035 123.129" fill="black"/>
<path d="M136.124 122.494C137.969 123.661 140.051 124.417 141.864 125.642C143.676 126.866 145.264 128.726 145.322 130.899C145.38 133.072 144.036 134.816 142.751 136.47L127.087 156.948L135.07 159.057C133.785 160.827 133.457 163.077 132.788 165.16C132.12 167.244 130.86 169.398 128.726 169.943C126.798 170.437 124.78 169.424 122.788 169.539C121.316 169.623 119.927 170.321 118.456 170.373C116.559 170.443 114.798 169.45 113.217 168.398C109.695 166.052 106.199 162.673 106.231 158.448C106.308 157.017 106.594 155.604 107.079 154.255C109.387 146.741 111.778 139.054 116.559 132.816C119.13 129.476 122.28 126.661 125.416 123.84C126.134 123.127 126.975 122.547 127.897 122.129C129.954 121.359 132.197 122.308 134.325 122.93C136.452 123.552 139.132 123.635 140.36 121.821" fill="#F86D70"/>
<g opacity="0.1">
<path opacity="0.1" d="M297.148 53.3876C298.658 55.4713 301.004 56.8241 303.408 57.7152C307.892 59.3765 312.772 59.6623 317.42 58.5358C321.919 57.4459 326.617 55.0738 330.84 56.9459C331.836 57.3882 332.768 58.0614 333.854 58.1384C334.917 58.1192 335.948 57.772 336.804 57.1446C339.407 55.5418 341.798 53.2081 342.942 50.4577C342.942 50.5988 342.942 50.7398 342.981 50.8873C343.18 55.279 339.877 59.0936 336.136 61.3952C335.282 62.0229 334.253 62.3682 333.192 62.3826C332.106 62.312 331.168 61.6324 330.171 61.1965C325.949 59.3244 321.225 61.6966 316.751 62.7865C312.102 63.9063 307.225 63.6206 302.74 61.9658C300.329 61.0683 297.99 59.7219 296.479 57.6383C294.969 55.5546 294.429 52.6375 295.715 50.4L295.811 50.2397C296.019 51.3744 296.475 52.4492 297.148 53.3876Z" fill="black"/>
<path opacity="0.1" d="M298.003 42.6746C298.054 43.6619 297.456 44.4889 296.884 45.3288C296.805 45.1206 296.742 44.9061 296.698 44.6877C296.505 43.5401 297.058 42.4245 297.668 41.418C297.844 41.8173 297.956 42.2411 298.003 42.6746Z" fill="black"/>
</g>
<path opacity="0.1" d="M221.858 10.6122L216.344 26.3709C218.188 27.6532 220.412 28.243 222.43 29.2239C224.448 30.2048 226.409 31.7884 226.82 33.9939C227.135 35.6672 226.537 37.5905 227.514 38.9946C228.408 40.2768 230.227 40.4884 231.769 40.2768C233.312 40.0653 234.861 39.5267 236.403 39.7639C240.26 40.3474 241.693 42.7067 245.26 39.796C248.827 36.8853 250.119 40.3409 253.436 42.2002C256.431 43.8799 260.127 43.7068 263.469 42.9375C265.364 42.5841 267.161 41.8299 268.739 40.7256C268.964 40.5426 269.178 40.3478 269.382 40.1422C268.89 41.1929 268.149 42.1083 267.222 42.8093C265.645 43.9158 263.847 44.6722 261.952 45.0275C258.61 45.7905 254.882 45.9636 251.919 44.2902C248.602 42.431 247.24 39.0395 243.743 41.886C240.247 44.7326 238.73 42.4374 234.886 41.886C233.344 41.6488 231.801 42.181 230.252 42.3989C228.703 42.6169 226.891 42.3989 225.997 41.1167C225.02 39.7191 225.618 37.7957 225.303 36.1224C224.892 33.9169 222.932 32.3334 220.913 31.3524C218.895 30.3715 216.671 29.7753 214.827 28.4995L220.367 12.6959C221.01 10.9584 221.717 9.07995 223.002 7.84259C222.557 8.73818 222.175 9.66363 221.858 10.6122Z" fill="black"/>
<g opacity="0.1">
<path opacity="0.1" d="M150.599 120.224C152.019 120.866 153.812 120.962 154.712 119.763C155.721 118.481 154.976 116.493 153.774 115.358C152.572 114.224 150.991 113.557 149.814 112.396C147.481 110.088 147.243 106.434 145.772 103.51C144.718 101.452 143.014 99.7343 142.269 97.548C141.054 93.9834 142.641 90.1303 144.197 86.7003C146.054 82.6228 148.156 78.2696 152.109 76.1411C153.439 75.423 154.911 74.9999 156.274 74.3459C159.667 72.7239 163.903 68.89 165.561 65.46C166.956 62.5686 164.989 59.7604 162.65 57.8563C163.787 58.5936 164.899 59.3694 165.979 60.1964C168.454 62.1198 170.684 65.0369 169.193 68.0694C167.535 71.4993 163.299 75.3268 159.905 76.9489C158.543 77.59 157.071 78.026 155.74 78.744C151.788 80.8725 149.686 85.2257 147.828 89.3033C146.266 92.7397 144.679 96.5864 145.9 100.157C146.646 102.344 148.349 104.062 149.403 106.113C150.894 109.037 151.113 112.691 153.446 115.006C154.622 116.166 156.203 116.833 157.405 117.968C158.607 119.102 159.333 121.064 158.343 122.372C157.354 123.68 155.001 123.411 153.523 122.443C152.527 121.77 151.62 120.885 150.599 120.224Z" fill="black"/>
<path opacity="0.1" d="M111.617 114.538L120.197 108.357C120.864 107.809 121.633 107.397 122.46 107.146C124.227 106.742 125.956 107.844 127.434 108.889L145.431 121.584C145.787 120.858 145.979 120.064 145.993 119.256C146.008 118.448 145.844 117.648 145.514 116.91C147.166 117.423 148.368 118.795 149.801 119.756C149.593 119.662 149.378 119.583 149.159 119.519C149.488 120.256 149.652 121.056 149.637 121.862C149.623 122.669 149.431 123.462 149.075 124.187L131.079 111.492C129.6 110.447 127.865 109.345 126.104 109.755C125.277 110.004 124.508 110.413 123.842 110.96L115.261 117.147C113.834 118.173 111.97 119.237 110.428 118.384C110.006 118.126 109.66 117.761 109.424 117.327C109.188 116.892 109.071 116.404 109.084 115.91C109.995 115.586 110.849 115.123 111.617 114.538Z" fill="black"/>
</g>
<path d="M325.987 156.409C325.987 156.409 289.159 159.352 281.832 154.146L315.524 148.966L325.987 156.409Z" fill="#E3E8F4"/>
<path opacity="0.1" d="M325.987 156.409C325.987 156.409 289.159 159.352 281.832 154.146L315.524 148.966L325.987 156.409Z" fill="black"/>
<path d="M325.987 156.409L315.671 149.895C315.671 149.895 284.897 158.717 276.465 155.076L285.045 143.068L315.536 148.998L325.987 156.409Z" fill="#E3E8F4"/>
<path d="M280.225 70.0376C279.087 71.4709 278.175 73.0685 277.519 74.7755C277.223 75.6794 277.075 76.6219 276.825 77.5387C276.119 79.8218 275.033 81.9698 273.611 83.8922C270.442 88.489 266.483 92.9255 265.686 98.4456C265.301 101.17 265.725 103.94 266.265 106.639C266.557 108.419 267.066 110.156 267.781 111.813C268.598 113.57 269.812 115.115 270.744 116.814C271.596 118.481 272.314 120.213 272.891 121.994C273.99 120.898 274.639 119.429 275.52 118.147C276.4 116.865 277.712 115.711 279.261 115.692C281.047 115.692 282.519 117.166 284.287 117.397C284.563 117.453 284.849 117.426 285.109 117.32C285.752 117.019 285.804 116.153 285.752 115.461C285.244 110.62 282.468 105.844 283.779 101.151C284.987 96.8107 289.306 94.0988 291.575 90.2072C293.221 87.3799 293.709 84.046 294.146 80.802C294.693 76.9232 295.245 73.0124 295.001 69.108C294.879 67.1397 293.311 54.702 290.444 56.0035C289.448 56.4523 288.58 58.3564 287.957 59.2091L285.386 62.8442L280.225 70.0376Z" fill="#3F3D56"/>
<path d="M203.296 150.274L182.619 167.065L156.017 162.32L173.93 148.293L203.296 150.274Z" fill="#E3E8F4"/>
<path opacity="0.1" d="M204.042 149.229L183.365 166.02L156.762 161.275L174.675 147.248L204.042 149.229Z" fill="black"/>
<path d="M203.894 148.338L183.217 165.122L156.608 160.384L174.527 146.35L203.894 148.338Z" fill="#E3E8F4"/>
<path opacity="0.1" d="M204.492 146.395L183.808 163.186L157.206 158.442L175.125 144.414L204.492 146.395Z" fill="black"/>
<path d="M204.337 145.504L183.661 162.295L157.058 157.55L174.971 143.523L204.337 145.504Z" fill="#E3E8F4"/>
<path d="M476.322 374.928C476.81 374.692 477.348 374.578 477.89 374.596C478.432 374.614 478.961 374.763 479.432 375.032C479.902 375.301 480.3 375.68 480.591 376.137C480.881 376.593 481.055 377.114 481.098 377.653L482.248 392.534L475.422 393.764L471.823 383.006L476.322 374.928Z" fill="#3F3D56"/>
<path d="M237.515 275.189L133.052 328.069C131.854 328.679 130.849 329.608 130.149 330.753C129.449 331.899 129.081 333.215 129.086 334.557C129.091 335.898 129.47 337.212 130.179 338.352C130.888 339.492 131.901 340.413 133.103 341.013L358.092 453.639C362.094 455.638 366.529 456.626 371.004 456.514C375.479 456.402 379.858 455.194 383.756 452.998L478.52 399.695C479.67 399.041 480.619 398.086 481.264 396.933C481.91 395.78 482.227 394.474 482.183 393.154C482.139 391.834 481.734 390.552 481.013 389.445C480.291 388.338 479.281 387.449 478.09 386.872L243.936 275.119C242.932 274.639 241.831 274.396 240.717 274.409C239.604 274.421 238.509 274.688 237.515 275.189Z" fill="#3F3D56"/>
<path d="M132.351 318.869L129.08 321.292L128.823 332.897C128.802 333.801 129.037 334.694 129.501 335.471C129.964 336.249 130.638 336.881 131.445 337.295L360.277 454.427C360.796 454.694 361.376 454.824 361.96 454.803C362.544 454.783 363.112 454.612 363.611 454.309C364.11 454.006 364.523 453.58 364.809 453.072C365.095 452.563 365.245 451.99 365.245 451.407V434.552L132.351 318.869Z" fill="#3F3D56"/>
<path d="M237.515 261.739L133.052 314.612C131.853 315.22 130.847 316.147 130.145 317.292C129.443 318.436 129.073 319.752 129.076 321.094C129.08 322.435 129.456 323.75 130.164 324.891C130.871 326.031 131.882 326.954 133.084 327.556L358.092 440.182C362.095 442.179 366.529 443.166 371.004 443.054C375.479 442.942 379.858 441.736 383.756 439.54L478.52 386.231C479.67 385.577 480.619 384.622 481.264 383.469C481.91 382.317 482.227 381.01 482.183 379.691C482.139 378.371 481.734 377.089 481.013 375.982C480.291 374.875 479.281 373.985 478.09 373.409L243.936 261.662C242.931 261.183 241.83 260.941 240.717 260.955C239.603 260.968 238.508 261.236 237.515 261.739Z" fill="#E3E8F4"/>
<path d="M259.137 271.336L144.036 329.633L341.863 428.302L460.562 368.203L259.137 271.336Z" fill="#3F3D56"/>
<path d="M414.254 410.363C420.959 410.363 426.395 407.151 426.395 403.189C426.395 399.227 420.959 396.015 414.254 396.015C407.548 396.015 402.112 399.227 402.112 403.189C402.112 407.151 407.548 410.363 414.254 410.363Z" fill="#3F3D56"/>
<path d="M192.82 291.07C193.441 291.07 193.944 290.568 193.944 289.948C193.944 289.328 193.441 288.826 192.82 288.826C192.198 288.826 191.695 289.328 191.695 289.948C191.695 290.568 192.198 291.07 192.82 291.07Z" fill="#3F3D56"/>
<path d="M189.452 300.039C190.197 300.039 190.801 299.436 190.801 298.693C190.801 297.949 190.197 297.347 189.452 297.347C188.706 297.347 188.102 297.949 188.102 298.693C188.102 299.436 188.706 300.039 189.452 300.039Z" fill="#3F3D56"/>
<path d="M194.394 296.449L207.885 290.172" stroke="#3F3D56" stroke-miterlimit="10"/>
<path d="M313.904 325.631L275.82 347.564C270.287 350.751 268.391 357.809 271.586 363.328C274.781 368.848 281.856 370.739 287.39 367.552L325.474 345.62C331.007 342.433 332.903 335.375 329.708 329.855C326.513 324.336 319.438 322.445 313.904 325.631Z" fill="#3964FC"/>
<path d="M347.969 342.943L309.885 364.876C304.351 368.063 302.455 375.121 305.65 380.64C308.845 386.16 315.92 388.051 321.454 384.864L359.538 362.932C365.071 359.745 366.967 352.687 363.773 347.167C360.578 341.648 353.502 339.757 347.969 342.943Z" fill="#3964FC"/>
<path d="M283.054 305.759L244.97 327.692C239.436 330.878 237.54 337.936 240.735 343.456C243.93 348.975 251.005 350.866 256.539 347.68L294.623 325.747C300.157 322.56 302.052 315.502 298.858 309.983C295.663 304.463 288.587 302.572 283.054 305.759Z" fill="#3964FC"/>
<path d="M461.836 71.8669C460.666 39.0876 480.86 25.0394 491.104 22.1127C491.104 41 510.127 45.5264 514.517 102.597C518.908 159.669 463.3 112.841 461.836 71.8669Z" fill="#3964FC"/>
<path d="M490 23C480 35.6667 467.6 70.8 498 110" stroke="#565987"/>
<path d="M480 47C479.667 50 480.6 56.4 487 58M479 63.5C478.833 65 477.2 69 472 73M482.5 82C482.917 83.3333 487 89.25 492.75 85.75" stroke="#565987"/>
<path d="M91.9545 407.602C91.9545 407.602 56.2813 335.283 46.5274 336.865C41.8336 337.614 39.7307 342.184 38.7638 346.763C37.5623 352.69 38.2415 358.843 40.707 364.368C45.767 375.942 59.351 397.919 91.9545 407.602Z" fill="#3964FC"/>
<path d="M46.7902 350.593C46.7902 350.593 84.2002 404.699 91.4287 407.077" stroke="#565987" stroke-miterlimit="10"/>
<path d="M43.3544 359.039H52.085" stroke="#565987" stroke-miterlimit="10"/>
<path d="M53.8124 378.835L67.4996 379.416" stroke="#565987" stroke-miterlimit="10"/>
<path d="M62.1392 363L60.6559 370.108" stroke="#565987" stroke-miterlimit="10"/>
<path d="M76.6995 384.641L76.4273 391.102" stroke="#565987" stroke-miterlimit="10"/>
</g>
<defs>
<clipPath id="clip0">
<rect y="0.873596" width="594" height="525" fill="white"/>
</clipPath>
</defs>
</svg>
