<svg width="573" height="372" viewBox="0 0 573 372" fill="none" xmlns="http://www.w3.org/2000/svg">
<path d="M491.972 371.787C536.635 371.787 572.841 368.269 572.841 363.929C572.841 359.588 536.635 356.07 491.972 356.07C447.31 356.07 411.104 359.588 411.104 363.929C411.104 368.269 447.31 371.787 491.972 371.787Z" fill="#F2F3F6"/>
<path d="M545.047 23.593H66.9791C63.4154 23.593 60.5264 26.4841 60.5264 30.0505V295.458C60.5264 299.024 63.4154 301.915 66.9791 301.915H545.047C548.611 301.915 551.5 299.024 551.5 295.458V30.0505C551.5 26.4841 548.611 23.593 545.047 23.593Z" fill="url(#paint0_linear)"/>
<path d="M544.324 27.5068H67.7594C64.1956 27.5068 61.3066 30.3979 61.3066 33.9642V294.532C61.3066 298.099 64.1956 300.99 67.7594 300.99H544.324C547.888 300.99 550.777 298.099 550.777 294.532V33.9642C550.777 30.3979 547.888 27.5068 544.324 27.5068Z" fill="white"/>
<path d="M544.324 27.5068H67.7594C64.1956 27.5068 61.3066 30.3979 61.3066 33.9642V294.532C61.3066 298.099 64.1956 300.99 67.7594 300.99H544.324C547.888 300.99 550.777 298.099 550.777 294.532V33.9642C550.777 30.3979 547.888 27.5068 544.324 27.5068Z" fill="white"/>
<path opacity="0.04" d="M544.324 27.5068H67.7594C64.1956 27.5068 61.3066 30.3979 61.3066 33.9642V294.532C61.3066 298.099 64.1956 300.99 67.7594 300.99H544.324C547.888 300.99 550.777 298.099 550.777 294.532V33.9642C550.777 30.3979 547.888 27.5068 544.324 27.5068Z" fill="white"/>
<path d="M548.292 24.3685H63.7917C63.1326 24.3685 62.5005 24.6305 62.0345 25.0969C61.5685 25.5633 61.3066 26.1958 61.3066 26.8554V37.3662H550.756V26.8554C550.756 26.1994 550.497 25.57 550.036 25.1042C549.574 24.6384 548.947 24.374 548.292 24.3685Z" fill="#5A5773"/>
<path d="M71.0813 34.2279C72.9359 34.2279 74.4394 32.7233 74.4394 30.8673C74.4394 29.0114 72.9359 27.5068 71.0813 27.5068C69.2266 27.5068 67.7231 29.0114 67.7231 30.8673C67.7231 32.7233 69.2266 34.2279 71.0813 34.2279Z" fill="white"/>
<path d="M80.1228 34.2279C81.9774 34.2279 83.4809 32.7233 83.4809 30.8673C83.4809 29.0114 81.9774 27.5068 80.1228 27.5068C78.2681 27.5068 76.7646 29.0114 76.7646 30.8673C76.7646 32.7233 78.2681 34.2279 80.1228 34.2279Z" fill="white"/>
<path d="M89.1638 34.2279C91.0184 34.2279 92.5219 32.7233 92.5219 30.8673C92.5219 29.0114 91.0184 27.5068 89.1638 27.5068C87.3091 27.5068 85.8057 29.0114 85.8057 30.8673C85.8057 32.7233 87.3091 34.2279 89.1638 34.2279Z" fill="white"/>
<path opacity="0.2" d="M232.974 61.8104H101.62V72.9675H232.974V61.8104Z" fill="#3964FC"/>
<path opacity="0.1" d="M510.464 106.547H101.62V278.174H510.464V106.547Z" fill="#818AA9"/>
<path opacity="0.1" d="M341.002 117.741H334.002V104.133C334.002 88.7778 321.768 76.0128 306.424 75.7801C302.724 75.7412 299.053 76.4355 295.622 77.8228C292.192 79.2102 289.069 81.2633 286.435 83.8638C283.801 86.4643 281.707 89.5608 280.274 92.9747C278.842 96.3887 278.098 100.053 278.087 103.756V117.741H271.102C268.015 117.75 265.057 118.982 262.874 121.166C260.692 123.35 259.461 126.31 259.452 129.399V185.35C259.461 188.439 260.692 191.399 262.874 193.583C265.057 195.768 268.015 196.999 271.102 197.009H341.002C344.089 196.999 347.046 195.768 349.228 193.583C351.41 191.399 352.639 188.439 352.647 185.35V129.399C352.639 126.311 351.41 123.351 349.228 121.166C347.046 118.982 344.089 117.75 341.002 117.741ZM310.134 154.112V174.152C310.14 175.213 309.744 176.237 309.024 177.016C308.305 177.796 307.316 178.272 306.259 178.35C305.707 178.376 305.155 178.289 304.637 178.096C304.12 177.902 303.647 177.605 303.247 177.224C302.847 176.842 302.528 176.383 302.311 175.874C302.093 175.366 301.981 174.819 301.981 174.265V154.102C300.091 153.18 298.569 151.643 297.664 149.744C296.759 147.845 296.523 145.695 296.996 143.644C297.469 141.594 298.623 139.764 300.268 138.454C301.914 137.145 303.955 136.431 306.057 136.431C308.16 136.431 310.201 137.145 311.846 138.454C313.492 139.764 314.645 141.594 315.118 143.644C315.591 145.695 315.356 147.845 314.451 149.744C313.545 151.643 312.024 153.18 310.134 154.102V154.112ZM325.86 117.741H286.239V103.756C286.239 98.4998 288.326 93.4592 292.039 89.7428C295.753 86.0264 300.79 83.9385 306.042 83.9385C311.294 83.9385 316.331 86.0264 320.044 89.7428C323.758 93.4592 325.844 98.4998 325.844 103.756L325.86 117.741Z" fill="black"/>
<path d="M341.002 116.707H334.002V103.099C334.002 87.7438 321.768 74.9788 306.424 74.7461C302.724 74.7072 299.053 75.4015 295.622 76.7889C292.192 78.1762 289.069 80.2293 286.435 82.8298C283.801 85.4303 281.707 88.5268 280.274 91.9407C278.842 95.3547 278.098 99.0187 278.087 102.722V116.707H271.102C268.015 116.716 265.057 117.948 262.874 120.132C260.692 122.316 259.461 125.276 259.452 128.365V184.316C259.461 187.405 260.692 190.365 262.874 192.549C265.057 194.734 268.015 195.965 271.102 195.975H341.002C344.089 195.965 347.046 194.734 349.228 192.549C351.41 190.365 352.639 187.405 352.647 184.316V128.365C352.639 125.277 351.41 122.317 349.228 120.132C347.046 117.948 344.089 116.716 341.002 116.707ZM310.134 153.078V173.118C310.14 174.179 309.744 175.203 309.024 175.982C308.305 176.762 307.316 177.238 306.259 177.316C305.707 177.342 305.155 177.255 304.637 177.062C304.12 176.868 303.647 176.571 303.247 176.19C302.847 175.808 302.528 175.349 302.311 174.84C302.093 174.332 301.981 173.785 301.981 173.231V153.068C300.091 152.146 298.569 150.609 297.664 148.71C296.759 146.811 296.523 144.661 296.996 142.61C297.469 140.56 298.623 138.73 300.268 137.42C301.914 136.111 303.955 135.397 306.057 135.397C308.16 135.397 310.201 136.111 311.846 137.42C313.492 138.73 314.645 140.56 315.118 142.61C315.591 144.661 315.356 146.811 314.451 148.71C313.545 150.609 312.024 152.146 310.134 153.068V153.078ZM325.86 116.707H286.239V102.722C286.239 97.4658 288.326 92.4252 292.039 88.7088C295.753 84.9924 300.79 82.9045 306.042 82.9045C311.294 82.9045 316.331 84.9924 320.044 88.7088C323.758 92.4252 325.844 97.4658 325.844 102.722L325.86 116.707Z" fill="#3964FC"/>
<path opacity="0.1" d="M510.463 90.0289H469.081V99.8055H510.463V90.0289Z" fill="#5A5773"/>
<path d="M550.706 365.577C550.362 363.848 549.775 362.178 548.96 360.615L541.142 348.931H541.187C541.187 348.931 539.956 343.063 541.187 340.182C542.419 337.3 536.796 330.213 536.796 330.213C536.796 330.213 536.112 328.433 537.897 326.242C539.682 324.051 536.796 317.636 536.796 317.636C536.796 317.636 535.428 304.237 535.291 302.19C535.154 300.143 534.053 288.798 534.053 288.798L531.447 264.746L526.808 201L526.724 199.807C527.297 199.527 527.603 199.351 527.603 199.351L526.678 164.104L527.479 163.38C534.477 157.043 550.615 142.373 550.452 142.054C550.289 141.734 548.498 117.558 548.289 111.508C548.11 107.208 547.17 102.974 545.514 99.0023C545.11 98.2004 543.943 92.9127 543.461 90.6764C543.331 90.0635 543.246 89.6788 543.246 89.6788C543.246 89.6788 538.516 80.6552 538.927 76.5542C539.337 72.4531 540.158 69.3822 530.073 67.9478C530.073 67.9478 521.603 66.683 516.56 63.2339C513.578 61.1679 510.318 59.5348 506.878 58.3831C506.878 58.3831 504.051 53.1671 502.083 54.934C501.25 53.0728 500.627 51.1243 500.226 49.1248L500.168 48.7596C503.903 46.1533 506.591 42.3035 507.751 37.8974C507.817 37.6497 507.869 37.3954 507.927 37.1476C508.123 37.2139 508.327 37.2513 508.533 37.2585C510.247 37.2585 511.302 35.3481 512.905 34.7418C513.556 34.4875 514.358 34.4484 514.86 33.9333C515.025 33.7347 515.148 33.5046 515.222 33.257C515.296 33.0093 515.319 32.7492 515.29 32.4924C515.306 32.3145 515.306 32.1356 515.29 31.9578C515.293 31.8948 515.293 31.8317 515.29 31.7687V31.8339C514.853 29.4606 513.016 27.3547 513.218 24.9423C513.413 22.6734 515.407 20.6783 515.244 18.468C515.242 18.2932 515.226 18.1189 515.198 17.9464V18.0246C514.956 17.1617 514.509 16.37 513.895 15.7166C513.194 14.7604 512.273 13.9867 511.211 13.4607C510.305 13.063 509.256 12.9717 508.409 12.4957C505.921 11.1396 505.927 7.60576 504.448 5.19338C503.815 4.18633 502.915 3.37397 501.85 2.8459C500.784 2.31783 499.593 2.09457 498.409 2.20073C496.558 2.38329 494.884 3.3678 493.053 3.68728C490.551 4.13063 488.004 3.31564 485.632 2.38329C483.261 1.45094 480.857 0.427307 478.309 0.427307C475.762 0.427307 473.006 1.7313 472.237 4.13716C471.827 5.44114 472.029 6.84293 471.716 8.16648C471.156 10.5006 469.11 12.1697 466.992 13.3303C465.689 14.054 464.139 14.882 463.735 16.2512C463.735 16.2121 463.735 16.1795 463.735 16.1469C463.706 16.2561 463.684 16.3672 463.67 16.4794C463.657 16.6247 463.657 16.7709 463.67 16.9162C463.67 17.8551 464.165 18.7483 464.497 19.6416C465.116 21.3409 465.102 23.2067 464.458 24.8967C463.976 26.1354 463.155 27.2243 462.686 28.4565C462.465 29.0306 462.32 29.6312 462.256 30.243V30.1387C462.24 30.4166 462.24 30.6953 462.256 30.9732C462.248 31.9254 462.471 32.8652 462.907 33.7116C463.206 34.296 463.619 34.8146 464.121 35.2368C464.624 35.659 465.206 35.9762 465.833 36.1696C467.136 36.4696 467.95 35.1916 469.325 35.5176C469.571 35.5769 469.812 35.6532 470.048 35.7458C470.094 36.0392 470.139 36.3326 470.191 36.6195C471.022 41.0075 473.359 44.9671 476.798 47.8142C476.798 47.9707 476.85 48.1272 476.869 48.2902C477.285 50.8896 477.466 53.5213 477.41 56.1533C477.41 56.1533 475.358 53.1476 472.543 58.9503C472.543 58.9503 465.201 63.1883 462.666 63.6708C460.132 64.1532 451.134 67.2893 451.134 67.2893C449.777 68.2714 448.144 68.7986 446.469 68.7954C443.661 68.7954 441.329 74.9437 441.668 78.2885C442.006 81.6332 441.466 84.0977 438.853 84.2347C436.241 84.3716 437.667 89.6723 437.687 89.7636L437.446 90.9045C436.938 93.2387 435.83 98.246 435.439 99.0284C433.783 103 432.841 107.234 432.657 111.534C432.455 117.584 430.703 141.669 430.501 142.08C430.364 142.347 441.42 152.459 449.193 159.527L450.32 160.544L446.743 193.978C446.847 195.267 447.23 196.517 447.864 197.642C448.499 198.768 449.37 199.743 450.418 200.498C450.418 200.889 450.418 201.287 450.379 201.698C450.222 205.61 449.909 210.343 449.284 211.582C448.189 213.773 448.463 225.522 448.463 225.522C448.463 225.522 447.362 249.437 445.994 252.038C444.626 254.64 444.345 260.097 444.756 261.166C445.166 262.236 443.381 290.956 443.381 290.956L442.013 303.807C442.013 303.807 442.423 316.103 441.186 316.377C439.948 316.651 439.264 325.127 439.264 325.127C439.264 325.127 434.879 331.138 436.794 333.323C438.71 335.507 436.514 336.472 436.312 337.013C436.11 337.554 432.129 339.621 435.009 347.262C435.036 347.338 435.066 347.412 435.1 347.484C432.403 351.233 423.855 363.327 424.376 365.166C424.761 366.336 425.576 367.315 426.657 367.904C428.67 369.111 432.123 369.671 437.615 367.904C446.737 364.964 446.085 362.845 446.085 362.845C446.132 361.854 446.556 360.919 447.272 360.233C447.987 359.546 448.938 359.16 449.929 359.155C453.701 358.881 456.516 355.399 456.516 355.399L456.073 353.75L455.467 351.468C455.539 350.816 456.001 349.675 458.073 349.042C461.233 348.084 460.405 342.072 460.405 342.072C460.405 342.072 460.132 335.787 461.5 334.966C462.868 334.144 462.327 323.758 462.327 323.758C462.327 323.758 463.839 316.24 466.028 311.181C468.217 306.121 470.836 276.064 470.836 276.064C470.836 276.064 472.615 261.303 474.263 257.065C475.912 252.827 477.423 240.941 477.423 240.941C477.423 240.941 487.58 221.258 487.711 216.883C487.711 216.883 489.014 212.782 490.317 217.294C491.62 221.805 495.281 232.602 495.281 232.602L498.845 245.858L503.1 265.672L505.849 282.35C505.849 282.35 505.432 288.635 506.501 290.826C507.569 293.016 509.107 298.063 508.286 299.021C507.465 299.98 509.928 304.491 510.618 305.443C511.309 306.395 510.618 326.627 510.618 326.627C510.618 326.627 513.771 343.846 518.3 346.838C518.615 347.046 518.952 347.221 519.303 347.36C519.238 349.225 519.173 351.722 519.257 353.026C519.247 353.317 519.296 353.608 519.401 353.88C519.811 354.428 524.476 358.118 525.44 358.118C526.404 358.118 529.825 360.511 529.968 361.671C530.112 362.832 539.995 367.748 541.396 367.891C542.797 368.035 549.586 369.254 550.517 367.344C550.748 366.785 550.813 366.172 550.706 365.577ZM526.424 119.305L527.128 119.912C527.128 119.912 527.851 125.552 528.366 127.24C528.88 128.929 528.261 132.215 528.261 132.215C528.309 133.441 528.553 134.652 528.984 135.801C529.597 137.033 527.747 139.713 527.747 139.713H526.098L525.584 118.601L526.424 119.305ZM477.41 56.2706V56.1467C477.397 56.1859 477.391 56.2315 477.391 56.2706H477.41ZM452.099 137.542C451.845 136.996 451.808 136.373 451.994 135.801C452.141 135.491 452.256 135.168 452.34 134.836C452.542 133.979 452.669 133.107 452.717 132.228C452.718 132.217 452.718 132.206 452.717 132.195C452.659 131.882 452.131 128.857 452.62 127.253C453.108 125.649 453.851 119.925 453.851 119.925L454.32 119.527L455.408 118.582C455.408 118.582 455.408 118.23 455.486 117.649C455.714 122.605 455.897 128.081 455.604 128.355C455.056 128.896 453.063 134.223 453.545 134.432C453.701 134.503 453.486 136.635 453.121 139.504C452.712 138.888 452.369 138.23 452.099 137.542Z" fill="url(#paint1_linear)"/>
<path d="M504.611 61.4799V69.5907L487.984 77.9558C487.984 77.9558 471.474 67.9608 475.546 63.9836C478.152 61.4669 477.651 54.5558 476.947 49.8027C476.537 47.0383 476.061 45.0106 476.061 45.0106C476.061 45.0106 505.718 36.5346 501.236 42.9698C499.737 45.1214 499.62 47.9054 500.122 50.6633C501.138 56.1336 504.611 61.4799 504.611 61.4799Z" fill="#C37098"/>
<path d="M459.063 140.795L456.92 167.214C456.92 167.214 453.708 164.299 449.551 160.505C441.844 153.47 430.898 143.41 431.028 143.142C431.23 142.732 432.983 118.764 433.172 112.74C433.35 108.464 434.281 104.252 435.921 100.3C436.312 99.5173 437.413 94.5361 437.876 92.2084C438.032 91.4847 438.13 91.0153 438.13 91.0153L441.726 89.5679C441.726 89.5679 456.711 106.298 456.711 106.604C456.711 106.911 455.689 119.762 455.689 119.762L454.627 120.688L454.164 121.085C454.164 121.085 453.447 126.699 452.939 128.381C452.431 130.063 452.978 132.984 453.037 133.297C452.989 134.176 452.865 135.048 452.665 135.905C452.58 136.235 452.465 136.556 452.32 136.864C452.137 137.434 452.174 138.053 452.424 138.598C452.714 139.354 453.09 140.074 453.545 140.743L459.063 140.795Z" fill="#3F3D56"/>
<path d="M549.879 143.142C550.035 143.462 534.053 158.06 527.128 164.365L523.987 167.214L521.863 140.795H527.369C527.369 140.795 529.206 138.141 528.594 136.916C528.167 135.773 527.927 134.569 527.883 133.349C527.883 133.349 528.489 130.089 527.981 128.401C527.473 126.712 526.756 121.105 526.756 121.105L526.059 120.505L525.232 119.781C525.232 119.781 524.209 106.931 524.209 106.624C524.209 106.318 539.194 89.5875 539.194 89.5875L542.764 91.0153C542.764 91.0153 542.842 91.4 542.973 92.0129C543.455 94.2362 544.608 99.4978 545.005 100.3C546.646 104.252 547.577 108.464 547.755 112.74C547.924 118.764 549.67 142.732 549.879 143.142Z" fill="#3F3D56"/>
<path d="M549.944 367.389C548.986 369.293 542.262 368.041 540.875 367.937C539.487 367.833 529.688 362.897 529.551 361.743C529.414 360.589 526.02 358.209 525.069 358.209C524.118 358.209 519.498 354.532 519.088 353.991C518.984 353.721 518.937 353.432 518.951 353.143C518.808 350.907 519.088 345.15 519.088 345.15L538.796 346.239L548.374 360.654C549.181 362.209 549.764 363.871 550.107 365.59C550.223 366.193 550.166 366.817 549.944 367.389Z" fill="#3F3D56"/>
<path opacity="0.1" d="M549.944 367.389C548.986 369.293 542.262 368.041 540.875 367.937C539.487 367.833 529.688 362.897 529.551 361.743C529.414 360.589 526.02 358.209 525.069 358.209C524.118 358.209 519.498 354.532 519.088 353.991C518.984 353.721 518.937 353.432 518.951 353.143C518.808 350.907 519.088 345.15 519.088 345.15L538.796 346.239L548.374 360.654C549.181 362.209 549.764 363.871 550.107 365.59C550.223 366.193 550.166 366.817 549.944 367.389Z" fill="black"/>
<path opacity="0.1" d="M549.944 367.389C548.987 369.293 542.263 368.041 540.875 367.937C539.487 367.833 529.689 362.897 529.552 361.743C529.415 360.589 526.021 358.209 525.069 358.209C524.118 358.209 519.499 354.532 519.088 353.991C518.984 353.721 518.938 353.432 518.952 353.143L525.336 357.186C525.336 357.186 529.415 359.794 530.503 361.339C531.591 362.884 540.165 366.098 540.875 366.163C541.403 366.216 547.032 365.133 550.107 365.59C550.223 366.193 550.167 366.817 549.944 367.389Z" fill="black"/>
<path d="M456.777 355.49C456.777 355.49 453.988 358.959 450.262 359.226C449.278 359.234 448.335 359.619 447.627 360.302C446.919 360.985 446.5 361.914 446.457 362.897C446.457 362.897 447.108 365.009 438.098 367.937C432.657 369.691 429.237 369.137 427.243 367.937C426.173 367.346 425.366 366.373 424.983 365.212C424.37 363.04 436.397 346.512 436.397 346.512L447.343 345.86L455.161 349.394L456.36 353.873L456.777 355.49Z" fill="#3F3D56"/>
<path opacity="0.1" d="M456.777 355.49C456.777 355.49 453.988 358.959 450.262 359.226C449.278 359.234 448.335 359.619 447.627 360.302C446.919 360.985 446.5 361.914 446.457 362.897C446.457 362.897 447.108 365.009 438.098 367.937C432.657 369.691 429.237 369.137 427.243 367.937C426.173 367.346 425.366 366.373 424.983 365.212C424.37 363.04 436.397 346.512 436.397 346.512L447.343 345.86L455.161 349.394L456.36 353.873L456.777 355.49Z" fill="black"/>
<path opacity="0.1" d="M456.777 355.49C456.777 355.49 453.988 358.959 450.261 359.226C449.278 359.234 448.335 359.619 447.627 360.302C446.919 360.985 446.5 361.914 446.456 362.897C446.456 362.897 447.108 365.009 438.097 367.937C432.657 369.691 429.237 369.136 427.243 367.937C432.371 367.402 443.701 364.162 444.834 363.04C446.196 361.678 447.896 357.935 449.05 357.87C449.851 357.818 453.923 355.366 456.366 353.847L456.777 355.49Z" fill="black"/>
<path d="M540.699 340.325C539.474 343.181 540.699 349.029 540.699 349.029C540.699 349.029 522.456 349.981 518 346.988C513.543 343.996 510.39 326.855 510.39 326.855C510.39 326.855 511.041 306.728 510.39 305.776C509.738 304.824 507.263 300.338 508.077 299.386C508.891 298.434 507.425 293.401 506.311 291.223C505.197 289.046 505.66 282.793 505.66 282.793L502.936 266.193L498.728 246.477L495.151 233.28C495.151 233.28 491.483 222.536 490.238 218.05C488.994 213.564 487.678 217.639 487.678 217.639C487.547 221.994 477.488 241.58 477.488 241.58C477.488 241.58 475.989 253.414 474.361 257.626C472.732 261.838 470.96 276.534 470.96 276.534C470.96 276.534 468.354 306.454 466.204 311.487C464.054 316.521 462.575 323.999 462.575 323.999C462.575 323.999 463.122 334.34 461.76 335.155C460.399 335.97 460.62 342.229 460.62 342.229C460.62 342.229 461.434 348.208 458.307 349.166C455.18 350.124 455.701 352.159 455.701 352.159C455.701 352.159 438.305 355.014 435.452 347.393C432.598 339.771 436.54 337.743 436.755 337.195C436.97 336.648 439.139 335.702 437.237 333.518C435.335 331.334 439.68 325.362 439.68 325.362C439.68 325.362 440.364 316.931 441.583 316.658C442.801 316.384 442.404 304.146 442.404 304.146L443.759 291.36C443.759 291.36 445.531 262.796 445.12 261.707C444.71 260.619 444.984 255.188 446.345 252.58C447.707 249.972 448.788 226.187 448.788 226.187C448.788 226.187 448.515 214.497 449.603 212.319C450.254 211.087 450.528 206.347 450.684 202.48C450.802 199.527 450.828 197.082 450.828 197.082L466.047 191.37L485.593 185.118L502.037 193.007L526.098 197.629L526.398 201.783L530.991 265.228L533.597 289.163C533.597 289.163 534.685 300.449 534.822 302.49C534.959 304.53 536.314 317.864 536.314 317.864C536.314 317.864 539.167 324.253 537.402 326.431C535.636 328.609 536.314 330.343 536.314 330.343C536.314 330.343 541.923 337.469 540.699 340.325Z" fill="#3F3D56"/>
<path opacity="0.1" d="M501.25 42.9698C499.751 45.1214 499.634 47.9054 500.136 50.6634C496.712 53.0806 492.589 54.305 488.402 54.1483C484.215 53.9917 480.195 52.4625 476.961 49.7962C476.551 47.0318 476.075 45.0041 476.075 45.0041C476.075 45.0041 505.732 36.5412 501.25 42.9698Z" fill="black"/>
<path d="M508.181 34.6504C508.181 38.4287 507.062 42.1222 504.964 45.2637C502.866 48.4053 499.885 50.8538 496.397 52.2997C492.909 53.7456 489.07 54.1239 485.367 53.3868C481.664 52.6497 478.263 50.8302 475.593 48.1586C472.923 45.4869 471.105 42.083 470.369 38.3773C469.632 34.6716 470.01 30.8305 471.455 27.3398C472.9 23.8491 475.347 20.8656 478.486 18.7665C481.625 16.6674 485.316 15.547 489.092 15.547C491.602 15.5349 494.09 16.0208 496.411 16.9765C498.733 17.9323 500.842 19.339 502.617 21.1153C504.392 22.8916 505.798 25.0024 506.753 27.3256C507.708 29.6488 508.193 32.1383 508.181 34.6504Z" fill="#C37098"/>
<path opacity="0.1" d="M512.156 66.396L505.901 177.854L471.925 170.715L465.194 126.034L471.859 66.0505L476.876 66.6959L485.724 67.8239L494.487 68.365L503.986 67.3088L512.156 66.396Z" fill="black"/>
<path d="M512.156 67.2111L505.901 178.669L471.925 171.53L465.194 126.849L471.859 66.872L476.876 67.511L485.724 68.6389L494.487 69.1801L503.986 68.1238L512.156 67.2111Z" fill="#3964FC"/>
<path d="M484.225 70.2037L496.46 70.6144L493.02 75.4327C493.02 75.4327 493.261 85.1669 494.896 87.9575C496.532 90.748 496.05 133.858 496.05 133.858L492.792 140.045L487.222 133.108L487.293 76.189L484.225 70.2037Z" fill="#3F3D56"/>
<path opacity="0.1" d="M484.225 70.2037L496.46 70.6144L493.02 75.4327C493.02 75.4327 493.261 85.1669 494.896 87.9575C496.532 90.748 496.05 133.858 496.05 133.858L492.792 140.045L487.222 133.108L487.293 76.189L484.225 70.2037Z" fill="black"/>
<path opacity="0.1" d="M503.386 57.5551L491.972 70.2038L498.493 77.0041L509.302 66.4613L503.386 57.5551Z" fill="black"/>
<path d="M503.386 56.74L491.972 69.3887L498.493 76.189L509.302 65.6462L503.386 56.74Z" fill="#3964FC"/>
<path opacity="0.1" d="M487.15 69.5908L475.592 58.0309L474.504 64.0814L479.807 77.343L487.15 69.5908Z" fill="black"/>
<path d="M487.555 68.7759L476.003 57.216L474.915 63.2665L480.218 76.5281L487.555 68.7759Z" fill="#3964FC"/>
<path opacity="0.1" d="M526.457 201.802C520.909 204.447 514.967 206.167 508.866 206.894C497.653 208.322 490.317 194.043 490.317 194.043L486.036 199.618C484.675 205.538 463.95 207.031 455.526 204.788C453.778 204.356 452.134 203.578 450.691 202.5C450.809 199.546 450.835 197.101 450.835 197.101L466.054 191.39L485.6 185.137L502.044 193.026L526.105 197.649L526.457 201.802Z" fill="black"/>
<path opacity="0.1" d="M512.156 67.2176L505.908 178.669L471.925 171.53L465.182 126.855L471.84 66.872L476.857 67.524C476.729 69.709 476.483 71.8854 476.121 74.0439C475.306 77.8581 480.336 104.922 480.336 104.922C480.336 104.922 489.894 135.273 494.194 130.898C498.494 126.523 504.618 103.423 504.618 103.423C508.768 94.8556 504.69 70.8231 504.384 70.3406C504.17 69.6299 504.039 68.8971 503.993 68.1564L512.156 67.2176Z" fill="black"/>
<path opacity="0.1" d="M526.834 153.463L527.121 164.384L523.981 167.233L521.863 140.795H526.554L526.834 153.463Z" fill="black"/>
<path opacity="0.1" d="M453.043 133.317C452.995 134.195 452.87 135.068 452.671 135.925C452.671 135.683 452.671 135.547 452.619 135.527C452.424 135.475 452.658 134.477 453.043 133.317Z" fill="black"/>
<path opacity="0.1" d="M459.063 140.795L456.92 167.214C456.92 167.214 453.708 164.299 449.551 160.505L450.046 155.824C450.046 155.824 451.799 144.322 452.437 138.65C452.727 139.406 453.103 140.126 453.558 140.795H459.063Z" fill="black"/>
<path d="M477.494 57.6202C477.494 57.6202 475.462 54.6276 472.673 60.4042C472.673 60.4042 465.402 64.6226 462.9 65.0986C460.399 65.5746 451.499 68.7041 451.499 68.7041C450.155 69.6764 448.538 70.199 446.879 70.1972C444.091 70.1972 441.778 76.3194 442.117 79.6511C442.456 82.9828 441.915 85.4343 439.335 85.5712C436.755 85.7081 438.175 91.0741 438.175 91.0741L455.369 110.797C455.369 110.797 456.457 128.955 455.916 129.503C455.375 130.05 453.401 135.371 453.877 135.553C454.352 135.736 451.271 155.817 451.271 155.817L447.127 194.787C447.127 194.787 447.127 201.307 455.558 203.556C463.988 205.805 484.726 204.319 486.062 198.399L490.342 192.818C490.342 192.818 497.679 207.103 508.891 205.675C520.104 204.247 527.245 200.166 527.245 200.166L526.02 153.463L525.205 119.801L542.712 91.0154C542.712 91.0154 538.021 82.0374 538.431 77.9755C538.842 73.9136 539.65 70.8361 529.662 69.4083C529.662 69.4083 521.238 68.1499 516.273 64.7139C513.323 62.6639 510.099 61.0397 506.696 59.8892C506.696 59.8892 503.894 54.6732 501.946 56.4597C501.946 56.4597 503.901 63.8337 503.738 64.9356C503.575 66.0375 504.044 71.0187 504.35 71.5338C504.656 72.0489 508.735 96.0488 504.585 104.616C504.585 104.616 498.493 127.716 494.16 132.091C489.828 136.466 480.303 106.116 480.303 106.116C480.303 106.116 475.273 79.0448 476.087 75.2371C476.902 71.4295 477.494 57.6202 477.494 57.6202Z" fill="#3F3D56"/>
<path d="M492.036 146.78C493.688 146.78 495.027 145.441 495.027 143.788C495.027 142.135 493.688 140.795 492.036 140.795C490.385 140.795 489.046 142.135 489.046 143.788C489.046 145.441 490.385 146.78 492.036 146.78Z" fill="#3F3D56"/>
<path d="M492.036 160.89C493.688 160.89 495.027 159.55 495.027 157.897C495.027 156.244 493.688 154.904 492.036 154.904C490.385 154.904 489.046 156.244 489.046 157.897C489.046 159.55 490.385 160.89 492.036 160.89Z" fill="#3F3D56"/>
<path opacity="0.1" d="M492.036 146.78C493.688 146.78 495.027 145.441 495.027 143.788C495.027 142.135 493.688 140.795 492.036 140.795C490.385 140.795 489.046 142.135 489.046 143.788C489.046 145.441 490.385 146.78 492.036 146.78Z" fill="black"/>
<path opacity="0.1" d="M492.036 160.89C493.688 160.89 495.027 159.55 495.027 157.897C495.027 156.244 493.688 154.904 492.036 154.904C490.385 154.904 489.046 156.244 489.046 157.897C489.046 159.55 490.385 160.89 492.036 160.89Z" fill="black"/>
<path opacity="0.1" d="M518.912 336.243C518.912 336.243 531.187 337.195 532.405 338.147C533.623 339.099 518.912 336.243 518.912 336.243Z" fill="black" stroke="#3964FC" stroke-miterlimit="10"/>
<path opacity="0.1" d="M445.831 326.587C445.831 326.587 448.437 329.847 447.33 331.347C446.222 332.847 445.831 326.587 445.831 326.587Z" fill="black" stroke="#3964FC" stroke-miterlimit="10"/>
<path opacity="0.1" d="M448.958 338.343C448.958 338.343 453.714 335.213 455.617 337.293C457.519 339.373 448.958 338.343 448.958 338.343Z" fill="black" stroke="#3964FC" stroke-miterlimit="10"/>
<path opacity="0.1" d="M508.182 34.6504C508.185 36.2805 507.98 37.9042 507.569 39.4817C507.167 39.2983 506.831 38.9965 506.605 38.6167C506.379 38.2369 506.275 37.7971 506.305 37.3562C506.39 36.5804 506.905 35.8697 506.794 35.1003C506.631 33.9137 505.198 33.4312 504.442 32.4923C503.51 31.3579 503.712 29.7083 503.79 28.2413C503.869 26.7744 503.497 24.9814 502.123 24.4793C501.712 24.3294 501.263 24.3163 500.865 24.1468C499.784 23.6904 499.451 22.3473 498.728 21.4215C497.282 19.5568 494.409 19.5959 492.213 20.4826C491.257 20.9411 490.279 21.3503 489.281 21.7084C488.782 21.8847 488.251 21.9554 487.723 21.9161C487.195 21.8769 486.68 21.7284 486.212 21.4802C485.782 21.2063 485.437 20.8282 484.994 20.5543C483.522 19.6676 481.593 20.5543 480.316 21.6953C479.039 22.8363 478.016 24.3685 476.407 25.0661C475.684 25.3921 474.791 25.5877 474.452 26.2919C474.285 26.6752 474.213 27.0938 474.244 27.5111C474.244 30.0474 474.544 32.6227 474.016 35.1068C473.677 36.7042 472.557 38.5168 470.934 38.3212C470.732 38.2912 470.533 38.241 470.341 38.1712C469.853 35.5599 469.914 32.8754 470.521 30.2891C471.128 27.7028 472.268 25.2717 473.867 23.151C475.466 21.0303 477.489 19.2667 479.808 17.9728C482.126 16.6788 484.689 15.8831 487.332 15.6363C489.975 15.3895 492.641 15.6972 495.159 16.5397C497.676 17.3821 499.991 18.7408 501.954 20.5289C503.917 22.3171 505.486 24.4953 506.561 26.9246C507.636 29.3539 508.192 31.9808 508.195 34.6374L508.182 34.6504Z" fill="black"/>
<path d="M469.488 37.0889C469.977 37.1998 470.439 37.454 470.941 37.5192C472.563 37.7148 473.684 35.9023 474.022 34.3049C474.55 31.8208 474.277 29.2454 474.257 26.7092C474.221 26.2922 474.29 25.8728 474.459 25.4899C474.83 24.7858 475.723 24.5902 476.414 24.2642C477.99 23.56 479.02 22.0605 480.323 20.8934C481.626 19.7263 483.522 18.8657 484.994 19.7524C485.431 20.0132 485.782 20.4044 486.212 20.6782C486.683 20.9229 487.198 21.0694 487.727 21.1086C488.255 21.1478 488.786 21.079 489.288 20.9064C490.297 20.6065 491.242 20.0784 492.213 19.6807C494.389 18.794 497.269 18.7614 498.728 20.613C499.451 21.5454 499.784 22.882 500.865 23.3384C501.263 23.5079 501.712 23.5274 502.123 23.6774C503.497 24.1925 503.849 25.9724 503.79 27.4394C503.732 28.9064 503.536 30.5559 504.442 31.6904C505.198 32.6162 506.631 33.0987 506.794 34.2984C506.898 35.0677 506.39 35.7849 506.305 36.5543C506.286 36.8402 506.323 37.1272 506.416 37.3985C506.508 37.6698 506.653 37.9201 506.843 38.1348C507.033 38.3495 507.263 38.5244 507.521 38.6493C507.779 38.7742 508.059 38.8466 508.345 38.8624C510.039 38.8624 511.087 36.965 512.671 36.3587C513.322 36.1044 514.111 36.0653 514.625 35.5502C514.817 35.3026 514.952 35.0164 515.022 34.7113C515.091 34.4062 515.094 34.0895 515.029 33.7833C514.71 31.2862 512.71 29.115 512.925 26.6114C513.127 24.212 515.348 22.1191 514.879 19.7589C514.64 18.8886 514.193 18.0897 513.576 17.4313C512.878 16.484 511.968 15.7137 510.918 15.1819C510.012 14.7907 508.964 14.6994 508.136 14.2235C505.673 12.8739 505.68 9.35309 504.227 6.95376C503.603 5.96217 502.719 5.16146 501.671 4.63934C500.623 4.11723 499.452 3.89386 498.285 3.9937C496.454 4.17625 494.793 5.14772 492.982 5.47372C490.499 5.91707 487.985 5.10208 485.633 4.16973C483.281 3.23738 480.903 2.21375 478.381 2.21375C475.86 2.21375 473.13 3.51774 472.361 5.90403C471.957 7.20802 472.159 8.60329 471.846 9.91379C471.299 12.2414 469.24 13.8975 467.168 15.0515C465.742 15.8469 464.028 16.7597 463.859 18.3832C463.748 19.4134 464.315 20.3392 464.673 21.3367C465.283 23.0243 465.269 24.8744 464.634 26.5527C464.158 27.785 463.364 28.8673 462.881 30.093C462.539 30.9249 462.377 31.8201 462.407 32.7192C462.436 33.6184 462.655 34.5011 463.051 35.309C463.355 35.898 463.775 36.4188 464.287 36.8392C464.799 37.2597 465.392 37.5709 466.028 37.754C467.312 38.0604 468.12 36.789 469.488 37.0889Z" fill="#3F3D56"/>
<g opacity="0.1">
<path opacity="0.1" d="M474.023 32.8835C473.684 34.4809 472.557 36.2935 470.935 36.0979C470.433 36.0327 469.977 35.7784 469.482 35.6675C468.12 35.3676 467.312 36.6455 466.029 36.3195C465.391 36.1366 464.798 35.8254 464.285 35.405C463.772 34.9846 463.35 34.4638 463.045 33.8746C462.704 33.2109 462.498 32.4863 462.439 31.7425C462.309 32.897 462.52 34.0642 463.045 35.1003C463.35 35.6896 463.772 36.2103 464.285 36.6308C464.798 37.0512 465.391 37.3624 466.029 37.5453C467.332 37.8452 468.12 36.5673 469.482 36.8933C469.958 37.0594 470.443 37.2008 470.935 37.3171C472.557 37.5192 473.684 35.7067 474.023 34.1093C474.29 32.698 474.395 31.2608 474.335 29.8257C474.329 30.8526 474.224 31.8766 474.023 32.8835Z" fill="black"/>
<path opacity="0.1" d="M465.096 23.0645C465.179 21.9961 465.033 20.9223 464.666 19.9154C464.372 19.2458 464.121 18.5575 463.917 17.855C463.889 17.9646 463.867 18.0756 463.852 18.1875C463.741 19.2112 464.314 20.1435 464.666 21.1411C464.894 21.7604 465.038 22.4072 465.096 23.0645Z" fill="black"/>
<path opacity="0.1" d="M514.873 19.6285C514.567 21.4802 513.069 23.221 512.919 25.1705C512.883 25.5042 512.883 25.8409 512.919 26.1746C513.244 23.8991 515.258 21.8844 514.873 19.6285Z" fill="black"/>
<path opacity="0.1" d="M514.984 33.3856C514.928 33.6582 514.8 33.9106 514.612 34.1158C514.13 34.6309 513.309 34.67 512.658 34.9243C511.074 35.5306 510.052 37.4475 508.332 37.4279C507.891 37.403 507.469 37.2451 507.12 36.975C506.771 36.705 506.512 36.3355 506.377 35.9153C506.337 36.0566 506.307 36.2003 506.286 36.3456C506.267 36.631 506.305 36.9173 506.398 37.1879C506.491 37.4584 506.636 37.7079 506.826 37.9219C507.015 38.1359 507.246 38.3102 507.503 38.4347C507.76 38.5592 508.04 38.6314 508.325 38.6472C510.025 38.6472 511.068 36.7499 512.651 36.15C513.303 35.8957 514.097 35.8566 514.606 35.3415C514.797 35.094 514.932 34.8077 515.002 34.5026C515.072 34.1975 515.074 33.8809 515.01 33.5746C515.003 33.4964 514.99 33.4442 514.984 33.3856Z" fill="black"/>
<path opacity="0.1" d="M506.814 32.8445C506.651 31.6578 505.217 31.1754 504.462 30.2365C503.998 29.6198 503.747 28.8695 503.745 28.098C503.693 29.3107 503.712 30.5495 504.462 31.4623C505.211 32.375 506.351 32.7662 506.716 33.7051C506.808 33.4282 506.841 33.135 506.814 32.8445Z" fill="black"/>
<path opacity="0.1" d="M503.784 26.0181C503.836 24.5511 503.484 22.7581 502.109 22.2561C501.705 22.1061 501.256 22.0865 500.858 21.9235C499.777 21.4672 499.438 20.124 498.721 19.1982C497.268 17.34 494.395 17.3726 492.206 18.2593C491.229 18.6571 490.297 19.1852 489.281 19.4851C488.781 19.6614 488.251 19.7321 487.723 19.6929C487.194 19.6536 486.68 19.5051 486.212 19.2569C485.782 18.9831 485.43 18.6049 484.994 18.3311C483.515 17.4443 481.586 18.3311 480.316 19.472C479.045 20.613 478.016 22.1387 476.407 22.8429C475.677 23.1689 474.791 23.3645 474.413 24.0686C474.247 24.4525 474.178 24.871 474.211 25.2878C474.211 25.5421 474.211 25.7964 474.211 26.0507C474.22 25.788 474.284 25.5302 474.4 25.2944C474.778 24.5902 475.664 24.3946 476.394 24.0686C477.97 23.3645 479 21.8649 480.303 20.6978C481.606 19.5307 483.502 18.6701 484.981 19.5568C485.417 19.8176 485.769 20.2088 486.199 20.4761C486.667 20.7259 487.181 20.8752 487.709 20.9145C488.238 20.9538 488.769 20.8822 489.268 20.7043C490.264 20.3496 491.24 19.9426 492.193 19.4851C494.376 18.5984 497.249 18.5593 498.708 20.4174C499.425 21.3433 499.764 22.6864 500.845 23.1428C501.243 23.3123 501.692 23.3319 502.096 23.4818C503.21 23.8991 503.653 25.1509 503.751 26.3897L503.784 26.0181Z" fill="black"/>
</g>
<g opacity="0.1">
<path opacity="0.1" d="M471.696 32.8444C471.734 31.7622 472.121 30.7214 472.8 29.8784C473.479 29.0354 474.413 28.4358 475.462 28.1696C478.367 27.4589 481.415 27.5969 484.245 28.5673C490.427 30.6146 483.463 37.9821 483.463 37.9821C483.463 37.9821 478.83 42.5461 474.511 39.3578C473.235 38.3928 472.342 37.007 471.989 35.4459C471.778 34.5954 471.679 33.7207 471.696 32.8444Z" fill="black"/>
<path opacity="0.1" d="M505.686 32.8445C505.649 31.7615 505.26 30.72 504.58 29.8769C503.9 29.0338 502.964 28.4347 501.914 28.1697C499.011 27.4603 495.965 27.5983 493.138 28.5674C486.955 30.6147 493.92 37.9823 493.92 37.9823C493.92 37.9823 498.546 42.5462 502.872 39.358C504.148 38.393 505.041 37.0071 505.393 35.446C505.605 34.5955 505.703 33.7208 505.686 32.8445Z" fill="black"/>
<path opacity="0.1" d="M483.078 27.9676V28.274H494.369V27.9089L483.078 27.9676Z" fill="black"/>
<path opacity="0.1" d="M486.681 31.234H487.039V30.1973C487.039 30.1973 488.186 29.3041 490.088 30.1973V31.1231H490.74V30.5168H490.421C490.421 30.5168 490.551 29.2585 488.427 29.4606C488.427 29.4606 486.72 29.2976 486.759 30.3799H486.368L486.681 31.234Z" fill="black"/>
</g>
<path d="M471.696 32.4207C471.734 31.3385 472.121 30.2977 472.8 29.4547C473.479 28.6117 474.413 28.012 475.462 27.7458C478.368 27.0399 481.414 27.1779 484.245 28.1436C490.428 30.1974 483.463 37.5584 483.463 37.5584C483.463 37.5584 478.83 42.1223 474.511 38.9341C473.233 37.9714 472.339 36.5846 471.99 35.0221C471.777 34.1717 471.679 33.297 471.696 32.4207Z" fill="#3964FC"/>
<path d="M505.686 32.4206C505.649 31.3376 505.26 30.2961 504.58 29.453C503.9 28.6099 502.964 28.0108 501.914 27.7458C499.011 27.0397 495.966 27.1777 493.138 28.1435C486.955 30.1973 493.92 37.5583 493.92 37.5583C493.92 37.5583 498.546 42.1223 502.872 38.934C504.15 37.9714 505.044 36.5845 505.393 35.022C505.605 34.1717 505.704 33.2969 505.686 32.4206Z" fill="#3964FC"/>
<path d="M483.078 27.5567V27.8697H494.369V27.498L483.078 27.5567Z" fill="#3964FC"/>
<path d="M486.682 30.8232H487.04V29.7866C487.04 29.7866 488.187 28.8998 490.089 29.7866V30.7189H490.741V30.106H490.422C490.422 30.106 490.552 28.8542 488.428 29.0498C488.428 29.0498 486.721 28.8933 486.76 29.9691H486.369L486.682 30.8232Z" fill="#3964FC"/>
<path d="M62.6759 329.083C87.8648 329.083 108.284 325.801 108.284 321.752C108.284 317.703 87.8648 314.421 62.6759 314.421C37.487 314.421 17.0674 317.703 17.0674 321.752C17.0674 325.801 37.487 329.083 62.6759 329.083Z" fill="#E0E1E6"/>
<path d="M64.143 181.322H61.2085V247.447H64.143V181.322Z" fill="#535461"/>
<path d="M82.587 247.246L82.401 250.224L82.1427 254.427L82.0342 256.18L81.7759 260.388L81.6623 262.141L81.4039 266.344L78.4436 314.152C78.3173 316.209 77.4116 318.141 75.9112 319.553C74.4107 320.966 72.4284 321.752 70.3686 321.752H54.9832C52.9239 321.752 50.9423 320.965 49.4426 319.553C47.943 318.141 47.0384 316.209 46.9134 314.152L43.9376 266.344L43.6792 262.141L43.5708 260.388L43.3176 256.169L43.2091 254.417L42.9508 250.213L42.7648 247.235C42.7295 246.664 42.8116 246.091 43.006 245.552C43.2004 245.014 43.5029 244.521 43.895 244.104C44.2871 243.687 44.7604 243.354 45.2858 243.127C45.8111 242.9 46.3773 242.783 46.9495 242.784H78.4075C78.9804 242.783 79.5473 242.901 80.0731 243.128C80.599 243.356 81.0725 243.689 81.4643 244.108C81.8561 244.526 82.158 245.02 82.3511 245.56C82.5442 246.1 82.6245 246.674 82.587 247.246Z" fill="#3F3D56"/>
<path d="M82.4007 250.224L82.1424 254.427H43.2036L42.9453 250.224H82.4007Z" fill="#9D9CB5"/>
<path d="M82.0343 256.18L81.776 260.388H43.576L43.3125 256.18H82.0343Z" fill="#9D9CB5"/>
<path d="M81.6624 262.141L81.4041 266.344H43.9481L43.6846 262.141H81.6624Z" fill="#9D9CB5"/>
<path d="M38.4663 206.107C55.5566 218.479 62.6758 237.836 62.6758 237.836C62.6758 237.836 42.0776 237.128 24.9615 224.756C7.84535 212.384 0.751953 193.027 0.751953 193.027C0.751953 193.027 21.3708 193.735 38.4663 206.107Z" fill="#3964FC"/>
<path d="M0.777832 193.027C0.777832 193.027 22.1562 204.918 29.0119 214.741C35.8677 224.564 62.6759 237.841 62.6759 237.841" stroke="#535461" stroke-width="2" stroke-miterlimit="10"/>
<path d="M49.4962 181.203C58.7957 187.924 62.6756 198.471 62.6756 198.471C62.6756 198.471 51.4646 198.088 42.16 191.352C32.8554 184.615 28.9858 174.084 28.9858 174.084C28.9858 174.084 40.1968 174.44 49.4962 181.203Z" fill="#3964FC"/>
<path d="M28.9858 174.058C28.9858 174.058 40.6205 180.52 44.3506 185.871C48.0807 191.222 62.6756 198.445 62.6756 198.445" stroke="#535461" stroke-width="2" stroke-miterlimit="10"/>
<path d="M76.1964 197.913C65.5072 209.664 63.2495 225.019 63.2495 225.019C63.2495 225.019 78.3146 221.323 88.9986 209.571C99.6826 197.819 101.945 182.459 101.945 182.459C101.945 182.459 86.8804 186.156 76.1964 197.913Z" fill="#3964FC"/>
<path d="M101.945 182.459C101.945 182.459 88.0273 194.505 84.4884 202.809C80.9494 211.112 63.2495 225.04 63.2495 225.04" stroke="#535461" stroke-width="2" stroke-miterlimit="10"/>
<defs>
<linearGradient id="paint0_linear" x1="306.011" y1="301.915" x2="306.011" y2="23.593" gradientUnits="userSpaceOnUse">
<stop stop-color="#808080" stop-opacity="0.25"/>
<stop offset="0.54" stop-color="#808080" stop-opacity="0.12"/>
<stop offset="1" stop-color="#808080" stop-opacity="0.1"/>
</linearGradient>
<linearGradient id="paint1_linear" x1="119791" y1="315033" x2="119791" y2="106633" gradientUnits="userSpaceOnUse">
<stop stop-color="#808080" stop-opacity="0.25"/>
<stop offset="0.54" stop-color="#808080" stop-opacity="0.12"/>
<stop offset="1" stop-color="#808080" stop-opacity="0.1"/>
</linearGradient>
</defs>
</svg>
