<svg width="466" height="447" viewBox="0 0 466 447" fill="none" xmlns="http://www.w3.org/2000/svg">
<path d="M203.625 121.832H201.384V60.437C201.384 55.7707 200.465 51.15 198.679 46.8388C196.893 42.5276 194.276 38.6103 190.976 35.3107C187.677 32.0111 183.759 29.3936 179.448 27.6079C175.137 25.8221 170.516 24.903 165.85 24.903H35.7753C31.1089 24.903 26.4882 25.8221 22.177 27.6078C17.8658 29.3936 13.9486 32.011 10.6489 35.3106C7.34928 38.6103 4.73186 42.5275 2.9461 46.8387C1.16034 51.1498 0.241221 55.7705 0.241211 60.4369V397.257C0.241204 406.681 3.98494 415.719 10.6489 422.383C17.3128 429.047 26.351 432.791 35.7752 432.791H165.85C175.274 432.791 184.312 429.047 190.976 422.383C197.64 415.72 201.384 406.681 201.384 397.257V165.535H203.625L203.625 121.832Z" fill="#3F3D56"/>
<path d="M193.822 60.685V397.009C193.821 404.048 191.025 410.797 186.049 415.774C181.072 420.751 174.322 423.547 167.284 423.547H36.5799C33.0952 423.547 29.6447 422.86 26.4254 421.526C23.2061 420.193 20.2811 418.238 17.8173 415.774C15.3535 413.309 13.3993 410.384 12.0662 407.164C10.7331 403.945 10.0473 400.494 10.0479 397.009V60.685C10.0473 57.2003 10.7331 53.7497 12.0662 50.5301C13.3993 47.3105 15.3535 44.385 17.8173 41.9208C20.2811 39.4565 23.2061 37.5016 26.4254 36.1679C29.6447 34.8341 33.0952 34.1475 36.5799 34.1473H52.4408C51.6587 36.0617 51.3598 38.1391 51.5703 40.1964C51.7808 42.2536 52.4944 44.2274 53.648 45.9437C54.8016 47.6599 56.3598 49.066 58.1852 50.0378C60.0106 51.0095 62.0471 51.5172 64.1151 51.5159H138.633C140.701 51.517 142.737 51.0091 144.562 50.0372C146.388 49.0652 147.945 47.659 149.098 45.9427C150.252 44.2263 150.965 42.2525 151.174 40.1954C151.384 38.1384 151.085 36.0612 150.302 34.1473H167.284C174.322 34.1475 181.072 36.9434 186.049 41.9202C191.025 46.8969 193.821 53.6468 193.822 60.685Z" fill="white"/>
<path d="M69.1262 124.487C88.3172 124.487 103.875 108.93 103.875 89.739C103.875 70.548 88.3172 54.9907 69.1262 54.9907C49.9353 54.9907 34.3779 70.548 34.3779 89.739C34.3779 108.93 49.9353 124.487 69.1262 124.487Z" fill="#FF6584"/>
<path d="M157.027 256.245C159.577 230.389 151.371 208.416 138.699 207.167C126.027 205.917 113.688 225.865 111.138 251.72C108.589 277.576 116.795 299.549 129.467 300.799C142.139 302.048 154.478 282.101 157.027 256.245Z" fill="#3F3D56"/>
<path d="M128.647 330.822C124.894 274.78 139.407 220.741 139.554 220.202L141.312 220.681C141.166 221.218 126.733 274.973 130.465 330.701L128.647 330.822Z" fill="#3964FC"/>
<path d="M155.276 245.907L133.434 254.96L134.131 256.643L155.973 247.591L155.276 245.907Z" fill="#3964FC"/>
<path d="M112.938 247.348L111.925 248.862L131.576 262.012L132.589 260.498L112.938 247.348Z" fill="#3964FC"/>
<path d="M130.95 180.771C135.936 130.2 119.886 87.2231 95.1012 84.7794C70.3164 82.3357 46.1823 121.351 41.1962 171.921C36.21 222.492 52.26 265.469 77.0447 267.913C101.83 270.357 125.964 231.342 130.95 180.771Z" fill="#E1E5EF"/>
<path d="M76.3083 326.577C68.9771 217.111 97.3256 111.559 97.6127 110.506L99.3704 110.985C99.084 112.035 70.8162 217.304 78.126 326.456L76.3083 326.577Z" fill="#3F3D56"/>
<path d="M127.859 161.356L85.1367 179.061L85.8343 180.745L128.556 163.039L127.859 161.356Z" fill="#3F3D56"/>
<path d="M44.2311 164.09L43.2178 165.604L81.6522 191.323L82.6655 189.808L44.2311 164.09Z" fill="#3F3D56"/>
<path d="M259.204 137.769C266.027 68.5665 244.064 9.75606 210.148 6.41205C176.232 3.06803 143.207 56.4567 136.384 125.659C129.561 194.861 151.524 253.672 185.44 257.016C219.356 260.36 252.381 206.971 259.204 137.769Z" fill="#3964FC"/>
<path d="M184.767 337.271C174.739 187.531 213.517 43.1456 213.91 41.7048L215.667 42.1839C215.275 43.622 176.578 187.723 186.585 337.149L184.767 337.271Z" fill="#3F3D56"/>
<path d="M255.102 111.511L196.641 135.739L197.338 137.423L255.8 113.194L255.102 111.511Z" fill="#3F3D56"/>
<path d="M140.349 115.222L139.336 116.736L191.931 151.929L192.944 150.414L140.349 115.222Z" fill="#3F3D56"/>
<path d="M10.0486 335.386L8.92773 398.439C8.92773 413.358 21.9247 425.452 36.5807 425.452H167.285C181.941 425.452 194.943 413.358 194.943 398.439L193.822 335.94C127.929 310.398 66.9972 312 10.0486 335.386Z" fill="#3964FC"/>
<path d="M288.884 116.155L295.842 110.591C290.437 109.995 288.216 112.942 287.307 115.275C283.085 113.522 278.488 115.82 278.488 115.82L292.408 120.873C291.706 118.998 290.484 117.361 288.884 116.155Z" fill="#3F3D56"/>
<path d="M118.839 67.0314L125.797 61.467C120.392 60.8707 118.171 63.8183 117.262 66.1514C113.04 64.3981 108.443 66.6959 108.443 66.6959L122.363 71.7494C121.661 69.8737 120.439 68.2371 118.839 67.0314Z" fill="#3F3D56"/>
<path d="M396.201 45.1146L403.158 39.5502C397.753 38.9539 395.533 41.9015 394.624 44.2346C390.401 42.4813 385.805 44.7791 385.805 44.7791L399.725 49.8326C399.023 47.9569 397.8 46.3203 396.201 45.1146Z" fill="#3F3D56"/>
<path d="M365.431 279.771L365.28 291.853C365.265 293.019 364.992 294.167 364.48 295.215C363.968 296.263 363.23 297.184 362.319 297.912C361.409 298.641 360.348 299.158 359.213 299.427C358.078 299.696 356.898 299.71 355.757 299.467C354.588 299.219 353.49 298.708 352.548 297.973C351.605 297.239 350.842 296.299 350.315 295.226C349.789 294.153 349.514 292.975 349.51 291.78C349.506 290.585 349.774 289.404 350.293 288.328L354.331 279.959L362.701 219.222L359.488 178.636L375.202 177.883L378.544 224.307L365.431 279.771Z" fill="#FFB9B9"/>
<path d="M288.438 343.96L273.33 425.311L280.884 424.148L308.776 342.217L288.438 343.96Z" fill="#FFB9B9"/>
<path d="M360.781 344.831L370.369 428.216L378.504 427.054L380.538 344.25L360.781 344.831Z" fill="#FFB9B9"/>
<path d="M446.781 320.426C425.121 337.827 399.76 363.383 374.509 353.863C348.159 343.927 317.749 343.299 283.498 347.737C291.678 296.425 301.78 247.876 314.876 203.63L358.457 210.603C359.131 211.347 357.504 215.377 358.166 216.123C370.417 229.919 382.912 240.612 390.462 254.821C401.587 275.969 416.643 294.8 434.822 310.308L446.781 320.426Z" fill="#3964FC"/>
<path opacity="0.5" d="M465.084 329.433C443.425 347.325 398.016 377.196 372.765 367.406C346.415 357.19 315.133 357.991 280.883 362.554C282.508 352.072 284.242 341.656 286.084 331.307C293.507 289.613 428.823 304.258 447.071 320.136L465.084 329.433Z" fill="#3964FC"/>
<path d="M377.862 180.484C369.714 178.102 361.407 179.285 352.99 182.944L356.039 160.032C355.73 157.508 356.437 154.965 358.003 152.962C359.569 150.958 361.867 149.659 364.391 149.35C366.915 149.041 369.458 149.748 371.461 151.314C373.465 152.88 374.764 155.178 375.073 157.702L377.862 180.484Z" fill="#2F2E41"/>
<path d="M340.735 132.448C349.721 132.448 357.005 125.163 357.005 116.178C357.005 107.192 349.721 99.9075 340.735 99.9075C331.749 99.9075 324.465 107.192 324.465 116.178C324.465 125.163 331.749 132.448 340.735 132.448Z" fill="#FFB9B9"/>
<path d="M370.951 161.502L335.215 153.076C340.52 145.45 339.434 136.51 335.215 126.928L352.647 123.441C354.577 130.055 356.917 136.108 360.201 140.874L370.951 161.502Z" fill="#FFB9B9"/>
<path d="M358.459 212.927L314.297 206.535L315.765 198.265C315.069 176.718 318.62 159.081 325.337 144.36L364.269 146.684C369.264 150.68 372.793 156.217 374.307 162.431C375.82 168.645 375.233 175.186 372.635 181.03L359.04 207.697L358.459 212.927Z" fill="#2F2E41"/>
<path d="M281.909 446.292C279.871 447.222 278.164 439.687 276.445 441.376C271.636 446.101 264.273 447.13 257.855 445.067L260.102 445.042C259.714 444.917 259.356 444.716 259.049 444.449C258.742 444.182 258.493 443.855 258.316 443.489C258.139 443.123 258.038 442.725 258.019 442.318C258 441.912 258.064 441.506 258.207 441.125C258.378 440.669 258.657 440.262 259.02 439.938C259.384 439.613 259.82 439.382 260.292 439.264L265.406 437.986L273.435 423.866L282.185 422.758L282.406 423.12C284.098 425.846 285.189 428.902 285.606 432.083C286.023 435.265 285.756 438.498 284.824 441.568C284.096 443.9 283.106 445.745 281.909 446.292Z" fill="#2F2E41"/>
<path d="M378.367 446.292C376.33 447.222 374.623 439.687 372.904 441.376C368.095 446.101 360.732 447.13 354.314 445.067L356.561 445.042C356.173 444.917 355.815 444.716 355.508 444.449C355.201 444.182 354.952 443.855 354.775 443.489C354.598 443.123 354.497 442.725 354.478 442.318C354.459 441.912 354.523 441.506 354.666 441.125C354.837 440.669 355.116 440.262 355.479 439.938C355.843 439.613 356.279 439.382 356.751 439.264L361.865 437.986L369.894 423.866L378.644 422.758L378.865 423.12C380.557 425.846 381.648 428.902 382.065 432.083C382.481 435.265 382.215 438.498 381.283 441.568C380.555 443.9 379.565 445.745 378.367 446.292Z" fill="#2F2E41"/>
<path d="M360.987 184.745H360.57C352.713 177.936 345.885 170.304 351.399 160.749C346.722 148.879 341.508 136.552 341.824 128.926C342.154 123.288 340.339 117.734 336.743 113.378C331.774 107.573 330.668 104.981 321.592 107.176C321.559 104.845 322.001 102.532 322.89 100.377C323.78 98.2219 325.098 96.2702 326.764 94.6404C328.431 93.0106 330.412 91.7367 332.586 90.896C334.761 90.0554 337.083 89.6656 339.413 89.7503L345.084 89.9565C349.421 90.1143 363.285 91.8875 366.261 94.7501C367.77 96.2502 368.912 98.0787 369.598 100.093C370.284 102.107 370.495 104.253 370.215 106.362C369.658 111.095 371.152 115.274 375.141 118.778C382.779 126.676 385.929 134.871 381.599 143.561C378.33 152.761 378.486 160.334 386.917 163.974C389.656 174.483 371.847 184.745 360.987 184.745Z" fill="#2F2E41"/>
<path d="M276.98 235.297C279.234 233.212 277.613 227.794 273.359 223.195C269.106 218.597 263.831 216.558 261.577 218.643C259.323 220.728 260.944 226.146 265.198 230.744C269.451 235.343 274.726 237.381 276.98 235.297Z" fill="#3F3D56"/>
<path d="M291.864 199.526C300.87 199.526 308.171 192.225 308.171 183.219C308.171 174.212 300.87 166.911 291.864 166.911C282.858 166.911 275.557 174.212 275.557 183.219C275.557 192.225 282.858 199.526 291.864 199.526Z" fill="#3964FC"/>
<path d="M319.248 287.133C311.936 283.82 305.124 279.498 299.011 274.293C286.67 263.623 277.709 248.311 277.042 231.762C276.402 215.88 283.132 200.949 290.251 187.148C291.147 185.412 292.051 183.68 292.966 181.954C293.313 181.295 294.391 181.737 294.042 182.401C286.656 196.416 278.908 211.227 278.207 227.389C277.468 244.424 285.791 260.662 298.176 271.995C304.565 277.746 311.802 282.479 319.631 286.027" fill="#3F3D56"/>
<path d="M285.639 182.774L284.883 182.948L287.338 193.578L288.095 193.404L285.639 182.774Z" fill="#3F3D56"/>
<path d="M296.847 269.553C299.893 269.172 301.732 263.824 300.954 257.608C300.176 251.393 297.076 246.663 294.029 247.044C290.983 247.426 289.144 252.774 289.923 258.989C290.701 265.205 293.801 269.935 296.847 269.553Z" fill="#3F3D56"/>
<path d="M314.876 268.129L313.258 280.103C313.102 281.259 312.691 282.366 312.056 283.344C311.42 284.322 310.576 285.146 309.583 285.759C308.591 286.371 307.475 286.755 306.316 286.884C305.157 287.013 303.983 286.883 302.88 286.504C301.75 286.116 300.723 285.475 299.877 284.632C299.03 283.788 298.387 282.763 297.995 281.634C297.603 280.505 297.473 279.301 297.614 278.114C297.755 276.928 298.165 275.789 298.811 274.783L303.836 266.967L319.525 207.697L321.268 167.022L336.957 168.184L334.633 214.67L314.876 268.129Z" fill="#FFB9B9"/>
<path d="M338.992 175.738C331.194 172.383 322.805 172.548 314.006 175.157L319.817 152.785C319.817 150.243 320.827 147.804 322.625 146.006C324.423 144.208 326.862 143.198 329.404 143.198C331.947 143.198 334.386 144.208 336.184 146.006C337.982 147.804 338.992 150.243 338.992 152.785V175.738Z" fill="#2F2E41"/>
</svg>
