<svg width="180" height="120" viewBox="0 0 180 120" fill="none" xmlns="http://www.w3.org/2000/svg">
<g clip-path="url(#clip0)">
<path d="M131.646 119.074C126.702 118.3 121.948 117.642 117.384 117.099L119.142 113.584C118.532 113.381 115.889 115.414 115.889 115.414L118.125 105.248C115.075 105.655 113.652 116.024 113.652 116.024L110.196 112.568L111.897 116.481C97.9325 115.014 85.8824 114.556 75.7531 114.661L77.2571 111.653C76.6472 111.449 74.004 113.483 74.004 113.483L76.2405 103.316C73.1907 103.723 71.7674 114.092 71.7674 114.092L68.3109 110.636L70.113 114.781C63.1745 114.983 56.2509 115.54 49.3695 116.451C50.8703 111.776 56.1115 107.281 56.1115 107.281C52.0815 108.535 49.9849 110.578 48.8998 112.471C48.6803 102.865 50.158 93.296 53.265 84.204C53.265 84.204 45.132 102.503 46.352 114.702L46.5068 116.869C39.4312 117.973 35.8808 119.074 35.8808 119.074H131.646Z" fill="#3F3D56"/>
<path d="M150.285 93.8894C149.803 93.8894 149.331 93.7463 148.93 93.4782C148.528 93.2101 148.216 92.8291 148.031 92.3832C147.846 91.9374 147.798 91.4468 147.892 90.9735C147.986 90.5002 148.219 90.0655 148.56 89.7243C148.901 89.3831 149.336 89.1507 149.809 89.0565C150.283 88.9624 150.773 89.0107 151.219 89.1954C151.665 89.38 152.046 89.6928 152.314 90.094C152.582 90.4952 152.725 90.967 152.725 91.4495C152.724 92.0964 152.467 92.7166 152.01 93.174C151.552 93.6314 150.932 93.8887 150.285 93.8894ZM150.285 89.4163C149.883 89.4163 149.49 89.5355 149.156 89.759C148.821 89.9824 148.561 90.2999 148.407 90.6715C148.253 91.043 148.213 91.4518 148.291 91.8462C148.37 92.2406 148.563 92.6029 148.848 92.8873C149.132 93.1716 149.494 93.3653 149.889 93.4437C150.283 93.5222 150.692 93.4819 151.063 93.328C151.435 93.1741 151.752 92.9135 151.976 92.5791C152.199 92.2448 152.318 91.8517 152.318 91.4495C152.318 90.9105 152.103 90.3937 151.722 90.0125C151.341 89.6313 150.824 89.4169 150.285 89.4163Z" fill="#3F3D56"/>
<path d="M169.769 118.754H165.755V114.74H169.769V118.754ZM166.064 118.445H169.46V115.049H166.064V118.445Z" fill="#3F3D56"/>
<path d="M33.8768 118.973L31.1391 116.038L34.0743 113.3L36.8121 116.236L33.8768 118.973ZM31.5754 116.053L33.892 118.537L36.3757 116.22L34.0591 113.737L31.5754 116.053Z" fill="#3F3D56"/>
<path d="M179.732 118.527H5.3157V118.934H179.732V118.527Z" fill="#3F3D56"/>
<path d="M113.444 28.0683V41.4226C113.443 41.5459 113.394 41.6642 113.307 41.7514C113.22 41.8387 113.101 41.8878 112.978 41.8882H112.647V111.455C112.646 113.38 111.882 115.227 110.52 116.588C109.159 117.949 107.313 118.714 105.388 118.714H61.9195C60.9664 118.714 60.0226 118.526 59.1421 118.161C58.2616 117.796 57.4616 117.262 56.7877 116.588C56.1139 115.914 55.5794 115.113 55.2148 114.233C54.8502 113.352 54.6627 112.408 54.6628 111.455V44.328H54.4229C54.3359 44.3282 54.2523 44.2938 54.1906 44.2324C54.1288 44.1711 54.0939 44.0877 54.0935 44.0007V36.4005C54.0935 36.3572 54.102 36.3144 54.1186 36.2744C54.1351 36.2344 54.1594 36.1981 54.19 36.1675C54.2206 36.137 54.2569 36.1127 54.2969 36.0961C54.3368 36.0796 54.3797 36.0711 54.4229 36.0711H54.6628V33.2083H54.4209C54.3295 33.2079 54.242 33.1713 54.1776 33.1065C54.1132 33.0417 54.0771 32.954 54.0773 32.8626V25.3661C54.0775 25.2751 54.1138 25.1878 54.1782 25.1234C54.2426 25.059 54.3298 25.0227 54.4209 25.0225H54.6628V21.1146H54.4168C54.3767 21.1147 54.3371 21.1068 54.3 21.0915C54.263 21.0762 54.2294 21.0538 54.201 21.0254C54.1727 20.9971 54.1502 20.9634 54.1349 20.9264C54.1196 20.8894 54.1118 20.8497 54.1118 20.8096V16.7188C54.1116 16.6376 54.1437 16.5598 54.2008 16.5022C54.258 16.4446 54.3357 16.4121 54.4168 16.4118H54.6628V8.12837C54.6629 6.20382 55.4275 4.35812 56.7883 2.99725C58.1492 1.63639 59.9949 0.871835 61.9195 0.871765H105.388C107.313 0.871756 109.159 1.63622 110.52 2.99704C111.881 4.35786 112.646 6.20361 112.647 8.12837V27.6027H112.978C113.101 27.603 113.22 27.6522 113.307 27.7394C113.394 27.8267 113.443 27.9449 113.444 28.0683Z" fill="#3F3D56"/>
<path d="M85.7479 4.59396H78.6846C78.3991 4.59396 78.1677 4.82535 78.1677 5.11079V5.7213C78.1677 6.00673 78.3991 6.23812 78.6846 6.23812H85.7479C86.0334 6.23812 86.2648 6.00673 86.2648 5.7213V5.11079C86.2648 4.82535 86.0334 4.59396 85.7479 4.59396Z" fill="#E6E8EC"/>
<path d="M88.4216 6.34861C88.9367 6.34861 89.3542 5.93108 89.3542 5.41603C89.3542 4.90099 88.9367 4.48346 88.4216 4.48346C87.9066 4.48346 87.489 4.90099 87.489 5.41603C87.489 5.93108 87.9066 6.34861 88.4216 6.34861Z" fill="#E6E8EC"/>
<path d="M109.171 9.56395V112.057C109.171 112.724 109.027 113.382 108.748 113.987C108.468 114.592 108.06 115.129 107.552 115.56C106.719 116.271 105.66 116.661 104.565 116.66H62.9554C62.215 116.662 61.4854 116.484 60.8286 116.142C60.6743 116.063 60.5249 115.975 60.3813 115.878C59.7559 115.456 59.2437 114.887 58.8895 114.221C58.5354 113.555 58.3501 112.812 58.3501 112.057V9.56395C58.3501 8.95917 58.4692 8.36031 58.7006 7.80156C58.932 7.24281 59.2712 6.73512 59.6989 6.30747C60.1265 5.87983 60.6342 5.5406 61.193 5.30918C61.7517 5.07775 62.3506 4.95865 62.9554 4.95868H69.1832V5.75774C69.1832 6.76343 69.5827 7.72793 70.2938 8.43907C71.005 9.1502 71.9695 9.54971 72.9751 9.54972H94.137C95.1427 9.54971 96.1072 9.1502 96.8184 8.43907C97.5295 7.72794 97.929 6.76343 97.929 5.75774V4.95868H104.565C105.17 4.95848 105.769 5.07747 106.328 5.30883C106.887 5.5402 107.395 5.87941 107.822 6.30709C108.25 6.73477 108.589 7.24253 108.821 7.80136C109.052 8.36018 109.171 8.95912 109.171 9.56395Z" fill="#3964FC"/>
<path opacity="0.3" d="M109.171 97.3854V112.057C109.171 112.724 109.027 113.382 108.748 113.987C108.468 114.592 108.06 115.129 107.552 115.56C106.719 116.271 105.66 116.661 104.565 116.66H62.9554C62.215 116.662 61.4854 116.484 60.8286 116.142C60.6743 116.063 60.5249 115.975 60.3813 115.878C59.7559 115.456 59.2437 114.887 58.8895 114.221C58.5354 113.554 58.3501 112.812 58.3501 112.057V97.3915C65.3274 91.1196 74.3774 87.6494 83.7593 87.6483C93.1411 87.6471 102.192 91.1152 109.171 97.3854Z" fill="white"/>
<path opacity="0.3" d="M106.696 116.138C106.039 116.483 105.308 116.662 104.565 116.66H62.9554C62.215 116.662 61.4854 116.484 60.8286 116.142C62.7123 111.612 65.8957 107.74 69.9769 105.017C74.0582 102.294 78.8547 100.84 83.7611 100.84C88.6676 100.839 93.4643 102.292 97.546 105.015C101.628 107.737 104.812 111.608 106.696 116.138Z" fill="white"/>
<path opacity="0.3" d="M97.6403 116.384C97.2426 116.593 96.8 116.701 96.3509 116.7H71.1716C70.7236 116.701 70.282 116.593 69.8846 116.386C71.0245 113.645 72.9508 111.302 75.4205 109.654C77.8902 108.006 80.7926 107.127 83.7616 107.127C86.7306 107.126 89.6332 108.005 92.1032 109.653C94.5732 111.3 96.4999 113.643 97.6403 116.384Z" fill="white"/>
<path d="M94.3456 44.6372C90.1716 44.6372 85.5909 43.8424 82.0149 41.1603C77.036 37.4263 70.9019 37.6255 66.6328 38.4504C63.7971 39.0029 61.0447 39.9197 58.444 41.178L58.256 40.8174C60.8884 39.5428 63.6745 38.6137 66.545 38.0532C70.898 37.2107 77.1578 37.0094 82.2589 40.8351C91.815 48.0021 108.926 41.5651 109.098 41.4995L109.244 41.8791C106.035 43.0229 102.716 43.8308 99.3405 44.2899C97.685 44.5158 96.0164 44.6318 94.3456 44.6372Z" fill="white"/>
<path opacity="0.3" d="M58.3481 40.9978C58.3481 40.9978 72.3774 37.5998 82.1369 42.2522C91.8964 46.9047 109.179 42.2177 109.179 42.2177" fill="white"/>
<path opacity="0.3" d="M71.5928 46.2762C69.898 46.2686 68.2078 46.0998 66.545 45.7721C63.6745 45.2117 60.8884 44.2826 58.256 43.0079L58.444 42.6473C61.0447 43.9056 63.7971 44.8224 66.6328 45.3749C70.9017 46.1997 77.0359 46.3991 82.0149 42.665C87.1115 38.8426 94.2503 38.8533 99.3405 39.5354C102.716 39.9946 106.035 40.8025 109.244 41.9462L109.098 42.3259C108.926 42.26 91.8152 35.8229 82.2589 42.9902C78.9138 45.4991 75.07 46.2762 71.5928 46.2762Z" fill="white"/>
<path opacity="0.3" d="M71.6619 44.6389C64.6199 44.6389 58.3664 42.1125 58.2726 42.0739L58.4275 41.6978C58.5667 41.7552 72.4748 47.3705 82.0333 41.711C91.7572 35.9529 109.056 41.0926 109.23 41.1453L109.112 41.5344C108.94 41.4824 91.8104 36.3942 82.2404 42.0608C78.9746 43.9947 75.2175 44.6389 71.6619 44.6389Z" fill="white"/>
<path opacity="0.3" d="M58.3501 41.5732C58.3501 41.5732 72.3774 46.2256 82.1369 41.5732C91.8964 36.9207 109.171 41.1336 109.171 41.1336" fill="white"/>
<path d="M112.792 54.0205V59.9479C112.792 59.9479 113.266 66.5867 115.874 69.906C115.874 69.906 120.142 75.952 120.735 74.648L120.004 70.3548L117.534 68.0092L116.23 60.6592L115.874 54.0205H112.792Z" fill="#FFB8B8"/>
<path d="M138.991 107.605V111.991L135.435 113.295V108.197L138.991 107.605Z" fill="#FFB8B8"/>
<path d="M131.76 107.13L134.131 112.465L130.811 113.888L130.1 108.672L131.76 107.13Z" fill="#FFB8B8"/>
<path d="M137.687 66.231C137.687 66.231 142.429 109.027 140.651 109.146C138.873 109.264 135.435 111.517 135.435 109.976C135.435 108.434 132.708 88.3997 132.708 88.3997L130.1 78.0859V92.3118L132.827 108.434C132.827 108.434 130.218 111.872 128.322 109.857L124.291 94.09C124.291 94.09 118.956 70.1431 119.193 68.2463C119.193 68.2463 131.404 57.814 137.687 66.231Z" fill="#2F2E41"/>
<path d="M136.739 112.228C136.739 112.228 137.687 110.213 139.821 111.517L141.599 113.651C141.599 113.651 146.184 117.447 142.931 118.261C139.577 119.099 137.568 118.207 137.568 118.207C137.568 118.207 136.976 117.851 136.502 117.851C136.027 117.851 134.96 117.022 134.96 116.785C134.96 116.547 135.316 112.347 135.316 112.347C135.45 112.281 135.601 112.257 135.749 112.279C135.897 112.3 136.035 112.365 136.146 112.465C136.502 112.821 136.739 112.228 136.739 112.228Z" fill="#2F2E41"/>
<path d="M129.744 111.517C129.744 111.517 131.997 109.738 133.064 111.754C133.064 111.754 133.735 111.991 133.814 111.754C133.893 111.517 134.486 111.398 134.486 112.702C134.486 114.006 135.13 117.259 134.537 117.377C133.944 117.496 133.352 117.851 133.47 118.326C133.589 118.8 132.827 118.867 130.1 118.748C127.373 118.63 127.255 117.563 127.255 117.563C127.255 117.563 127.255 116.022 127.966 115.192C128.677 114.362 129.744 111.517 129.744 111.517Z" fill="#2F2E41"/>
<path d="M125.358 33.8672C125.358 33.8672 124.765 38.2535 128.559 39.7946C132.352 41.3358 120.142 46.4334 118.956 43.4696C117.771 40.5059 119.193 39.5575 119.193 39.5575C119.193 39.5575 120.379 38.372 119.312 35.1712L125.358 33.8672Z" fill="#FFB8B8"/>
<path d="M121.564 36.9494C124.445 36.9494 126.781 34.6141 126.781 31.7333C126.781 28.8525 124.445 26.5171 121.564 26.5171C118.684 26.5171 116.348 28.8525 116.348 31.7333C116.348 34.6141 118.684 36.9494 121.564 36.9494Z" fill="#FFB8B8"/>
<path d="M127.61 41.2172C127.61 41.2172 124.054 43.114 120.616 41.6914C117.178 40.2688 117.297 46.4334 117.297 46.4334L119.075 51.0568L131.404 49.8713L130.574 42.7583L127.61 41.2172Z" fill="#F2F2F2"/>
<path d="M125.843 37.1608C126.475 37.2948 127.068 37.5691 127.579 37.9635C128.09 38.3578 128.506 38.8621 128.796 39.439L134.486 41.2172L135.909 43.2325L134.249 57.814C134.249 57.814 137.331 60.7777 137.331 62.4374C137.331 64.0971 141.125 69.7875 139.228 69.0762C137.331 68.3649 133.893 65.8753 133.893 65.8753C133.893 65.8753 125.239 66.231 122.513 68.602C119.786 70.9729 118.719 70.2617 118.719 70.2617C118.719 70.2617 115.874 57.9326 115.755 56.0358C115.637 54.139 112.318 42.7583 112.318 42.7583L118.245 39.439L119.755 37.7259L123.935 44.418L127.729 39.7946C127.729 39.7946 125.855 38.3206 125.843 37.1608Z" fill="#3F3D56"/>
<path d="M137.687 52.3608L138.398 56.1543C138.398 56.1543 141.599 68.0092 141.125 72.0399C141.125 72.0399 141.481 81.0496 139.465 79.9827C137.45 78.9157 138.517 72.3955 138.517 72.3955L135.672 60.6592L134.131 53.7834L137.687 52.3608Z" fill="#FFB8B8"/>
<path d="M134.723 42.5212L135.909 43.2325C135.909 43.2325 140.414 52.5979 139.347 53.3092C138.28 54.0205 133.656 55.5616 133.656 55.5616L134.723 42.5212Z" fill="#3F3D56"/>
<path d="M115.163 42.7584L112.377 42.699L111.725 43.8252L112.555 55.3246L116.822 56.2729L115.163 42.7584Z" fill="#3F3D56"/>
<path d="M125.812 27.3218L126.752 26.9799C126.752 26.9799 124.786 25.0141 122.051 25.185L122.821 24.4158C122.821 24.4158 120.94 23.732 119.231 25.5269C118.332 26.4704 117.292 27.5795 116.644 28.8289H115.637L116.058 29.6693L114.587 30.5098L116.096 30.3588C115.953 31.0844 116.003 31.8348 116.239 32.5355L116.581 33.4757C116.581 33.4757 117.949 30.7406 117.949 30.3987V31.2534C117.949 31.2534 118.889 30.4842 118.889 29.9714L119.402 30.5697L119.658 29.6295L122.821 30.5697L122.308 29.8004L124.274 30.0569L123.504 29.1167C123.504 29.1167 125.727 30.2278 125.812 31.168C125.897 32.1082 126.484 33.3337 126.484 33.3337L127.195 32.5039C127.195 32.5039 128.291 28.6039 125.812 27.3218Z" fill="#2F2E41"/>
<path d="M125.951 32.8595C126.18 32.8595 126.366 32.3818 126.366 31.7926C126.366 31.2033 126.18 30.7256 125.951 30.7256C125.722 30.7256 125.536 31.2033 125.536 31.7926C125.536 32.3818 125.722 32.8595 125.951 32.8595Z" fill="#FFB8B8"/>
<path d="M9.37438 112.093C11.9014 116.779 17.2645 118.791 17.2645 118.791C17.2645 118.791 18.5307 113.205 16.0037 108.518C13.4767 103.832 8.11351 101.82 8.11351 101.82C8.11351 101.82 6.8474 107.407 9.37438 112.093Z" fill="#3F3D56"/>
<path d="M11.1113 110.551C15.6735 113.296 17.4306 118.748 17.4306 118.748C17.4306 118.748 11.7908 119.75 7.22853 117.005C2.66628 114.26 0.90921 108.808 0.90921 108.808C0.90921 108.808 6.54902 107.806 11.1113 110.551Z" fill="#3964FC"/>
<path opacity="0.3" d="M58.3501 40.9977C58.3501 40.9977 72.3774 33.6781 82.1369 40.9977C91.8964 48.3174 109.171 41.6893 109.171 41.6893" fill="white"/>
<path d="M83.8143 115.48C85.0495 115.48 86.0508 114.479 86.0508 113.244C86.0508 112.008 85.0495 111.007 83.8143 111.007C82.5791 111.007 81.5777 112.008 81.5777 113.244C81.5777 114.479 82.5791 115.48 83.8143 115.48Z" fill="white"/>
</g>
<defs>
<clipPath id="clip0">
<rect x="0.90921" y="0.871765" width="178.823" height="118.202" fill="white"/>
</clipPath>
</defs>
</svg>
