<svg width="249" height="177" viewBox="0 0 249 177" fill="none" xmlns="http://www.w3.org/2000/svg">
<g clip-path="url(#clip0)">
<path d="M213.189 43.9364C211.001 39.0094 208.132 34.5305 204.697 30.6772L86.8903 29.5397L183.884 16.1905C177.538 13.729 170.897 12.4382 164.205 12.3652C154.868 4.9758 142.867 0.533386 129.776 0.533386C118.031 0.533386 107.17 4.11059 98.3155 10.1802C90.7833 6.37462 82.2092 4.22478 73.0989 4.22478C46.9238 4.22478 25.1133 21.99 20.2201 45.5504L213.189 43.9364Z" fill="#F2F3F6"/>
<path d="M220.189 63.689C220.181 57.2333 218.894 50.8616 216.423 45.041L6.94857 66.0497C4.82273 69.712 3.17022 73.6983 2.04097 77.888L66.9088 87.1242L0.56189 93.8592C2.55797 120.529 26.4954 141.59 55.7369 141.59C70.4559 141.59 83.8298 136.252 93.7402 127.55C103.682 136.417 117.178 141.865 132.062 141.865C154.136 141.865 173.189 129.86 182.062 112.501C199.861 107.105 213.688 93.554 218.421 76.6056L136.387 64.4576H220.189C220.189 64.2051 220.189 63.9503 220.189 63.689Z" fill="#F2F3F6"/>
<path d="M62.7996 121.985C62.7996 121.985 52.6499 107.34 54.3737 93.5188C55.1327 87.7264 53.9923 81.8441 51.1237 76.7549C49.7433 74.3491 48.1453 72.0748 46.3497 69.9606" stroke="#535461" stroke-width="2" stroke-miterlimit="10"/>
<path d="M47.384 61.2449C48.0428 63.2323 46.3497 70.1912 46.3497 70.1912C46.3497 70.1912 40.8401 65.6171 40.1813 63.6275C39.8653 62.6724 39.9417 61.6309 40.3937 60.7321C40.8457 59.8333 41.6362 59.1508 42.5913 58.8349C43.5465 58.5189 44.588 58.5953 45.4868 59.0473C46.3856 59.4993 47.068 60.2898 47.384 61.2449Z" fill="#6C63FF"/>
<path d="M56.9803 70.2901C56.4533 72.3169 51.2511 77.238 51.2511 77.238C51.2511 77.238 49.1122 70.4042 49.6414 68.3774C49.7611 67.8892 49.9767 67.4297 50.2756 67.0255C50.5745 66.6214 50.9507 66.2807 51.3824 66.0232C51.8142 65.7658 52.2927 65.5967 52.7904 65.5259C53.288 65.4551 53.7948 65.4839 54.2812 65.6107C54.7676 65.7374 55.224 65.9596 55.6237 66.2643C56.0235 66.569 56.3587 66.9502 56.6099 67.3856C56.861 67.821 57.0231 68.302 57.0867 68.8006C57.1503 69.2992 57.1141 69.8055 56.9803 70.2901Z" fill="#6C63FF"/>
<path d="M62.9511 89.1994C61.4711 90.6838 54.4967 92.3045 54.4967 92.3045C54.4967 92.3045 56.1019 85.3257 57.571 83.8434C58.2813 83.1312 59.2454 82.7302 60.2513 82.7288C61.2571 82.7273 62.2224 83.1255 62.9347 83.8358C63.647 84.546 64.0479 85.5101 64.0494 86.516C64.0508 87.5219 63.6526 88.4871 62.9424 89.1994H62.9511Z" fill="#6C63FF"/>
<path d="M64.2445 104.534C63.0368 106.244 56.4357 109.022 56.4357 109.022C56.4357 109.022 56.8376 101.872 58.0454 100.162C58.6251 99.3395 59.5077 98.7815 60.499 98.6101C61.4903 98.4388 62.509 98.6683 63.331 99.2481C64.1531 99.8279 64.7112 100.71 64.8825 101.702C65.0538 102.693 64.8243 103.712 64.2445 104.534Z" fill="#6C63FF"/>
<path d="M43.8222 80.1257C45.7063 81.0392 52.8256 80.275 52.8256 80.275C52.8256 80.275 49.0134 74.2142 47.1161 73.2985C46.2164 72.9021 45.198 72.8706 44.2755 73.2107C43.353 73.5507 42.5987 74.2356 42.1715 75.1211C41.7443 76.0065 41.6776 77.0233 41.9856 77.9569C42.2935 78.8906 42.952 79.6682 43.8222 80.1257Z" fill="#6C63FF"/>
<path d="M45.5592 98.0294C47.6322 98.3368 54.1981 95.4777 54.1981 95.4777C54.1981 95.4777 48.7455 90.8332 46.6769 90.5258C46.1842 90.4525 45.6819 90.477 45.1987 90.5979C44.7155 90.7188 44.2608 90.9336 43.8606 91.2302C43.0524 91.8292 42.5153 92.7248 42.3674 93.7198C42.2194 94.7148 42.4728 95.7279 43.0718 96.5361C43.6708 97.3443 44.5663 97.8814 45.5614 98.0294H45.5592Z" fill="#6C63FF"/>
<path d="M49.6392 115.197C51.631 115.856 58.5856 114.143 58.5856 114.143C58.5856 114.143 53.996 108.653 51.9977 107.995C51.5245 107.839 51.0253 107.778 50.5286 107.816C50.0319 107.853 49.5475 107.988 49.1029 108.213C48.6584 108.438 48.2625 108.748 47.9378 109.126C47.6131 109.503 47.366 109.941 47.2105 110.415C47.0551 110.888 46.9944 111.387 47.0319 111.884C47.0694 112.38 47.2043 112.865 47.429 113.309C47.6538 113.754 47.9638 114.15 48.3415 114.474C48.7193 114.799 49.1572 115.046 49.6305 115.202L49.6392 115.197Z" fill="#6C63FF"/>
<path opacity="0.25" d="M47.384 61.2449C48.0428 63.2323 46.3497 70.1912 46.3497 70.1912C46.3497 70.1912 40.8401 65.6171 40.1813 63.6275C39.8653 62.6724 39.9417 61.6309 40.3937 60.7321C40.8457 59.8333 41.6362 59.1508 42.5913 58.8349C43.5465 58.5189 44.588 58.5953 45.4868 59.0473C46.3856 59.4993 47.068 60.2898 47.384 61.2449Z" fill="black"/>
<path opacity="0.25" d="M56.9803 70.2901C56.4533 72.3169 51.2511 77.238 51.2511 77.238C51.2511 77.238 49.1122 70.4042 49.6414 68.3774C49.7611 67.8892 49.9767 67.4297 50.2756 67.0255C50.5745 66.6214 50.9507 66.2807 51.3824 66.0232C51.8142 65.7658 52.2927 65.5967 52.7904 65.5259C53.288 65.4551 53.7948 65.4839 54.2812 65.6107C54.7676 65.7374 55.224 65.9596 55.6237 66.2643C56.0235 66.569 56.3587 66.9502 56.6099 67.3856C56.861 67.821 57.0231 68.302 57.0867 68.8006C57.1503 69.2992 57.1141 69.8055 56.9803 70.2901Z" fill="black"/>
<path opacity="0.25" d="M62.9511 89.1994C61.4711 90.6838 54.4967 92.3045 54.4967 92.3045C54.4967 92.3045 56.1019 85.3257 57.571 83.8434C58.2813 83.1312 59.2454 82.7302 60.2513 82.7288C61.2571 82.7273 62.2224 83.1255 62.9347 83.8358C63.647 84.546 64.0479 85.5101 64.0494 86.516C64.0508 87.5219 63.6526 88.4871 62.9424 89.1994H62.9511Z" fill="black"/>
<path opacity="0.25" d="M64.2445 104.534C63.0368 106.244 56.4357 109.022 56.4357 109.022C56.4357 109.022 56.8376 101.872 58.0454 100.162C58.6251 99.3395 59.5077 98.7815 60.499 98.6101C61.4903 98.4388 62.509 98.6683 63.331 99.2481C64.1531 99.8279 64.7112 100.71 64.8825 101.702C65.0538 102.693 64.8243 103.712 64.2445 104.534Z" fill="black"/>
<path opacity="0.25" d="M43.8222 80.1257C45.7063 81.0392 52.8256 80.275 52.8256 80.275C52.8256 80.275 49.0134 74.2142 47.1161 73.2985C46.2164 72.9021 45.198 72.8706 44.2755 73.2107C43.353 73.5507 42.5987 74.2356 42.1715 75.1211C41.7443 76.0065 41.6776 77.0233 41.9856 77.9569C42.2935 78.8906 42.952 79.6682 43.8222 80.1257Z" fill="black"/>
<path opacity="0.25" d="M45.5592 98.0294C47.6322 98.3368 54.1981 95.4777 54.1981 95.4777C54.1981 95.4777 48.7455 90.8332 46.6769 90.5258C46.1842 90.4525 45.6819 90.477 45.1987 90.5979C44.7155 90.7188 44.2608 90.9336 43.8606 91.2302C43.0524 91.8292 42.5153 92.7248 42.3674 93.7198C42.2194 94.7148 42.4728 95.7279 43.0718 96.5361C43.6708 97.3443 44.5663 97.8814 45.5614 98.0294H45.5592Z" fill="black"/>
<path opacity="0.25" d="M49.6392 115.197C51.631 115.856 58.5856 114.143 58.5856 114.143C58.5856 114.143 53.996 108.653 51.9977 107.995C51.5245 107.839 51.0253 107.778 50.5286 107.816C50.0319 107.853 49.5475 107.988 49.1029 108.213C48.6584 108.438 48.2625 108.748 47.9378 109.126C47.6131 109.503 47.366 109.941 47.2105 110.415C47.0551 110.888 46.9944 111.387 47.0319 111.884C47.0694 112.38 47.2043 112.865 47.429 113.309C47.6538 113.754 47.9638 114.15 48.3415 114.474C48.7193 114.799 49.1572 115.046 49.6305 115.202L49.6392 115.197Z" fill="black"/>
<path d="M62.7425 121.396C62.7425 121.396 47.5289 112.121 43.5016 98.7782C41.8475 93.176 38.4218 88.261 33.7384 84.7702C31.5016 83.1306 29.1193 81.6994 26.6213 80.4947" stroke="#535461" stroke-width="2" stroke-miterlimit="10"/>
<path d="M24.0344 72.1149C25.442 73.6652 26.7135 80.712 26.7135 80.712C26.7135 80.712 19.8248 78.762 18.4172 77.2117C17.7413 76.4668 17.389 75.4839 17.4378 74.4793C17.4866 73.4746 17.9325 72.5305 18.6774 71.8547C19.4223 71.1788 20.4052 70.8265 21.4098 70.8753C22.4145 70.9241 23.3586 71.37 24.0344 72.1149Z" fill="#3964FC"/>
<path d="M36.4745 76.4936C36.8127 78.5622 34.059 85.1699 34.059 85.1699C34.059 85.1699 29.3289 79.7876 28.9885 77.719C28.826 76.7263 29.0645 75.7097 29.6516 74.8928C30.2386 74.076 31.1261 73.5258 32.1188 73.3633C33.1116 73.2008 34.1282 73.4393 34.945 74.0264C35.7618 74.6134 36.312 75.5009 36.4745 76.4936Z" fill="#3964FC"/>
<path d="M49.5953 91.3581C48.8421 93.3147 43.1238 97.6231 43.1238 97.6231C43.1238 97.6231 41.7624 90.5961 42.5134 88.6373C42.8742 87.6981 43.5933 86.9408 44.5124 86.5319C45.4316 86.1229 46.4756 86.0959 47.4147 86.4567C48.3539 86.8175 49.1112 87.5366 49.5201 88.4557C49.9291 89.3749 49.9561 90.4189 49.5953 91.3581Z" fill="#3964FC"/>
<path d="M56.9979 104.848C56.5873 106.903 51.6771 112.116 51.6771 112.116C51.6771 112.116 49.1474 105.417 49.558 103.363C49.6555 102.875 49.8482 102.41 50.1252 101.996C50.4022 101.582 50.7581 101.227 51.1724 100.95C51.5868 100.674 52.0515 100.482 52.5401 100.385C53.0288 100.288 53.5317 100.288 54.0202 100.386C54.5087 100.483 54.9732 100.676 55.3873 100.953C55.8013 101.23 56.1567 101.586 56.4332 102C56.7097 102.414 56.9019 102.879 56.9988 103.368C57.0957 103.856 57.0954 104.359 56.9979 104.848Z" fill="#3964FC"/>
<path d="M28.4242 90.82C30.5191 90.8924 36.7183 87.3065 36.7183 87.3065C36.7183 87.3065 30.7782 83.3098 28.6833 83.233C28.1855 83.216 27.6893 83.2972 27.223 83.4719C26.7566 83.6467 26.3292 83.9116 25.9652 84.2515C25.6013 84.5914 25.3078 84.9997 25.1016 85.453C24.8954 85.9064 24.7805 86.3959 24.7635 86.8936C24.7465 87.3914 24.8277 87.8876 25.0024 88.3539C25.1772 88.8203 25.4421 89.2477 25.782 89.6117C26.1219 89.9756 26.5302 90.2691 26.9836 90.4753C27.4369 90.6815 27.9264 90.7964 28.4242 90.8134V90.82Z" fill="#3964FC"/>
<path d="M37.2717 106.482C39.2919 105.924 44.1362 100.649 44.1362 100.649C44.1362 100.649 37.2695 98.6047 35.258 99.1712C34.7731 99.2994 34.3184 99.5226 33.9203 99.8277C33.5222 100.133 33.1886 100.514 32.9388 100.949C32.689 101.384 32.528 101.864 32.4651 102.362C32.4021 102.859 32.4385 103.364 32.5721 103.848C32.7057 104.331 32.9339 104.783 33.2434 105.178C33.553 105.573 33.9377 105.902 34.3754 106.147C34.8131 106.392 35.295 106.548 35.7933 106.605C36.2916 106.663 36.7963 106.621 37.2783 106.482H37.2717Z" fill="#3964FC"/>
<path d="M47.9593 120.525C50.0455 120.305 55.7111 115.935 55.7111 115.935C55.7111 115.935 49.2879 112.769 47.2039 112.977C46.7084 113.027 46.2274 113.174 45.7885 113.409C45.3497 113.644 44.9615 113.964 44.6461 114.35C44.0092 115.128 43.7077 116.128 43.8079 117.129C43.8575 117.624 44.0042 118.105 44.2397 118.544C44.4752 118.983 44.7948 119.371 45.1803 119.686C45.9588 120.323 46.9585 120.625 47.9593 120.525Z" fill="#3964FC"/>
<path opacity="0.1" d="M124.789 164.066C146.498 164.066 164.097 163.022 164.097 161.734C164.097 160.446 146.498 159.402 124.789 159.402C103.08 159.402 85.4816 160.446 85.4816 161.734C85.4816 163.022 103.08 164.066 124.789 164.066Z" fill="#6C63FF"/>
<path opacity="0.1" d="M164.571 173.965C170.254 173.965 174.861 173.127 174.861 172.092C174.861 171.058 170.254 170.219 164.571 170.219C158.888 170.219 154.281 171.058 154.281 172.092C154.281 173.127 158.888 173.965 164.571 173.965Z" fill="#6C63FF"/>
<path d="M142.86 157.634V159.042H101.22V157.895C103.76 156.954 105.963 155.281 107.552 153.087C109.14 150.893 110.041 148.277 110.142 145.57C110.243 142.864 109.539 140.188 108.118 137.882C106.698 135.576 104.625 133.743 102.162 132.616H142.585C140.179 133.72 138.145 135.497 136.728 137.733C135.312 139.969 134.573 142.567 134.602 145.214C134.631 147.861 135.427 150.442 136.892 152.647C138.358 154.851 140.43 156.583 142.86 157.634Z" fill="#39374D"/>
<path opacity="0.1" d="M142.585 132.618C140.727 133.471 139.083 134.728 137.774 136.299C136.464 137.869 135.523 139.712 135.018 141.694H109.729C109.225 139.712 108.283 137.869 106.974 136.299C105.664 134.728 104.02 133.471 102.162 132.618H142.585Z" fill="black"/>
<path d="M53.5305 125.444V133.349C53.5305 137.715 56.7256 141.255 60.6673 141.255H183.202C187.143 141.255 190.338 137.715 190.338 133.349V125.444H53.5305Z" fill="#3F3D56"/>
<path opacity="0.1" d="M142.86 157.634V159.042H101.22V157.895C102.362 157.472 103.441 156.897 104.431 156.187H140.312C141.107 156.759 141.961 157.244 142.86 157.634Z" fill="black"/>
<path d="M154.544 156.626H89.5441C88.392 156.626 87.4579 157.56 87.4579 158.712C87.4579 159.864 88.392 160.798 89.5441 160.798H154.544C155.696 160.798 156.63 159.864 156.63 158.712C156.63 157.56 155.696 156.626 154.544 156.626Z" fill="#3F3D56"/>
<path d="M190.338 38.8132C190.338 36.9204 189.586 35.1051 188.248 33.7667C186.91 32.4283 185.094 31.6764 183.202 31.6764H60.6673C58.7745 31.6764 56.9592 32.4283 55.6208 33.7667C54.2824 35.1051 53.5305 36.9204 53.5305 38.8132V126.981H190.338V38.8132Z" fill="#3F3D56"/>
<path d="M183.092 38.4838H60.7771C58.8367 38.4838 57.2636 40.0569 57.2636 41.9974V117.758C57.2636 119.698 58.8367 121.271 60.7771 121.271H183.092C185.032 121.271 186.605 119.698 186.605 117.758V41.9974C186.605 40.0569 185.032 38.4838 183.092 38.4838Z" fill="#EDEDF4"/>
<path d="M121.934 36.7271C122.844 36.7271 123.581 35.9897 123.581 35.0801C123.581 34.1705 122.844 33.4332 121.934 33.4332C121.025 33.4332 120.287 34.1705 120.287 35.0801C120.287 35.9897 121.025 36.7271 121.934 36.7271Z" fill="white"/>
<path d="M121.934 137.741C124.178 137.741 125.997 135.922 125.997 133.678C125.997 131.435 124.178 129.616 121.934 129.616C119.691 129.616 117.872 131.435 117.872 133.678C117.872 135.922 119.691 137.741 121.934 137.741Z" fill="white"/>
<path d="M186.605 41.9974H57.2636C57.2636 41.0655 57.6338 40.1718 58.2927 39.5129C58.9516 38.854 59.8453 38.4838 60.7771 38.4838H183.092C184.024 38.4838 184.917 38.854 185.576 39.5129C186.235 40.1718 186.605 41.0655 186.605 41.9974Z" fill="#C8CAD7"/>
<path d="M60.7771 41.119C61.2622 41.119 61.6555 40.7257 61.6555 40.2406C61.6555 39.7555 61.2622 39.3622 60.7771 39.3622C60.292 39.3622 59.8987 39.7555 59.8987 40.2406C59.8987 40.7257 60.292 41.119 60.7771 41.119Z" fill="#EDEDF4"/>
<path d="M63.4123 41.119C63.8974 41.119 64.2907 40.7257 64.2907 40.2406C64.2907 39.7555 63.8974 39.3622 63.4123 39.3622C62.9272 39.3622 62.5339 39.7555 62.5339 40.2406C62.5339 40.7257 62.9272 41.119 63.4123 41.119Z" fill="#EDEDF4"/>
<path d="M66.0474 41.119C66.5326 41.119 66.9258 40.7257 66.9258 40.2406C66.9258 39.7555 66.5326 39.3622 66.0474 39.3622C65.5623 39.3622 65.1691 39.7555 65.1691 40.2406C65.1691 40.7257 65.5623 41.119 66.0474 41.119Z" fill="#EDEDF4"/>
<path d="M95.2536 44.9619H62.0947V46.9383H95.2536V44.9619Z" fill="#3964FC"/>
<path d="M95.2536 102.715H62.0947V104.692H95.2536V102.715Z" fill="#3964FC"/>
<path d="M123.581 107.107H62.0947V109.084H123.581V107.107Z" fill="#D7D9E5"/>
<path d="M123.581 109.964H62.0947V111.941H123.581V109.964Z" fill="#D7D9E5"/>
<path d="M123.581 112.819H62.0947V114.795H123.581V112.819Z" fill="#D7D9E5"/>
<path opacity="0.2" d="M123.142 50.2322H62.0947V83.3911H123.142V50.2322Z" fill="#818AA9"/>
<path opacity="0.2" d="M77.0272 86.4654H62.7535V99.6412H77.0272V86.4654Z" fill="#818AA9"/>
<path opacity="0.2" d="M123.142 86.4654H108.868V99.6412H123.142V86.4654Z" fill="#818AA9"/>
<path opacity="0.2" d="M99.7553 86.4654H85.4816V99.6412H99.7553V86.4654Z" fill="#818AA9"/>
<path d="M178.188 59.8768H136.173V90.8024H178.188V59.8768Z" fill="#D7D9E5"/>
<path d="M173.759 66.1529H140.6V68.1292H173.759V66.1529Z" fill="#EDEDF4"/>
<path d="M173.759 70.2527H140.6V72.2291H173.759V70.2527Z" fill="#EDEDF4"/>
<path d="M173.759 74.3526H140.6V76.3289H173.759V74.3526Z" fill="#EDEDF4"/>
<path d="M173.759 78.4502H140.6V80.4265H173.759V78.4502Z" fill="#EDEDF4"/>
<path d="M173.759 82.5501H140.6V84.5264H173.759V82.5501Z" fill="#EDEDF4"/>
<path d="M173.065 94.316H141.296V99.8783H173.065V94.316Z" fill="#3964FC"/>
<path d="M160.902 112.85H139.599V116.581H160.902V112.85Z" fill="#3964FC"/>
<path opacity="0.1" d="M57.3119 171.438C60.7805 171.438 63.5924 171.153 63.5924 170.801C63.5924 170.449 60.7805 170.164 57.3119 170.164C53.8433 170.164 51.0315 170.449 51.0315 170.801C51.0315 171.153 53.8433 171.438 57.3119 171.438Z" fill="#6C63FF"/>
<path opacity="0.1" d="M185.872 162.077C187.951 162.077 189.636 161.905 189.636 161.694C189.636 161.483 187.951 161.312 185.872 161.312C183.793 161.312 182.108 161.483 182.108 161.694C182.108 161.905 183.793 162.077 185.872 162.077Z" fill="#6C63FF"/>
<path d="M59.5057 160.311C59.5057 160.311 51.3148 164.543 55.553 169.534C55.553 169.534 55.9504 170.632 57.1033 170.54C57.1033 170.54 56.8727 170.12 57.7621 169.787C58.0721 169.664 58.3669 169.507 58.6405 169.317C59.0126 169.059 59.2909 168.688 59.4332 168.258C59.4332 168.258 61.1087 166.016 59.8109 161.868C59.8109 161.868 59.9778 160.695 59.8307 160.506L58.8249 161.848C58.8249 161.848 59.8548 162.538 59.9712 163.552C59.9712 163.552 58.8996 161.85 58.6668 162.044C58.6207 162.083 58.1727 162.79 58.1727 162.79C58.1727 162.79 59.9558 164 60.0898 165.57C60.0898 165.57 59.084 163.374 57.9992 163.056L57.3866 164.165C57.3866 164.165 59.3366 165.351 59.5562 167.134C59.5562 167.134 58.4253 164.872 57.2702 164.415L56.8134 165.586C56.8134 165.586 58.691 166.78 58.8645 168.265C58.8645 168.265 57.2943 165.783 56.7278 165.849C56.7278 165.849 56.3742 166.947 56.4204 167.288C56.4204 167.288 57.7489 168.166 57.7731 169.044C57.7731 169.044 56.5477 167.496 56.3589 167.599C56.3589 167.599 56.2798 169.154 56.6575 169.964C56.6575 169.964 56.0119 168.809 56.1151 167.599C55.7335 167.938 55.4601 168.382 55.329 168.875C55.329 168.875 54.9754 168.019 56.1393 167.233C56.1393 167.233 56.2491 166.023 56.383 165.873C56.383 165.873 55.1247 166.486 54.5911 167.241C54.5911 167.241 54.7866 166.117 56.4928 165.559L56.932 164.373C56.932 164.373 55.2279 165.096 54.7031 165.733C54.7031 165.733 55.0808 164.617 57.066 164.084L57.6545 162.986C57.6545 162.986 56.1393 163.495 55.4014 164.084C55.4014 164.084 55.9746 163.126 57.8367 162.685L58.3155 162.002C58.3155 162.002 57.2175 162.395 56.9101 162.535C56.6026 162.676 56.5411 162.606 56.5411 162.606C57.1042 162.13 57.7885 161.821 58.5175 161.712C58.5175 161.712 59.5825 160.375 59.5057 160.311Z" fill="#3964FC"/>
<path d="M187.6 155.35C187.6 155.35 182.692 157.895 185.226 160.873C185.298 161.059 185.426 161.217 185.593 161.325C185.76 161.433 185.957 161.485 186.155 161.475C186.155 161.475 186.017 161.224 186.546 161.022C186.733 160.95 186.911 160.856 187.075 160.741C187.298 160.587 187.464 160.364 187.55 160.107C187.55 160.107 188.553 158.763 187.769 156.279C187.769 156.279 187.868 155.576 187.78 155.462L187.185 156.279C187.185 156.279 187.802 156.694 187.872 157.302C187.872 157.302 187.229 156.281 187.091 156.398C187.062 156.422 186.794 156.837 186.794 156.837C186.794 156.837 187.864 157.562 187.943 158.501C187.943 158.501 187.341 157.184 186.691 156.997L186.34 157.676C186.34 157.676 187.506 158.385 187.637 159.455C187.637 159.455 186.961 158.1 186.267 157.825L185.995 158.528C185.995 158.528 187.119 159.242 187.225 160.133C187.225 160.133 186.282 158.644 185.944 158.693C185.848 158.971 185.786 159.26 185.76 159.553C185.76 159.553 186.555 160.085 186.57 160.607C186.57 160.607 185.834 159.681 185.722 159.742C185.722 159.742 185.674 160.673 185.9 161.159C185.672 160.722 185.56 160.234 185.575 159.742C185.349 159.944 185.185 160.207 185.105 160.5C185.105 160.5 184.886 159.986 185.591 159.516C185.591 159.516 185.657 158.791 185.736 158.701C185.736 158.701 184.982 159.068 184.664 159.52C184.664 159.52 184.78 158.846 185.802 158.512L186.061 157.803C186.061 157.803 185.04 158.242 184.723 158.616C184.723 158.616 184.943 157.957 186.142 157.627L186.493 156.969C186.017 157.129 185.563 157.351 185.143 157.627C185.143 157.627 185.488 157.054 186.603 156.791L186.889 156.38C186.889 156.38 186.23 156.617 186.047 156.701C185.865 156.784 185.828 156.743 185.828 156.743C186.164 156.458 186.573 156.272 187.009 156.207C187.009 156.207 187.644 155.394 187.6 155.35Z" fill="#3964FC"/>
<path d="M184.425 126.522C184.161 126.333 184.051 125.878 184.012 125.424C184.012 125.321 183.997 125.22 183.992 125.123C184.11 125.051 184.214 124.957 184.297 124.846C184.818 124.109 183.575 121.432 183.575 121.432C183.575 121.432 184.056 120.035 183.575 118.832C183.094 117.628 182.874 117.395 182.874 117.395C182.874 117.395 181.249 114.058 181.491 113.662C181.732 113.267 181.089 110.149 180.613 109.523C180.413 109.252 180.199 108.993 179.971 108.746C179.971 108.746 180.053 107.389 179.37 106.33C178.687 105.272 177.927 102.333 177.927 102.333C177.927 102.333 177.086 99.5775 176.484 98.6003C176.239 98.2568 175.943 97.9524 175.606 97.6978C175.7 97.2586 175.918 96.6767 175.294 93.2334C175.039 91.8192 175.437 90.976 175.764 89.5771C176.091 88.1783 176.021 86.5599 175.017 85.5036C174.014 84.4474 172.457 84.2497 171.212 83.5273C170.114 82.8926 169.136 81.8188 167.854 81.8386C166.912 81.854 166.914 82.0011 166.047 82.3546C164.547 82.9651 162.86 82.7807 161.336 83.2857C159.966 83.7403 158.225 85.2335 158.64 86.8168C158.705 87.1754 158.882 87.5042 159.145 87.7567C159.441 88.0268 159.804 88.029 160.21 87.9477C160.21 87.9741 160.21 87.9982 160.195 88.0246C160.159 88.2424 160.141 88.4627 160.142 88.6834C160.142 91.0309 162.098 92.9369 164.518 92.9523C164.532 93.0028 164.543 93.0555 164.556 93.1082C164.589 93.2488 164.619 93.3893 164.65 93.5342C164.536 93.6858 164.417 93.8373 164.305 93.9888C164.027 94.343 163.805 94.7377 163.647 95.1592C162.377 95.4184 160.249 95.8378 159.913 96.3868C159.474 97.1246 157.669 100.779 157.869 102.441C157.88 102.533 157.889 102.661 157.898 102.792C157.898 102.792 156.786 104.769 156.626 105.39C156.466 106.012 156.106 108.339 155.423 108.882C154.74 109.424 153.339 111.172 153.539 111.517C153.738 111.862 151.654 112.292 151.654 112.292C151.654 112.292 150.253 112.834 150.337 113.263C150.361 113.392 150.262 113.515 150.117 113.634C148.523 113.109 146.492 112.755 144.917 113.555C142.721 114.668 146.573 115.434 148.87 115.77C149.248 115.828 149.581 115.871 149.841 115.902C149.858 115.977 149.931 116.043 150.115 116.106C150.26 116.157 150.475 116.236 150.726 116.326L150.818 116.041C151.58 116.311 153.659 117.152 153.659 117.152C153.659 117.152 155.464 117.446 155.985 116.399C156.204 115.975 156.804 115.301 157.456 114.642L157.384 114.877L155.864 119.89C155.864 119.89 153.46 123.623 153.58 124.429C153.701 125.235 152.818 127.301 152.618 127.503C152.419 127.705 150.423 133.595 149.371 133.984C148.319 134.372 146.924 135.729 147.394 136.158C147.864 136.586 149.81 137.98 150.688 137.515C151.567 137.049 153.104 137.903 153.104 137.903C153.104 137.903 154.786 137.627 156.156 138.286C156.172 138.437 156.189 138.602 156.207 138.775C156.349 140.093 156.582 141.913 156.83 142.443C157.232 143.297 157.592 144.81 157.27 145.392C156.947 145.974 157.551 157.072 158.148 158.974C158.618 160.463 159.261 162.858 159.151 164.422C159.086 165.373 159.046 166.324 159.039 167.277C159.039 167.329 159.039 167.382 159.039 167.435C159.039 167.487 159.002 167.518 158.985 167.562V167.648C158.845 167.977 158.729 168.315 158.635 168.66C158.635 168.66 157.601 171.26 157.95 171.939C157.991 172.013 158.047 172.078 158.115 172.13C158.613 172.529 159.872 172.615 160.311 172.632L160.291 173.291H160.882C160.882 173.291 160.897 172.632 160.937 171.811C161.109 171.349 161.195 170.859 161.191 170.366C161.183 169.506 161.363 168.653 161.719 167.869C161.719 167.869 161.732 167.801 161.745 167.692C161.775 167.465 161.787 167.237 161.782 167.009C161.806 166.609 161.731 166.21 161.563 165.847C161.545 165.61 161.56 165.371 161.607 165.138C161.767 164.556 161.365 160.482 161.365 160.482L162.046 152.992C162.046 152.992 162.448 147.21 162.287 145.697C162.245 145.292 162.255 144.883 162.316 144.48C162.567 142.836 162.714 141.177 162.755 139.513C162.755 139.357 162.755 139.203 162.755 139.048C164.213 139.548 166.686 139.138 166.686 139.138C166.686 139.138 167.261 139.124 168.025 139.138C168.045 139.296 168.067 139.452 168.089 139.603C168.205 140.418 168.344 141.14 168.486 141.45C168.886 142.304 169.248 143.817 168.926 144.399C168.603 144.981 169.205 156.079 169.804 157.981C170.276 159.47 170.92 161.864 170.81 163.429C170.744 164.378 170.704 165.329 170.698 166.284V166.46C170.678 166.501 170.658 166.543 170.641 166.587C170.623 166.631 170.641 166.646 170.641 166.673C170.508 167.004 170.397 167.343 170.309 167.689C170.309 167.689 169.273 170.292 169.624 170.97C169.664 171.044 169.721 171.109 169.789 171.159C170.287 171.561 171.545 171.644 171.985 171.662L171.965 172.321H172.556C172.556 172.321 172.571 171.662 172.61 170.841C172.783 170.379 172.869 169.889 172.865 169.396C172.855 168.536 173.032 167.684 173.383 166.899C173.432 166.616 173.453 166.329 173.447 166.042C173.47 165.64 173.39 165.238 173.217 164.874C173.2 164.638 173.215 164.4 173.26 164.167C173.421 163.585 173.021 159.509 173.021 159.509L173.702 152.021C173.702 152.021 174.104 146.239 173.941 144.726C173.901 144.321 173.911 143.912 173.972 143.51C174.214 141.947 174.36 140.371 174.411 138.791C174.411 138.633 174.411 138.477 174.411 138.319C174.556 138.141 174.85 138 175.663 137.728C177.066 137.262 179.872 134.932 180.995 134.779C182.117 134.625 183.118 133.885 182.798 133.303C182.477 132.721 180.714 132.332 180.874 131.441C181.034 130.549 179.791 130.005 179.231 128.531C178.671 127.058 176.223 125.896 176.183 124.798C176.144 123.7 173.873 120.345 173.873 120.345C173.873 120.345 171.592 116.55 171.086 114.231C171.086 114.178 171.067 114.13 171.058 114.082H171.086C171.048 113.908 171.02 113.732 171.003 113.555C171.003 113.504 171.014 113.452 171.023 113.405H170.992V113.322C170.992 113.322 170.992 113.322 170.992 113.307C171.007 113.295 171.023 113.285 171.04 113.276L171.172 113.199L171.128 113.217C171.391 113.046 171.635 112.847 171.855 112.624C172.218 112.302 172.504 111.903 172.692 111.455C172.869 110.96 172.979 110.443 173.019 109.918L173.304 109.479C173.581 110.636 173.985 112.296 174.113 112.668C174.719 114.235 175.202 115.847 175.557 117.49C175.914 119.083 176.506 120.613 177.314 122.031C177.314 122.031 179.359 124.708 180.922 124.824C182.486 124.941 181.605 125.367 181.844 125.446L181.913 125.461L181.937 125.775L182.005 126.687C182.005 126.687 183.608 133.206 185.413 132.275C187.218 131.344 185.022 126.948 184.425 126.522Z" fill="url(#paint0_linear)"/>
<path d="M184.636 132.304C182.901 133.23 181.359 126.757 181.359 126.757L181.293 125.85L181.168 124.135L183.287 124.405C183.255 124.775 183.255 125.148 183.287 125.518C183.325 125.957 183.432 126.416 183.685 126.601C184.249 127.027 186.368 131.379 184.636 132.304Z" fill="#A1616A"/>
<path d="M158.497 170.105L158.645 169.993C158.6 170.036 158.55 170.074 158.497 170.105Z" fill="#A1616A"/>
<path d="M162.865 134.539V138.962C162.865 139.154 162.865 139.345 162.865 139.535C162.819 141.187 162.673 142.835 162.426 144.469C162.367 144.869 162.357 145.273 162.397 145.675C162.551 147.179 162.177 152.922 162.177 152.922L161.519 160.359C161.519 160.359 161.903 164.404 161.738 164.971C161.695 165.203 161.681 165.44 161.697 165.676C161.719 166.334 161.833 167.18 161.87 167.432V167.509L161.846 167.527L158.624 169.984C159.138 169.516 159.27 168.427 159.268 167.417C159.268 167.307 159.268 167.197 159.268 167.088C159.268 166.143 159.304 165.199 159.378 164.255C159.483 162.702 158.864 160.324 158.411 158.844C157.834 156.958 157.254 145.936 157.564 145.359C157.873 144.781 157.524 143.277 157.14 142.429C156.914 141.913 156.694 140.108 156.562 138.791C156.479 137.991 156.428 137.385 156.428 137.385L162.865 134.539Z" fill="#A1616A"/>
<path d="M169.707 169.116L169.865 168.998C169.817 169.043 169.764 169.083 169.707 169.116Z" fill="#A1616A"/>
<path d="M174.075 133.551V137.974C174.075 138.246 174.075 138.52 174.075 138.793C174.025 140.362 173.884 141.928 173.651 143.481C173.592 143.88 173.583 144.285 173.623 144.687C173.777 146.191 173.403 151.933 173.403 151.933L172.744 159.371C172.744 159.371 173.131 163.416 172.977 163.983C172.933 164.214 172.918 164.45 172.935 164.685C172.957 165.344 173.074 166.203 173.109 166.442C173.109 166.49 173.12 166.515 173.12 166.515L173.096 166.532L169.87 168.989C170.368 168.511 170.498 167.435 170.496 166.438C170.496 166.328 170.496 166.218 170.496 166.106C170.496 165.162 170.54 164.218 170.603 163.273C170.707 161.721 170.089 159.345 169.637 157.865C169.057 155.978 168.48 144.957 168.79 144.379C169.099 143.802 168.75 142.298 168.366 141.45C168.227 141.151 168.096 140.424 167.981 139.616C167.777 138.149 167.632 136.404 167.632 136.404L174.075 133.551Z" fill="#A1616A"/>
<path opacity="0.1" d="M168.058 91.615L168.025 91.6655C167.686 92.1461 167.25 92.5506 166.745 92.8531C166.24 93.1556 165.678 93.3495 165.094 93.4222C164.923 93.4462 164.75 93.4579 164.578 93.4574C164.564 93.4047 164.553 93.352 164.54 93.3015C164.288 92.2035 164.02 91.3251 164.02 91.3251C164.02 91.3251 164.308 90.9101 164.727 90.3808C165.867 88.9403 167.966 86.6631 167.801 89.7067C167.766 90.3232 167.84 90.941 168.021 91.5315C168.036 91.5469 168.045 91.5776 168.058 91.615Z" fill="black"/>
<path d="M168.811 89.0523C168.812 90.0862 168.434 91.0845 167.749 91.8591C167.064 92.6337 166.12 93.1311 165.094 93.2576C164.92 93.2797 164.746 93.2907 164.571 93.2905H164.54C163.704 93.284 162.887 93.0299 162.195 92.5603C161.502 92.0906 160.964 91.4265 160.648 90.6515C160.333 89.8765 160.253 89.0254 160.421 88.2055C160.588 87.3855 160.994 86.6334 161.588 86.044C162.182 85.4546 162.937 85.0542 163.758 84.8933C164.58 84.7324 165.43 84.8183 166.203 85.14C166.975 85.4617 167.635 86.0049 168.099 86.7011C168.564 87.3974 168.811 88.2155 168.811 89.0523Z" fill="#A1616A"/>
<path d="M172.922 101.402L168.811 104.916C168.811 104.916 164.33 98.5212 164.859 97.2103C165.028 96.7996 165.008 96.0706 164.9 95.2581C164.841 94.8189 164.756 94.3336 164.659 93.8768C164.63 93.7341 164.6 93.5935 164.569 93.4552C164.556 93.4025 164.545 93.3498 164.532 93.2993C164.279 92.2013 164.011 91.3229 164.011 91.3229C164.011 91.3229 164.299 90.9079 164.718 90.3786C165.858 88.9381 167.957 86.6609 167.793 89.7045C167.757 90.321 167.832 90.9388 168.012 91.5293C168.012 91.5645 168.032 91.5996 168.045 91.6325C168.629 93.4288 170.052 94.8628 171.146 95.7521C171.594 96.1205 172.067 96.4565 172.562 96.7579L172.922 101.402Z" fill="#A1616A"/>
<path opacity="0.1" d="M156.428 137.392L162.865 134.537V138.96C162.865 139.152 162.865 139.343 162.865 139.533C162.719 139.482 162.58 139.417 162.448 139.337C161.176 138.551 159.593 139.162 159.481 139.162C159.369 139.162 158.093 139.702 156.745 138.892C156.685 138.857 156.626 138.824 156.569 138.795C156.475 137.998 156.428 137.392 156.428 137.392Z" fill="black"/>
<path opacity="0.1" d="M174.075 133.551V137.974C174.075 138.246 174.075 138.521 174.075 138.793C173.984 138.946 173.91 139.109 173.856 139.278C173.623 139.818 172.044 140.012 170.656 139.783C169.774 139.668 168.886 139.612 167.997 139.616C167.793 138.149 167.648 136.404 167.648 136.404L174.075 133.551Z" fill="black"/>
<path d="M180.397 134.809C179.317 134.963 176.62 137.275 175.272 137.739C173.924 138.202 174.077 138.277 173.847 138.817C173.616 139.357 172.035 139.548 170.647 139.32C169.259 139.091 166.64 139.164 166.64 139.164C166.64 139.164 163.721 139.669 162.441 138.876C161.161 138.084 159.586 138.701 159.474 138.701C159.362 138.701 158.086 139.241 156.738 138.431C155.39 137.62 153.578 137.93 153.578 137.93C153.578 137.93 152.113 137.082 151.266 137.546C150.418 138.009 148.569 136.621 148.106 136.197C147.642 135.773 148.984 134.425 149.994 134.039C151.004 133.652 152.924 127.796 153.115 127.604C153.306 127.413 154.156 125.369 154.039 124.561C153.923 123.753 156.235 120.05 156.235 120.05L157.698 115.074L158.137 113.537L158.154 112.621C158.154 112.209 158.174 111.679 158.185 111.084C158.225 108.625 158.266 104.977 158.185 103.328C158.172 103.073 158.159 102.867 158.141 102.718C157.948 101.062 159.678 97.4474 160.107 96.7074C160.423 96.1606 162.47 95.7455 163.688 95.4886C163.979 95.4361 164.266 95.3672 164.549 95.2822C164.66 95.2543 164.774 95.2454 164.887 95.2558C166.038 95.302 169.431 96.0134 169.431 96.0134C169.123 105.3 169.74 103.682 169.74 103.682C170.742 102.911 170.125 96.0903 170.125 96.0903C170.625 96.3209 171.137 95.7411 171.137 95.7411L173.091 96.5515C173.686 96.9089 174.262 97.2982 174.815 97.7175C175.279 98.0443 175.686 98.4449 176.021 98.9033C176.598 99.8673 177.409 102.604 177.409 102.604L176.715 103.701C176.109 104.674 175.178 106.17 174.222 107.685L172.527 110.384C171.769 111.587 171.152 112.564 170.895 112.962C170.837 113.057 170.797 113.162 170.775 113.271C170.76 113.344 170.751 113.417 170.746 113.491C170.735 113.798 170.766 114.105 170.836 114.405C171.321 116.706 173.515 120.476 173.515 120.476C173.515 120.476 175.711 123.827 175.751 124.906C175.79 125.984 178.14 127.141 178.68 128.606C179.22 130.071 180.413 130.609 180.259 131.496C180.105 132.383 181.796 132.767 182.108 133.345C182.42 133.922 181.476 134.656 180.397 134.809Z" fill="#FA595F"/>
<path opacity="0.1" d="M183.283 125.518C182.688 125.92 181.64 125.905 181.293 125.85L181.168 124.135L183.287 124.405C183.254 124.775 183.252 125.148 183.283 125.518Z" fill="black"/>
<path d="M175.85 101.479L177.431 102.597C177.431 102.597 178.162 105.524 178.816 106.565C179.471 107.606 179.394 108.954 179.394 108.954C179.614 109.199 179.821 109.456 180.011 109.725C180.474 110.342 181.089 113.436 180.858 113.836C180.628 114.236 182.189 117.547 182.189 117.547C182.189 117.547 182.409 117.767 182.863 118.972C183.318 120.178 182.863 121.555 182.863 121.555C182.863 121.555 184.058 124.214 183.557 124.945C183.057 125.676 181.436 125.604 181.205 125.523C180.975 125.441 181.822 125.022 180.327 124.906C178.832 124.789 176.857 122.132 176.857 122.132C176.076 120.72 175.505 119.201 175.162 117.624C174.821 115.999 174.357 114.401 173.777 112.845C173.583 112.268 172.736 108.53 172.736 108.53L175.85 101.479Z" fill="#FA595F"/>
<path opacity="0.1" d="M164.02 101.479C164.02 101.479 163.903 110.419 162.825 112.191L164.02 101.479Z" fill="black"/>
<path opacity="0.1" d="M170.263 104.639C170.263 104.639 169.262 113.579 168.471 114.04C167.681 114.501 170.263 104.639 170.263 104.639Z" fill="black"/>
<path opacity="0.1" d="M168.811 103.368C168.811 103.368 168.568 111.798 167.296 112.63C166.025 113.462 168.811 103.368 168.811 103.368Z" fill="black"/>
<path opacity="0.1" d="M157.739 119.319C157.739 119.319 156.145 123.981 156.325 125.907C156.505 127.833 157.739 119.319 157.739 119.319Z" fill="black"/>
<path opacity="0.1" d="M170.858 114.712C168.772 115.18 163.128 116.019 158.165 112.931C158.165 112.518 158.185 111.989 158.196 111.394C160.08 112.43 165.373 115.127 168.067 114.372C169.411 113.987 170.263 113.744 170.797 113.585C170.743 113.961 170.764 114.344 170.858 114.712Z" fill="black"/>
<path opacity="0.1" d="M170.858 114.251C168.772 114.716 163.128 115.555 158.165 112.47C158.165 112.057 158.185 111.526 158.196 110.933C160.08 111.969 165.373 114.666 168.067 113.91C169.411 113.528 170.263 113.282 170.797 113.127C170.744 113.502 170.764 113.884 170.858 114.251Z" fill="black"/>
<path d="M170.858 114.416C168.772 114.881 163.128 115.72 158.165 112.635C158.165 112.222 158.185 111.693 158.196 111.097C160.08 112.134 165.373 114.831 168.067 114.075C169.411 113.693 170.263 113.447 170.797 113.291C170.744 113.666 170.764 114.048 170.858 114.416Z" fill="#605D82"/>
<path opacity="0.1" d="M170.858 114.416C168.772 114.881 163.128 115.72 158.165 112.635C158.165 112.222 158.185 111.693 158.196 111.097C160.08 112.134 165.373 114.831 168.067 114.075C169.411 113.693 170.263 113.447 170.797 113.291C170.744 113.666 170.764 114.048 170.858 114.416Z" fill="black"/>
<path opacity="0.1" d="M161.879 167.441C161.879 167.492 161.868 167.525 161.866 167.536L158.644 169.993C159.158 169.525 159.29 168.436 159.288 167.426C159.288 167.316 159.288 167.206 159.288 167.097C159.571 166.398 159.974 165.755 160.478 165.195C161.027 165.052 161.372 165.195 161.576 165.443C161.576 165.467 161.576 165.491 161.576 165.513C161.62 165.566 161.658 165.624 161.69 165.684C162.013 166.24 161.921 167.147 161.879 167.441Z" fill="black"/>
<path opacity="0.1" d="M161.629 166.194L159.198 167.863C159.198 167.863 159.213 167.667 159.235 167.38C159.524 166.633 159.946 165.945 160.48 165.349C161.029 165.208 161.374 165.349 161.578 165.597C161.598 165.957 161.629 166.194 161.629 166.194Z" fill="black"/>
<path d="M161.863 167.694C161.522 168.476 161.35 169.322 161.358 170.175C161.373 170.877 161.194 171.569 160.842 172.176C160.793 172.262 160.737 172.343 160.673 172.419C160.673 172.419 158.985 172.406 158.394 171.917C158.327 171.867 158.271 171.803 158.231 171.73C157.893 171.056 158.89 168.473 158.89 168.473C159.413 166.482 160.476 165.419 160.476 165.419C162.371 164.922 161.863 167.694 161.863 167.694Z" fill="#5A5773"/>
<path opacity="0.1" d="M160.842 172.169C160.793 172.255 160.736 172.337 160.673 172.413C160.673 172.413 158.985 172.4 158.394 171.91C158.684 170.948 159.613 168.039 160.045 168.533C160.478 169.027 160.739 171.24 160.842 172.169Z" fill="black"/>
<path d="M160.61 168.719L160.493 173.08H161.06C161.06 173.08 161.15 169.255 161.405 168.719C161.659 168.183 160.61 168.719 160.61 168.719Z" fill="#5A5773"/>
<path opacity="0.1" d="M173.089 166.46L173.076 166.55L169.87 168.989C170.368 168.511 170.498 167.435 170.496 166.438C170.496 166.328 170.496 166.218 170.496 166.106C170.779 165.409 171.181 164.766 171.684 164.207C172.233 164.064 172.58 164.207 172.793 164.453C172.793 164.479 172.793 164.501 172.793 164.525C172.837 164.577 172.875 164.634 172.907 164.694C173.225 165.258 173.131 166.168 173.089 166.46Z" fill="black"/>
<path opacity="0.1" d="M172.839 165.204L170.408 166.875C170.408 166.875 170.423 166.679 170.447 166.392C170.735 165.645 171.156 164.956 171.69 164.36C172.239 164.22 172.584 164.349 172.799 164.608C172.808 164.969 172.839 165.204 172.839 165.204Z" fill="black"/>
<path d="M173.076 166.706C172.733 167.487 172.56 168.333 172.569 169.187C172.583 169.889 172.405 170.581 172.053 171.188C172.003 171.273 171.946 171.355 171.884 171.431C171.884 171.431 170.195 171.418 169.604 170.928C169.539 170.877 169.485 170.813 169.446 170.74C169.11 170.065 170.105 167.483 170.105 167.483C170.628 165.491 171.69 164.428 171.69 164.428C173.581 163.939 173.076 166.706 173.076 166.706Z" fill="#5A5773"/>
<path opacity="0.1" d="M172.053 171.188C172.003 171.273 171.946 171.355 171.884 171.431C171.884 171.431 170.195 171.418 169.604 170.928C169.894 169.967 170.823 167.055 171.256 167.549C171.688 168.043 171.949 170.252 172.053 171.188Z" fill="black"/>
<path d="M171.822 167.731L171.704 172.09H172.27C172.27 172.09 172.36 168.267 172.615 167.731C172.87 167.195 171.822 167.731 171.822 167.731Z" fill="#5A5773"/>
<path opacity="0.1" d="M176.871 104.909C176.844 106.007 176.245 107.178 175.193 107.505C174.885 107.599 174.558 107.621 174.244 107.685C174.093 107.713 173.946 107.758 173.805 107.819C173.131 108.129 172.795 108.897 172.659 109.626C172.61 109.876 172.58 110.129 172.549 110.384C172.513 110.869 172.411 111.347 172.248 111.805C171.947 112.51 171.429 113.101 170.768 113.491C170.001 113.947 169.174 114.293 168.311 114.519C168.747 113.847 169.031 113.089 169.145 112.296C169.259 111.504 169.199 110.696 168.97 109.929C168.829 109.479 168.53 108.976 168.054 108.989C167.683 109 167.417 109.33 167.14 109.58C165.779 110.805 163.649 110.259 161.925 109.642C164.999 106.517 165.854 101.442 164 97.4781C163.832 97.1689 163.705 96.8389 163.622 96.4965C163.568 96.1558 163.6 95.8068 163.717 95.482C163.867 95.0663 164.077 94.6748 164.341 94.3204C164.448 94.1688 164.56 94.0195 164.674 93.868C164.821 93.6682 164.969 93.4661 165.1 93.2575C165.296 92.9655 165.444 92.6446 165.54 92.3067C165.735 91.56 165.46 90.6158 164.738 90.361L164.698 90.3457C163.899 90.0953 163.651 90.0207 163.106 89.3795C162.742 88.9534 162.535 88.2815 161.912 88.1563C161.433 88.0575 160.897 88.2705 160.394 88.4001C160.492 87.7674 160.732 87.1651 161.096 86.6383C161.46 86.1116 161.938 85.674 162.495 85.3585C163.052 85.043 163.674 84.8577 164.312 84.8166C164.951 84.7754 165.591 84.8795 166.184 85.1209C166.777 85.3623 167.308 85.7349 167.736 86.2106C168.164 86.6863 168.48 87.2529 168.658 87.8678C168.836 88.4827 168.873 89.13 168.765 89.761C168.657 90.3921 168.408 90.9907 168.036 91.5117C168.598 93.3563 170.054 94.8276 171.17 95.7345L173.124 96.5449C173.719 96.9023 174.295 97.2916 174.848 97.7109C175.15 99.082 175.566 100.425 176.091 101.727C176.359 102.369 176.579 103.03 176.75 103.704C176.84 104.099 176.881 104.504 176.871 104.909Z" fill="black"/>
<path d="M164.841 90.192C165.592 90.4269 165.882 91.3932 165.682 92.153C165.482 92.9128 164.944 93.5276 164.49 94.1666C164.035 94.8057 163.631 95.5699 163.77 96.3428C163.852 96.6852 163.979 97.0152 164.147 97.3244C166.001 101.288 165.135 106.361 162.072 109.488C163.796 110.105 165.928 110.652 167.287 109.426C167.564 109.176 167.83 108.847 168.201 108.836C168.673 108.82 168.978 109.325 169.117 109.775C169.346 110.542 169.406 111.35 169.292 112.142C169.178 112.934 168.894 113.692 168.458 114.363C170.046 113.902 171.789 113.188 172.397 111.651C172.67 110.963 172.67 110.199 172.806 109.47C172.942 108.741 173.278 107.975 173.952 107.665C174.391 107.468 174.885 107.492 175.34 107.351C176.392 107.024 176.991 105.856 177.018 104.756C177.044 103.655 176.622 102.599 176.227 101.574C174.031 95.8641 176.095 100.438 174.892 93.5671C174.646 92.1639 175.03 91.3251 175.344 89.9372C175.658 88.5494 175.59 86.942 174.626 85.8923C173.662 84.8426 172.165 84.6472 170.968 83.9357C169.907 83.3033 168.974 82.2382 167.74 82.258C166.835 82.2712 166.837 82.4183 166.003 82.7697C164.56 83.3757 162.942 83.1935 161.475 83.6941C160.157 84.1465 158.484 85.6266 158.884 87.2077C159.422 89.3355 160.897 87.7698 162.048 88.0092C162.672 88.141 162.878 88.8041 163.243 89.2323C163.796 89.8648 164.042 89.9416 164.841 90.192Z" fill="#4A4347"/>
<path d="M150.985 116.148C150.985 116.148 150.361 116.082 149.522 115.953C147.326 115.619 143.613 114.855 145.725 113.757C147.664 112.742 150.337 113.603 151.9 114.293C152.345 114.489 152.779 114.709 153.2 114.951L150.985 116.148Z" fill="#A1616A"/>
<path opacity="0.1" d="M162.672 102.751C162.672 102.751 161.67 107.801 161.17 108.915C160.669 110.028 159.852 112.962 159.852 112.962C159.852 112.962 158.668 114.033 157.691 115.074L158.13 113.537L158.148 112.621C158.148 112.209 158.168 111.679 158.179 111.084C158.218 108.625 158.26 104.977 158.179 103.328C158.264 103.168 158.319 103.069 158.319 103.069L159.099 101.833C159.099 101.833 160.37 98.4422 161.101 97.4782C161.833 96.5141 162.672 102.751 162.672 102.751Z" fill="black"/>
<path opacity="0.1" d="M151.597 115.478C151.597 115.478 151.485 115.918 151.297 116.51C151.057 116.414 150.857 116.337 150.71 116.291C150.051 116.071 150.827 115.79 150.633 115.213C150.469 114.716 150.163 114.872 149.812 114.734C150.042 114.421 150.291 114.123 150.557 113.84L151.597 115.478Z" fill="black"/>
<path d="M158.971 101.826L158.192 103.062C158.192 103.062 157.133 105.023 156.969 105.632C156.804 106.24 156.475 108.568 155.816 109.108C155.157 109.648 153.811 111.381 154.004 111.728C154.197 112.075 152.192 112.499 152.192 112.499C152.192 112.499 150.844 113.039 150.921 113.463C150.998 113.886 149.803 114.233 150.227 114.541C150.651 114.848 151.037 114.541 151.231 115.118C151.424 115.696 150.651 115.968 151.308 116.199C151.964 116.429 154.121 117.332 154.121 117.332C154.121 117.332 155.853 117.624 156.354 116.583C156.854 115.542 159.707 112.962 159.707 112.962C159.707 112.962 160.515 110.032 161.025 108.915C161.534 107.797 162.529 102.751 162.529 102.751C162.529 102.751 161.719 96.5076 160.992 97.4804C160.265 98.4532 158.971 101.826 158.971 101.826Z" fill="#FA595F"/>
<path opacity="0.1" d="M156.775 111.767C156.775 111.767 152.961 112.268 155.003 113.116C157.046 113.963 157.74 113.116 157.74 113.116L156.775 111.767Z" fill="black"/>
<path opacity="0.1" d="M152.037 114.04C152.037 114.04 154.272 113.579 154.85 114.04C155.427 114.501 152.037 114.04 152.037 114.04Z" fill="black"/>
<path opacity="0.1" d="M151.806 115.197C151.806 115.197 151.96 114.811 152.73 115.197C153.501 115.584 151.806 115.197 151.806 115.197Z" fill="black"/>
<path opacity="0.1" d="M177.024 118.878C177.024 118.878 177.257 122.391 178.204 122.505C179.15 122.62 177.024 118.878 177.024 118.878Z" fill="black"/>
<path opacity="0.1" d="M179.049 110.924C179.049 110.924 179.209 111.998 178.204 112.191C177.198 112.384 179.049 110.924 179.049 110.924Z" fill="black"/>
<path opacity="0.1" d="M167.641 121.375C167.641 121.375 167.591 132.216 169.8 133.551L167.641 121.375Z" fill="black"/>
<path opacity="0.1" d="M170.568 121.838C170.568 121.838 170.529 132.677 172.725 134.014L170.568 121.838Z" fill="black"/>
<path opacity="0.1" d="M158.829 145.31C159.329 145.264 159.833 145.264 160.333 145.31C161.17 145.378 158.829 145.31 158.829 145.31Z" fill="black"/>
<path opacity="0.1" d="M158.829 146.068C159.329 146.022 159.833 146.022 160.333 146.068C161.17 146.145 158.829 146.068 158.829 146.068Z" fill="black"/>
<path opacity="0.1" d="M170.259 144.421C170.759 144.375 171.262 144.375 171.763 144.421C172.599 144.5 170.259 144.421 170.259 144.421Z" fill="black"/>
<path opacity="0.1" d="M170.516 145.027C171.016 144.981 171.519 144.981 172.02 145.027C172.854 145.104 170.516 145.027 170.516 145.027Z" fill="black"/>
<g opacity="0.1">
<path opacity="0.1" d="M162.882 109.108C165.957 105.983 166.811 100.91 164.958 96.9446C164.789 96.6353 164.662 96.3053 164.58 95.963C164.442 95.19 164.843 94.4258 165.3 93.7868C165.757 93.1477 166.295 92.5329 166.493 91.7731C166.69 91.0133 166.403 90.0471 165.651 89.8143C164.852 89.564 164.604 89.4871 164.059 88.8459C163.695 88.4199 163.488 87.7479 162.865 87.6249C161.714 87.3856 160.23 88.9425 159.7 86.8212C159.397 85.631 160.282 84.4935 161.304 83.8149C160.028 84.3442 158.552 85.7496 158.93 87.2362C159.468 89.3641 160.943 87.8006 162.094 88.04C162.718 88.1695 162.924 88.8349 163.289 89.2609C163.835 89.9021 164.081 89.979 164.881 90.2293C165.632 90.4621 165.922 91.4283 165.722 92.1881C165.522 92.9479 164.984 93.5628 164.529 94.2018C164.075 94.8408 163.671 95.605 163.809 96.3802C163.892 96.7217 164.019 97.051 164.187 97.3596C166.04 101.325 165.175 106.398 162.112 109.523C163.772 110.118 165.807 110.645 167.162 109.591C165.878 110.043 164.253 109.598 162.882 109.108Z" fill="black"/>
<path opacity="0.1" d="M174.769 107.287C174.606 107.362 174.457 107.464 174.33 107.591C174.677 107.505 175.044 107.494 175.384 107.386C175.648 107.305 175.892 107.168 176.1 106.987C175.663 107.11 175.184 107.096 174.769 107.287Z" fill="black"/>
<path opacity="0.1" d="M170.944 113.381C170.403 113.623 169.845 113.825 169.275 113.985C169.711 113.314 169.995 112.556 170.109 111.764C170.223 110.972 170.163 110.164 169.934 109.398C169.795 108.959 169.494 108.443 169.018 108.456C168.732 108.5 168.472 108.648 168.289 108.873C168.728 108.888 169.029 109.376 169.167 109.813C169.397 110.58 169.456 111.387 169.343 112.179C169.229 112.971 168.944 113.729 168.508 114.4C169.363 114.174 170.183 113.831 170.944 113.381Z" fill="black"/>
</g>
</g>
<defs>
<linearGradient id="paint0_linear" x1="165.195" y1="173.326" x2="165.195" y2="81.8627" gradientUnits="userSpaceOnUse">
<stop stop-color="#808080" stop-opacity="0.25"/>
<stop offset="0.54" stop-color="#808080" stop-opacity="0.12"/>
<stop offset="1" stop-color="#808080" stop-opacity="0.1"/>
</linearGradient>
<clipPath id="clip0">
<rect x="0.56189" y="0.533386" width="248.143" height="175.503" fill="white"/>
</clipPath>
</defs>
</svg>
