<svg width="194" height="140" viewBox="0 0 194 140" fill="none" xmlns="http://www.w3.org/2000/svg">
<path d="M166.348 55.572C157.866 23.904 128.559 1.04419 94.1595 0.127301C75.9733 -0.35743 56.8364 5.36959 42.9033 25.4105C17.9964 61.2359 44.4339 85.9923 62.8654 97.756C71.7701 103.451 79.7937 110.298 86.7038 118.1C99.1537 132.128 123.104 149.56 151.629 122.247C172.303 102.451 171.997 76.6659 166.348 55.572Z" fill="#F2F3F6"/>
<path opacity="0.1" d="M130.952 88.2064C129.428 86.7637 129.427 84.3367 130.952 82.8937L141.762 72.6603C143.846 70.6879 143.846 67.3704 141.762 65.398L130.952 55.1645C129.428 53.7216 129.428 51.2946 130.952 49.8518C132.363 48.5171 134.57 48.5172 135.98 49.8521L152.404 65.3979C154.488 67.3703 154.488 70.688 152.404 72.6604L135.98 88.2061C134.57 89.541 132.363 89.5411 130.952 88.2064Z" fill="black"/>
<path opacity="0.1" d="M78.3056 66.8397C78.3056 68.6999 79.8136 70.2079 81.6738 70.2079H82.032C83.8922 70.2079 85.4002 68.6999 85.4002 66.8397C85.4002 64.9795 83.8922 63.4715 82.032 63.4715H81.6738C79.8136 63.4715 78.3056 64.9795 78.3056 66.8397ZM113.921 66.8397C113.921 64.9795 112.413 63.4715 110.552 63.4715H110.194C108.334 63.4715 106.826 64.9795 106.826 66.8397C106.826 68.6999 108.334 70.2079 110.194 70.2079H110.552C112.413 70.2079 113.921 68.6999 113.921 66.8397ZM92.5658 66.8397C92.5658 68.6999 94.0738 70.2079 95.9341 70.2079H96.2923C98.1525 70.2079 99.6605 68.6999 99.6605 66.8397C99.6605 64.9795 98.1525 63.4715 96.2923 63.4715H95.9341C94.0738 63.4715 92.5658 64.9795 92.5658 66.8397Z" fill="black"/>
<path opacity="0.1" d="M65.8849 88.0386C67.4096 86.5958 67.4091 84.1684 65.884 82.7261L55.0615 72.4917C52.9761 70.5197 52.9753 67.2008 55.0596 65.2277L65.8688 54.9956C67.3928 53.5529 67.3926 51.1264 65.8684 49.6839C64.4579 48.349 62.2499 48.3496 60.84 49.6852L44.4309 65.2294C42.3485 67.2021 42.3491 70.5186 44.4323 72.4905L60.858 88.0383C62.2679 89.3729 64.4749 89.373 65.8849 88.0386Z" fill="black"/>
<path d="M193.487 126.794C193.487 129.584 150.288 139.256 97 139.256C43.7116 139.256 0.512817 129.584 0.512817 126.794C0.512817 124.004 43.7116 129.152 97 129.152C150.288 129.152 193.487 124.004 193.487 126.794Z" fill="#3F3D56"/>
<path opacity="0.1" d="M193.487 126.794C193.487 129.584 150.288 139.256 97 139.256C43.7116 139.256 0.512817 129.584 0.512817 126.794C0.512817 124.004 43.7116 129.152 97 129.152C150.288 129.152 193.487 124.004 193.487 126.794Z" fill="black"/>
<path d="M97 131.846C150.288 131.846 193.487 129.584 193.487 126.794C193.487 124.004 150.288 121.742 97 121.742C43.7116 121.742 0.512817 124.004 0.512817 126.794C0.512817 129.584 43.7116 131.846 97 131.846Z" fill="#3F3D56"/>
<path d="M112.732 102.486C112.732 113.267 119.855 121.99 128.658 121.99L112.732 102.486Z" fill="#3F3D56"/>
<path d="M128.657 121.99C128.657 111.088 136.606 102.266 146.43 102.266L128.657 121.99Z" fill="#3964FC"/>
<path d="M118.502 103.463C118.502 113.704 123.044 121.99 128.657 121.99L118.502 103.463Z" fill="#3964FC"/>
<path d="M128.657 121.99C128.657 108.06 137.845 96.7874 149.2 96.7874L128.657 121.99Z" fill="#3F3D56"/>
<path d="M125.307 122.128C125.307 122.128 127.566 122.062 128.246 121.602C128.927 121.141 131.721 120.592 131.889 121.33C132.058 122.068 135.284 125.001 132.734 125.021C130.184 125.04 126.809 124.643 126.129 124.25C125.45 123.858 125.307 122.128 125.307 122.128Z" fill="#A8A8A8"/>
<path opacity="0.2" d="M132.779 124.764C130.229 124.783 126.854 124.386 126.175 123.994C125.658 123.694 125.451 122.621 125.382 122.125C125.335 122.127 125.307 122.128 125.307 122.128C125.307 122.128 125.45 123.858 126.129 124.25C126.809 124.643 130.184 125.04 132.734 125.021C133.47 125.015 133.724 124.766 133.71 124.398C133.608 124.62 133.327 124.759 132.779 124.764Z" fill="black"/>
<path d="M154.029 64.5761C154.029 64.5761 148.568 60.6393 148.154 62.0824C147.739 63.5254 152.16 66.8052 152.16 66.8052L154.029 64.5761Z" fill="#FFB9B9"/>
<path opacity="0.1" d="M154.029 64.5761C154.029 64.5761 148.568 60.6393 148.154 62.0824C147.739 63.5254 152.16 66.8052 152.16 66.8052L154.029 64.5761Z" fill="black"/>
<path d="M172.056 52.1119C172.056 52.1119 165.563 63.1319 165.424 64.7062C165.286 66.2805 165.286 66.4116 164.734 66.2805C164.181 66.1493 156.582 65.3621 155.891 65.6245C155.2 65.8869 153.818 64.0502 153.818 64.0502C153.818 64.0502 151.193 66.5428 151.746 67.0676C152.299 67.5924 153.957 67.8547 154.233 68.5107C154.509 69.1666 154.924 69.8226 156.167 69.6914C157.411 69.5602 165.839 71.7905 166.944 71.3969C168.05 71.0033 168.326 70.3474 168.879 70.3474C169.431 70.3474 170.537 69.8226 170.537 69.6914C170.537 69.5602 174.405 62.6071 174.405 62.6071C174.405 62.6071 178.965 53.1614 172.056 52.1119Z" fill="#D0CDE1"/>
<path opacity="0.1" d="M172.056 52.1119C172.056 52.1119 165.563 63.1319 165.424 64.7062C165.286 66.2805 165.286 66.4116 164.734 66.2805C164.181 66.1493 156.582 65.3621 155.891 65.6245C155.2 65.8869 153.818 64.0502 153.818 64.0502C153.818 64.0502 151.193 66.5428 151.746 67.0676C152.299 67.5924 153.957 67.8547 154.233 68.5107C154.509 69.1666 154.924 69.8226 156.167 69.6914C157.411 69.5602 165.839 71.7905 166.944 71.3969C168.05 71.0033 168.326 70.3474 168.879 70.3474C169.431 70.3474 170.537 69.8226 170.537 69.6914C170.537 69.5602 174.405 62.6071 174.405 62.6071C174.405 62.6071 178.965 53.1614 172.056 52.1119Z" fill="black"/>
<path d="M162.635 44.8469C162.576 45.5436 162.588 46.244 162.67 46.9386C162.88 48.4458 163.611 50.017 162.921 51.4239C162.67 51.9346 162.246 52.3796 162.015 52.8964C161.525 53.9904 161.969 55.2039 161.902 56.3683C161.816 57.8725 160.809 59.3219 159.276 60.1462C161.895 60.2234 164.385 58.9941 166.033 57.319C167.68 55.6438 168.598 53.5661 169.286 51.4872C169.639 50.511 169.866 49.4974 169.96 48.4689C170.015 47.8781 169.942 47.2829 169.746 46.7198C169.504 46.1698 169.185 45.653 168.799 45.1834C168.386 44.6326 167.962 44.071 167.353 43.6612C166.604 43.1565 165.158 42.6497 164.163 42.7231C162.944 42.8132 162.686 44.043 162.635 44.8469Z" fill="#2F2E41"/>
<path d="M166.668 48.9633C166.668 48.9633 168.188 54.0797 166.944 55.5228C165.701 56.9659 174.405 54.8669 174.405 54.8669C174.405 54.8669 170.122 50.8 172.195 48.1762L166.668 48.9633Z" fill="#FFB9B9"/>
<path opacity="0.1" d="M166.668 48.9633C166.668 48.9633 168.188 54.0797 166.944 55.5228C165.701 56.9659 174.405 54.8669 174.405 54.8669C174.405 54.8669 170.122 50.8 172.195 48.1762L166.668 48.9633Z" fill="black"/>
<path d="M130.952 85.0066C129.428 83.5639 129.427 81.1368 130.952 79.6939L141.762 69.4604C143.846 67.488 143.846 64.1706 141.762 62.1982L130.952 51.9647C129.428 50.5218 129.428 48.0947 130.952 46.652C132.363 45.3173 134.57 45.3174 135.98 46.6523L152.404 62.1981C154.488 64.1705 154.488 67.4881 152.404 69.4605L135.98 85.0063C134.57 86.3412 132.363 86.3413 130.952 85.0066Z" fill="#3964FC"/>
<path d="M161.694 117.182V120.987L163.766 123.348L165.563 122.561L165.01 117.051L161.694 117.182Z" fill="#FFB9B9"/>
<path d="M162.523 120.725C162.523 120.725 161.97 118.888 161.003 120.2C160.036 121.512 159.069 124.398 158.516 124.529C157.963 124.66 154.095 128.727 157.963 128.727C161.832 128.727 163.076 127.022 163.076 127.022C163.076 127.022 166.944 125.579 166.944 125.316C166.944 125.054 166.392 120.2 166.115 120.2C165.839 120.2 165.701 121.118 165.01 121.118C164.319 121.118 162.523 120.725 162.523 120.725Z" fill="#2F2E41"/>
<path d="M170.951 117.838L170.813 121.381L174.129 122.692V117.576L170.951 117.838Z" fill="#FFB9B9"/>
<path d="M174.543 121.38C174.543 121.38 172.747 119.544 171.78 119.937C171.302 120.12 170.84 120.34 170.398 120.593C170.398 120.593 169.846 122.299 169.569 123.742C169.293 125.185 169.155 125.841 168.879 126.366C168.602 126.89 168.326 128.858 171.089 129.121C173.853 129.383 174.682 127.94 174.682 127.94L175.372 124.529C175.372 124.529 175.096 121.38 174.543 121.38Z" fill="#2F2E41"/>
<path d="M163.49 80.0555C163.49 80.0555 159.483 88.5829 160.036 96.3231C160.036 96.3231 158.654 99.3405 159.483 104.063C160.312 108.786 161.418 118.232 161.418 118.232C161.418 118.232 165.148 118.626 165.424 117.97C165.424 117.97 165.701 111.41 165.977 111.148C166.253 110.885 165.839 104.85 165.424 103.67C165.01 102.489 169.293 90.8131 169.293 90.8131L168.188 76.2509L163.49 80.0555Z" fill="#2F2E41"/>
<path opacity="0.1" d="M163.49 80.0555C163.49 80.0555 159.483 88.5829 160.036 96.3231C160.036 96.3231 158.654 99.3405 159.483 104.063C160.312 108.786 161.418 118.232 161.418 118.232C161.418 118.232 165.148 118.626 165.424 117.97C165.424 117.97 165.701 111.41 165.977 111.148C166.253 110.885 165.839 104.85 165.424 103.67C165.01 102.489 169.293 90.8131 169.293 90.8131L168.188 76.2509L163.49 80.0555Z" fill="black"/>
<path d="M162.385 79.5307L165.01 84.9095C165.01 84.9095 166.253 97.1102 166.944 98.6845C166.944 98.6845 167.221 103.145 168.464 104.588C169.708 106.031 170.675 118.757 170.675 118.757C170.675 118.757 174.129 119.675 174.405 118.757C174.682 117.838 175.511 111.541 175.511 111.541C175.511 111.541 175.787 106.162 174.267 102.62C172.747 99.0781 176.063 86.3526 176.063 86.3526C176.063 86.3526 179.517 80.1866 174.543 75.2014L162.385 79.5307Z" fill="#2F2E41"/>
<path d="M169.708 50.5376C172.836 50.5376 175.372 48.1294 175.372 45.1588C175.372 42.1881 172.836 39.78 169.708 39.78C166.579 39.78 164.043 42.1881 164.043 45.1588C164.043 48.1294 166.579 50.5376 169.708 50.5376Z" fill="#FFB9B9"/>
<path d="M174.958 53.2926C174.958 53.2926 169.017 53.2926 168.188 53.9486C167.983 54.1337 167.711 54.237 167.428 54.237C167.145 54.237 166.873 54.1337 166.668 53.9486C166.668 53.9486 164.595 54.0797 164.043 55.654C163.49 57.2283 161.832 59.3274 161.832 59.3274C161.832 59.3274 159.345 61.0328 160.727 65.4933C162.108 69.9538 161.003 77.1693 161.003 77.1693C161.003 77.1693 159.898 78.7436 161.003 79.3995C162.108 80.0555 162.523 80.3178 162.385 80.8426C162.247 81.3674 174.958 76.5133 174.958 75.595C174.958 74.6767 174.682 73.8895 174.958 73.4959C175.234 73.1024 175.511 72.4464 175.234 71.7905C174.958 71.1345 175.511 71.0033 175.372 70.3474C175.234 69.6914 176.063 64.8374 176.616 62.7383C177.169 60.6393 177.03 53.4238 174.958 53.2926Z" fill="#D0CDE1"/>
<path d="M154.029 66.1503C154.029 66.1503 148.568 62.2135 148.154 63.6566C147.739 65.0997 152.16 68.3795 152.16 68.3795L154.029 66.1503Z" fill="#FFB9B9"/>
<path d="M172.056 53.9485C172.056 53.9485 165.563 64.9686 165.424 66.5428C165.286 68.1171 165.286 68.2483 164.734 68.1171C164.181 67.9859 156.582 67.1988 155.891 67.4612C155.2 67.7236 153.818 65.8869 153.818 65.8869C153.818 65.8869 151.193 68.3795 151.746 68.9043C152.299 69.429 153.957 69.6914 154.233 70.3474C154.509 71.0033 154.924 71.6593 156.167 71.5281C157.411 71.3969 165.839 73.6271 166.944 73.2336C168.05 72.84 168.326 72.184 168.879 72.184C169.431 72.184 170.537 71.6593 170.537 71.5281C170.537 71.3969 174.405 64.4438 174.405 64.4438C174.405 64.4438 178.965 54.9981 172.056 53.9485Z" fill="#D0CDE1"/>
<path d="M166.903 48.5952C166.824 48.0625 166.537 47.5793 166.389 47.0599C166.274 46.6442 166.248 46.2107 166.314 45.7853C166.38 45.36 166.535 44.9517 166.771 44.585C167.584 43.3389 169.179 42.787 170.292 41.7711C170.315 42.2885 170.693 42.7308 171.111 43.0636C171.529 43.3964 172.008 43.6663 172.362 44.0604C172.702 44.4763 172.95 44.9531 173.091 45.4622C173.309 46.0522 173.407 46.6761 173.379 47.3008C173.363 47.6129 173.28 47.9187 173.136 48.1996C172.992 48.4805 172.789 48.7306 172.54 48.9347C172.126 49.2457 171.546 49.4233 171.346 49.8873C171.268 50.1193 171.245 50.365 171.28 50.6064C171.375 52.0498 171.463 53.5189 171.105 54.9245C170.747 56.3302 169.87 57.6882 168.496 58.3113C169.625 58.3874 170.779 58.4616 171.875 58.1909C172.97 57.9202 174.018 57.2385 174.396 56.225C174.583 55.725 174.6 55.1689 174.865 54.7019C175.535 53.5199 177.386 53.466 178.295 52.438C178.659 52.0266 178.835 51.4964 178.966 50.9737C179.733 47.8977 179.194 44.6315 178.025 41.6715C177.622 40.6513 177.121 39.6241 176.257 38.907C175.522 38.2968 174.583 37.9606 173.654 37.6735C172.299 37.2545 170.904 36.9112 169.479 36.8669C168.86 36.8324 168.24 36.9012 167.646 37.0701C167.06 37.2711 166.515 37.5662 166.034 37.9423C163.803 39.5908 162.284 42.2253 162.485 44.9028C162.607 46.5228 163.33 48.056 164.259 49.42C164.584 49.897 165.351 50.9142 166.064 50.6143C166.711 50.3422 166.987 49.1706 166.903 48.5952Z" fill="#2F2E41"/>
<path d="M78.3056 63.6399C78.3056 65.5001 79.8136 67.0081 81.6738 67.0081H82.032C83.8922 67.0081 85.4002 65.5001 85.4002 63.6399C85.4002 61.7796 83.8922 60.2716 82.032 60.2716H81.6738C79.8136 60.2716 78.3056 61.7796 78.3056 63.6399ZM113.921 63.6399C113.921 61.7796 112.413 60.2716 110.552 60.2716H110.194C108.334 60.2716 106.826 61.7796 106.826 63.6399C106.826 65.5001 108.334 67.0081 110.194 67.0081H110.552C112.413 67.0081 113.921 65.5001 113.921 63.6399ZM92.5658 63.6399C92.5658 65.5001 94.0738 67.0081 95.9341 67.0081H96.2923C98.1525 67.0081 99.6605 65.5001 99.6605 63.6399C99.6605 61.7796 98.1525 60.2716 96.2923 60.2716H95.9341C94.0738 60.2716 92.5658 61.7796 92.5658 63.6399Z" fill="#3964FC"/>
<path d="M37.0868 40.1966C40.3837 40.1966 43.0563 38.2172 43.0563 35.7754C43.0563 33.3337 40.3837 31.3542 37.0868 31.3542C33.7898 31.3542 31.1172 33.3337 31.1172 35.7754C31.1172 38.2172 33.7898 40.1966 37.0868 40.1966Z" fill="#2F2E41"/>
<path d="M38.1016 66.2136C38.1016 66.2136 43.4742 66.5537 44.4293 65.8736C45.3845 65.1934 49.4438 66.7805 49.802 67.6874C50.1601 68.5943 44.0712 68.7077 43.116 68.7077C42.1609 68.7077 37.624 70.068 37.624 70.068L38.1016 66.2136Z" fill="#A0616A"/>
<path d="M27.0383 119.021C27.0383 119.021 24.5345 125.016 25.8408 125.74C27.1472 126.463 40.864 125.947 40.864 125.947C40.864 125.947 43.1502 124.603 40.5375 123.673C40.5375 123.673 38.3602 123.569 36.9449 122.742C35.5297 121.915 33.8968 120.365 33.8968 120.365C33.8968 120.365 33.7879 118.091 32.917 118.608C32.6564 118.771 32.4346 118.984 32.2659 119.233C32.0972 119.482 31.9852 119.762 31.9372 120.055L27.0383 119.021Z" fill="#2F2E41"/>
<path opacity="0.1" d="M27.0383 119.021C27.0383 119.021 24.5345 125.016 25.8408 125.74C27.1472 126.463 40.864 125.947 40.864 125.947C40.864 125.947 43.1502 124.603 40.5375 123.673C40.5375 123.673 38.3602 123.569 36.9449 122.742C35.5297 121.915 33.8968 120.365 33.8968 120.365C33.8968 120.365 33.7879 118.091 32.917 118.608C32.6564 118.771 32.4346 118.984 32.2659 119.233C32.0972 119.482 31.9852 119.762 31.9372 120.055L27.0383 119.021Z" fill="black"/>
<path d="M65.8849 84.8388C67.4096 83.3959 67.4091 80.9685 65.884 79.5263L55.0615 69.2919C52.9761 67.3199 52.9753 64.001 55.0596 62.0279L65.8688 51.7958C67.3928 50.3531 67.3926 47.9265 65.8684 46.4841C64.4579 45.1492 62.2499 45.1498 60.84 46.4853L44.4309 62.0296C42.3485 64.0022 42.3491 67.3188 44.4323 69.2907L60.858 84.8385C62.2679 86.173 64.4749 86.1732 65.8849 84.8388Z" fill="#3964FC"/>
<path d="M23.1776 120.855C23.1776 120.855 20.4316 127.43 21.8643 128.224C23.297 129.017 38.3404 128.45 38.3404 128.45C38.3404 128.45 40.8476 126.977 37.9822 125.956C37.9822 125.956 35.5944 125.843 34.0423 124.936C32.4902 124.029 30.6993 122.329 30.6993 122.329C30.6993 122.329 30.5799 119.835 29.6248 120.402C29.339 120.58 29.0958 120.814 28.9107 121.087C28.7257 121.361 28.6029 121.668 28.5502 121.989L23.1776 120.855Z" fill="#2F2E41"/>
<path d="M37.2658 79.1371L35.5943 93.421C35.5943 93.421 34.9974 100.223 33.2065 101.697C33.2065 101.697 33.2065 103.85 32.6095 104.531L31.7738 113.486C31.7738 113.486 32.9677 116.774 32.8483 117.341C32.7289 117.908 33.3259 119.721 33.2065 119.948C33.0871 120.175 27.4757 119.948 27.4757 119.948L28.6696 101.697L32.3708 76.303L37.2658 79.1371Z" fill="#2F2E41"/>
<path opacity="0.1" d="M37.2658 79.1371L35.5943 93.421C35.5943 93.421 34.9974 100.223 33.2065 101.697C33.2065 101.697 33.2065 103.85 32.6095 104.531L31.7738 113.486C31.7738 113.486 32.9677 116.774 32.8483 117.341C32.7289 117.908 33.3259 119.721 33.2065 119.948C33.0871 120.175 27.4757 119.948 27.4757 119.948L28.6696 101.697L32.3708 76.303L37.2658 79.1371Z" fill="black"/>
<path d="M34.281 78.6837C34.281 78.6837 32.9677 90.3602 32.3708 92.8542C31.9954 94.4966 31.7559 96.1643 31.6544 97.8422C31.6544 97.8422 31.535 101.47 30.4605 102.49C30.1461 102.786 29.8991 103.139 29.7348 103.53C29.5705 103.92 29.4924 104.338 29.5054 104.757C29.5054 104.757 28.4308 116.207 29.0278 117.568C29.6247 118.928 30.2217 120.062 29.6247 120.968C29.0278 121.875 22.4612 121.875 22.4612 121.195C22.4612 120.515 22.4612 119.948 22.1031 119.608C21.7449 119.268 22.1031 117.114 22.1031 117.114C22.1031 117.114 20.6704 107.025 21.9837 104.077C23.297 101.13 23.8939 93.0809 23.8939 93.0809C23.8939 93.0809 22.9388 83.8984 21.7449 82.4247C20.551 80.951 21.9837 75.7362 21.9837 75.7362L34.281 78.6837Z" fill="#2F2E41"/>
<path d="M30.9197 42.4231C31.0585 42.7234 31.3907 42.8905 31.6932 43.0487C33.4461 43.9657 34.9134 45.2951 36.359 46.6092C35.9983 45.4485 36.0751 44.2047 36.5763 43.0921C36.7489 42.7126 36.9751 42.3046 36.8518 41.9082C36.761 41.6166 36.4996 41.4064 36.2463 41.2204C35.6565 40.7872 35.0399 40.3878 34.4 40.0243C33.953 39.7704 33.0339 39.0943 32.5209 39.1679C32.4939 39.826 32.4799 40.4144 32.1764 41.0295C32.1043 41.1754 30.9728 42.5379 30.9197 42.4231Z" fill="#A0616A"/>
<path d="M37.0271 43.8809C39.7305 43.8809 41.9221 41.8 41.9221 39.233C41.9221 36.666 39.7305 34.5851 37.0271 34.5851C34.3236 34.5851 32.132 36.666 32.132 39.233C32.132 41.8 34.3236 43.8809 37.0271 43.8809Z" fill="#A0616A"/>
<path d="M37.2658 50.2293C37.2658 50.2293 38.1016 46.2616 35.7137 44.9012C33.3259 43.5409 30.5799 41.9538 30.5799 41.9538C30.5799 41.9538 29.7442 41.8404 29.386 43.5409C29.386 43.5409 22.5806 44.7879 21.8643 50.9095C21.1479 57.0312 22.3419 65.9869 22.3419 65.9869C22.3419 65.9869 21.2673 73.809 19.954 78.0035C19.954 78.0035 18.8795 78.9104 23.6552 77.5501C28.4308 76.1897 36.7883 81.4044 36.7883 81.4044C36.7883 81.4044 37.624 80.6109 37.624 80.0441C37.624 79.4772 38.5792 76.1897 38.5792 76.1897C38.5792 76.1897 39.4149 62.2459 39.7731 60.6588C40.1312 59.0717 38.3404 50.4561 37.2658 50.2293Z" fill="#575A89"/>
<path d="M35.8734 39.7118C36.1675 39.5571 36.4972 39.4737 36.8334 39.4691C37.17 39.4643 37.4987 39.3713 37.7831 39.2004C38.2455 38.8633 38.2794 38.2119 38.6177 37.7611C39.1074 37.1085 40.0844 37.0299 40.9277 37.0626C41.4435 37.0825 41.9989 37.1118 42.4333 36.8469C42.8791 36.575 43.0812 36.0626 43.2316 35.5801C43.4094 35.0095 43.5244 34.3118 43.0838 33.8886C42.7779 33.5947 42.295 33.5366 41.9551 33.2785C41.6027 33.0109 41.4577 32.5754 41.2662 32.1875C41.0482 31.7149 40.7034 31.3048 40.2663 30.9984C39.6252 30.5754 38.8063 30.4805 38.0257 30.4885C37.245 30.4964 36.4611 30.5939 35.6863 30.5029C35.0515 30.4284 34.4186 30.2279 33.7859 30.3167C32.9796 30.43 32.3126 31.0075 31.9153 31.6833C31.518 32.359 31.3475 33.1303 31.1822 33.8881L30.7327 35.9492C30.5932 36.5884 30.4532 37.2447 30.5609 37.8894C30.784 39.226 32.0289 40.2884 32.1147 41.6393C32.1965 41.2663 32.3745 40.9184 32.6327 40.6268C32.891 40.3352 33.2214 40.109 33.5944 39.9685C33.688 39.9251 33.7942 39.9129 33.8959 39.9338C34.0196 39.9713 34.0919 40.0887 34.17 40.1872C34.3745 40.4454 35.017 40.8371 35.3811 40.6539C35.707 40.49 35.4637 39.9756 35.8734 39.7118Z" fill="#2F2E41"/>
<path d="M23.5358 60.8855C23.5358 60.8855 22.7 65.8736 26.1624 65.4201C26.1624 65.4201 27.9533 65.1934 28.192 65.4201C28.4308 65.6468 37.2658 64.1731 38.4597 62.9261C38.4597 62.9261 39.8924 62.4726 40.6088 63.1528C41.3251 63.833 48.4886 64.5132 46.3396 62.4726C44.1905 60.4321 40.8476 59.9786 40.8476 59.9786L36.3107 60.2054C36.3107 60.2054 33.9228 60.8856 32.4901 60.2054C31.0574 59.5252 26.9981 59.7519 26.9981 59.7519L23.5358 60.8855Z" fill="#A0616A"/>
<path d="M28.4309 45.1279C28.4309 45.1279 23.0582 45.6947 23.0582 53.0634V62.4726C23.0582 62.4726 26.043 61.2256 26.64 61.339C27.2369 61.4523 29.6248 59.8653 29.6248 59.8653C29.6248 59.8653 32.3708 53.7436 32.132 52.0431C31.8932 50.3427 32.0126 45.3547 28.4309 45.1279Z" fill="#575A89"/>
<path d="M37.027 38.6095C39.5657 38.6095 41.6236 37.5944 41.6236 36.3422C41.6236 35.09 39.5657 34.075 37.027 34.075C34.4884 34.075 32.4305 35.09 32.4305 36.3422C32.4305 37.5944 34.4884 38.6095 37.027 38.6095Z" fill="#2F2E41"/>
<path d="M32.7289 40.5367C33.6191 40.5367 34.3407 38.8364 34.3407 36.739C34.3407 34.6416 33.6191 32.9413 32.7289 32.9413C31.8388 32.9413 31.1172 34.6416 31.1172 36.739C31.1172 38.8364 31.8388 40.5367 32.7289 40.5367Z" fill="#2F2E41"/>
</svg>
