<svg width="661" height="447" viewBox="0 0 661 447" fill="none" xmlns="http://www.w3.org/2000/svg">
<path d="M385.157 273.987V383.299L402.926 413.097L404.278 415.364H474.39L475.806 273.987H385.157Z" fill="#E1E5EF"/>
<path opacity="0.1" d="M385.157 273.987V383.299L402.926 413.098L404.017 273.987H385.157Z" fill="black"/>
<path d="M215.898 271.071V380.384L198.129 410.183L196.777 412.449H126.666L125.249 271.071H215.898Z" fill="#E1E5EF"/>
<path opacity="0.1" d="M215.897 271.071V380.384L198.129 410.182L197.038 271.071H215.897Z" fill="black"/>
<path d="M497.052 268.886V275.444H116.042V265.97L151.452 247.023H465.891L497.052 268.886Z" fill="#E1E5EF"/>
<path opacity="0.1" d="M497.052 268.886V275.444H116.042V265.97L497.052 268.886Z" fill="black"/>
<path d="M170.573 301.679H153.576L146.494 296.578H178.363L170.573 301.679Z" fill="#3F3D56"/>
<path d="M170.573 322.813H153.576L146.494 317.712H178.363L170.573 322.813Z" fill="#3F3D56"/>
<path d="M170.573 352.692H153.576L146.494 347.59H178.363L170.573 352.692Z" fill="#3F3D56"/>
<path d="M170.573 382.57H153.576L146.494 377.469H178.363L170.573 382.57Z" fill="#3F3D56"/>
<path d="M430.481 304.594H447.479L454.56 299.493H422.691L430.481 304.594Z" fill="#3F3D56"/>
<path d="M430.481 325.728H447.479L454.56 320.626H422.691L430.481 325.728Z" fill="#3F3D56"/>
<path d="M430.481 355.607H447.479L454.56 350.506H422.691L430.481 355.607Z" fill="#3F3D56"/>
<path d="M430.481 385.485H447.479L454.56 380.384H422.691L430.481 385.485Z" fill="#3F3D56"/>
<path d="M442.056 120.614H298.967C298.256 120.614 297.553 120.758 296.896 121.038C296.24 121.318 295.643 121.728 295.14 122.245C294.638 122.762 294.239 123.376 293.967 124.051C293.695 124.727 293.556 125.451 293.556 126.183V225.368C293.556 226.1 293.695 226.824 293.967 227.499C294.239 228.175 294.638 228.789 295.14 229.306C295.643 229.823 296.24 230.233 296.896 230.513C297.553 230.793 298.256 230.937 298.967 230.937H353.285L351.25 244.306C351.25 244.306 339.62 250.664 347.797 250.851C355.975 251.038 394.498 250.851 394.498 250.851C394.498 250.851 401.948 250.851 390.137 244.119L388.223 230.937H442.056C442.767 230.937 443.471 230.793 444.127 230.513C444.784 230.233 445.38 229.823 445.883 229.306C446.385 228.789 446.784 228.175 447.056 227.499C447.328 226.824 447.468 226.1 447.468 225.368V126.183C447.468 125.451 447.328 124.727 447.056 124.051C446.784 123.376 446.385 122.762 445.883 122.245C445.38 121.728 444.784 121.318 444.127 121.038C443.471 120.758 442.767 120.614 442.056 120.614Z" fill="#3F3D56"/>
<path d="M442.289 126.504H298.734V209.153H442.289V126.504Z" fill="#F2F3F6"/>
<path d="M370.512 124.822C371.014 124.822 371.421 124.403 371.421 123.887C371.421 123.37 371.014 122.951 370.512 122.951C370.01 122.951 369.603 123.37 369.603 123.887C369.603 124.403 370.01 124.822 370.512 124.822Z" fill="#F2F2F2"/>
<path d="M370.511 226.916C372.418 226.916 373.964 225.326 373.964 223.364C373.964 221.402 372.418 219.811 370.511 219.811C368.604 219.811 367.059 221.402 367.059 223.364C367.059 225.326 368.604 226.916 370.511 226.916Z" fill="#F2F2F2"/>
<path d="M365.131 260.948V262.818H267.369V261.322L267.504 260.948L269.913 254.217H363.132L365.131 260.948Z" fill="#3F3D56"/>
<path d="M402.754 259.118C402.576 259.901 401.903 260.728 400.384 261.509C394.933 264.314 383.848 260.761 383.848 260.761C383.848 260.761 375.308 259.265 375.308 255.339C375.547 255.17 375.797 255.017 376.056 254.881C378.348 253.633 385.947 250.554 399.422 255.011C400.415 255.332 401.301 255.929 401.983 256.738C402.285 257.044 402.513 257.419 402.647 257.833C402.781 258.246 402.817 258.687 402.754 259.118Z" fill="#3F3D56"/>
<path opacity="0.1" d="M402.753 259.118C396.081 261.749 390.133 261.945 384.029 257.582C381.721 255.827 378.926 254.879 376.056 254.881C378.348 253.633 385.947 250.554 399.421 255.011C400.414 255.332 401.301 255.929 401.983 256.738C402.285 257.044 402.512 257.419 402.646 257.832C402.78 258.246 402.817 258.687 402.753 259.118Z" fill="black"/>
<path d="M394.387 257.582C395.691 257.582 396.749 257.248 396.749 256.834C396.749 256.421 395.691 256.087 394.387 256.087C393.082 256.087 392.024 256.421 392.024 256.834C392.024 257.248 393.082 257.582 394.387 257.582Z" fill="#F2F2F2"/>
<path opacity="0.1" d="M365.131 260.948V262.818H267.369V261.322L267.504 260.948H365.131Z" fill="black"/>
<path d="M143.026 49.4375C142.034 49.3537 141.041 49.582 140.178 50.0924C139.33 50.6896 138.796 51.736 138.251 52.7097C136.166 56.477 133.343 59.7577 129.962 62.344C127.499 64.2006 124.368 66.5155 124.789 69.9385C125.012 71.069 125.418 72.1528 125.99 73.1444C128.262 77.8639 134.462 81.511 133.852 86.8963C136.109 83.0077 133.09 81.0849 135.347 77.1963C136.422 75.3444 138.29 73.254 139.913 74.417C140.456 74.8064 140.813 75.5048 141.379 75.8465C142.729 76.6617 144.165 75.1031 145.36 73.9992C149.481 70.1923 155.342 71.1896 160.47 72.3757C162.892 72.9357 165.551 73.6704 166.982 76.0515C168.864 79.1821 165.194 82.5633 164.267 86.1028C164.191 86.4044 164.188 86.7204 164.257 87.0237C164.325 87.3271 164.465 87.6087 164.662 87.8446C164.86 88.0805 165.11 88.2636 165.392 88.3783C165.673 88.493 165.977 88.5358 166.279 88.5031C167.817 88.3469 169.64 88.2189 169.731 87.524C171.667 87.595 174.039 87.3693 174.869 85.2949C175.123 84.4741 175.257 83.6193 175.267 82.7581C175.571 79.2735 177.008 76.0945 177.96 72.778C178.913 69.4615 179.327 65.5747 177.72 62.6343C177.146 61.6559 176.437 60.769 175.615 60.0015C166.497 50.9214 154.508 49.424 143.026 49.4375Z" fill="#2F2E41"/>
<path d="M135.834 93.6983C135.834 93.6983 137.817 110.703 130.546 112.064C123.274 113.424 137.156 136.551 137.156 136.551L170.206 140.632L162.274 113.424C162.274 113.424 156.986 111.383 160.291 97.7794C163.596 84.1755 135.834 93.6983 135.834 93.6983Z" fill="#FFB8B8"/>
<path d="M115.673 385.843L118.317 423.254H132.198L128.232 385.843H115.673Z" fill="#FFB8B8"/>
<path d="M217.47 315.102L219.453 346.391L234.656 339.589L228.707 313.742L217.47 315.102Z" fill="#FFB8B8"/>
<path d="M105.758 243.001C105.758 243.001 106.419 282.453 110.385 295.377C114.351 308.3 113.69 308.98 113.029 311.021C112.368 313.062 111.707 311.701 111.707 315.102C111.707 318.503 110.385 372.239 111.707 377C113.029 381.762 107.741 389.924 111.707 390.604C115.673 391.284 134.181 390.604 134.842 386.523C135.503 382.442 129.554 381.081 132.198 378.361C134.842 375.64 138.809 319.864 138.809 319.864L148.063 281.092L165.249 260.686H201.605L212.842 305.58C212.842 305.58 208.215 318.503 211.52 318.503C214.825 318.503 234.655 322.584 234.655 307.62C234.655 292.656 228.045 248.443 226.723 247.083C225.401 245.722 227.384 240.961 225.401 238.92C223.418 236.88 200.283 222.595 191.69 219.875C183.096 217.154 171.042 213.916 171.042 213.916L105.758 243.001Z" fill="#2F2E41"/>
<path d="M234.656 334.148C234.656 334.148 224.74 330.747 220.113 340.95C215.486 351.153 217.469 353.874 217.469 353.874C217.469 353.874 232.673 359.315 235.317 356.594C236.467 355.411 240.12 354.999 243.88 354.912C249.607 354.78 251.13 346.443 245.722 344.502C245.56 344.444 245.397 344.393 245.232 344.351C239.944 342.99 234.656 334.148 234.656 334.148Z" fill="#2F2E41"/>
<path d="M150.707 104.921C161.659 104.921 170.538 95.7855 170.538 84.5156C170.538 73.2457 161.659 64.1097 150.707 64.1097C139.755 64.1097 130.877 73.2457 130.877 84.5156C130.877 95.7855 139.755 104.921 150.707 104.921Z" fill="#FFB8B8"/>
<path d="M124.928 120.566C124.928 120.566 157.317 127.368 165.25 116.485C173.182 105.602 176.487 147.094 176.487 147.094L180.453 190.626L174.504 214.433C174.504 214.433 143.436 240.281 133.521 242.321C123.606 244.362 108.402 245.722 108.402 245.722C108.402 245.722 113.029 170.22 113.029 168.86C113.029 167.5 124.928 120.566 124.928 120.566Z" fill="#3964FC"/>
<path d="M134.778 107.809C134.778 107.809 127.572 103.561 125.588 107.642C123.605 111.724 105.097 121.926 103.114 121.926C101.131 121.926 107.08 178.383 104.436 185.185C101.792 191.987 89.2328 241.641 96.5039 245.722C103.775 249.803 98.4869 241.641 105.758 251.844C113.029 262.047 148.724 262.047 150.707 257.966C152.69 253.885 134.843 223.276 138.148 194.708C141.453 166.139 146.741 126.688 142.114 121.246C137.487 115.805 134.778 107.809 134.778 107.809Z" fill="#2F2E41"/>
<path d="M158.64 112.404L159.56 109.143C159.56 109.143 187.063 118.525 188.385 124.647C189.707 130.769 189.046 173.621 184.419 177.022C179.792 180.423 173.182 185.865 177.809 194.027C182.436 202.19 187.724 211.032 191.69 211.712C195.656 212.393 202.928 217.154 200.945 221.915C198.961 226.677 175.165 217.834 175.165 217.834C175.165 217.834 159.301 205.591 159.962 186.545C160.623 167.5 158.64 112.404 158.64 112.404Z" fill="#2F2E41"/>
<path d="M181.775 192.667L165.911 223.276C165.911 223.276 142.775 247.763 155.995 250.484C169.216 253.204 176.487 228.037 176.487 228.037L193.673 202.87L181.775 192.667Z" fill="#FFB8B8"/>
<path d="M143.991 54.7767C143.192 54.7158 142.391 54.8756 141.672 55.2396C141.022 55.7283 140.486 56.3603 140.103 57.0895C138.34 59.8185 136.042 62.138 133.356 63.8989C131.351 65.2111 128.803 66.8473 129.146 69.2667C129.332 70.0779 129.663 70.8463 130.123 71.5326C131.979 74.902 132.717 78.8017 132.227 82.6417L137.74 74.3964C138.615 73.0876 140.135 71.6101 141.456 72.4321C141.899 72.7073 142.189 73.2009 142.65 73.4424C143.749 74.0186 144.918 72.917 145.891 72.1367C149.246 69.446 154.017 70.1509 158.191 70.9893C160.162 71.3851 162.327 71.9043 163.492 73.5873C165.428 76.3841 163.407 80.4252 164.537 83.6561C164.853 83.4282 165.121 83.1373 165.326 82.8006C165.531 82.4639 165.669 82.0883 165.73 81.696C167.306 81.7461 169.237 81.5867 169.912 80.1205C170.118 79.5459 170.227 78.9396 170.236 78.3275C170.484 75.8646 171.654 73.6177 172.429 71.2736C173.204 68.9295 173.541 66.1824 172.233 64.1041C171.755 63.3999 171.177 62.7728 170.519 62.2433C163.097 55.8255 153.338 54.7672 143.991 54.7767Z" fill="#2F2E41"/>
<path d="M181.774 121.926L187.933 123.609C187.933 123.609 202.266 161.378 198.961 187.225C195.656 213.073 193.673 207.631 193.673 207.631C193.673 207.631 188.385 195.388 176.486 198.108L181.774 121.926Z" fill="#2F2E41"/>
<path d="M116.589 418.309C114.995 420.538 115.314 423.725 113.902 426.08C112.678 428.122 110.372 429.192 108.841 431.001C108.352 431.602 107.917 432.247 107.54 432.928C106.12 435.375 104.965 438.513 106.364 440.973C107.489 442.953 109.854 443.727 112.023 444.254C114.764 444.921 117.613 445.454 120.386 444.945C123.159 444.435 125.869 442.688 126.858 439.974C127.052 439.291 127.283 438.62 127.55 437.964C129.053 434.92 133.767 434.887 135.305 431.86C136.382 429.743 135.392 427.183 134.403 425.02L131.382 418.416C130.379 416.224 126.315 417.485 124.196 416.96C121.433 416.275 118.577 415.52 116.589 418.309Z" fill="#2F2E41"/>
<path d="M94.5215 206.271L122.284 250.484C122.284 250.484 139.47 272.93 144.758 262.727C150.047 252.524 126.25 235.519 126.25 235.519L108.403 201.509L94.5215 206.271Z" fill="#FFB8B8"/>
<path d="M108.402 123.287L103.113 121.926C103.113 121.926 92.5373 125.327 89.8932 139.611C87.2492 153.896 89.2322 211.032 92.5373 211.712C95.8423 212.393 108.861 201.764 110.945 204.017C113.029 206.271 106.419 194.707 108.402 188.586C110.385 182.464 108.402 123.287 108.402 123.287Z" fill="#2F2E41"/>
<path d="M354.807 153.649H341.955C340.786 153.649 339.839 154.596 339.839 155.765C339.839 156.934 340.786 157.881 341.955 157.881H354.807C355.976 157.881 356.923 156.934 356.923 155.765C356.923 154.596 355.976 153.649 354.807 153.649Z" fill="#3964FC"/>
<path d="M413.971 153.649H412.192C411.024 153.649 410.076 154.596 410.076 155.765C410.076 156.934 411.024 157.881 412.192 157.881H413.971C415.14 157.881 416.087 156.934 416.087 155.765C416.087 154.596 415.14 153.649 413.971 153.649Z" fill="#3964FC"/>
<path d="M425.994 153.649H424.215C423.046 153.649 422.099 154.596 422.099 155.765C422.099 156.934 423.046 157.881 424.215 157.881H425.994C427.162 157.881 428.11 156.934 428.11 155.765C428.11 154.596 427.162 153.649 425.994 153.649Z" fill="#3964FC"/>
<path d="M401.632 153.649H365.051C363.882 153.649 362.935 154.596 362.935 155.765C362.935 156.934 363.882 157.881 365.051 157.881H401.632C402.8 157.881 403.748 156.934 403.748 155.765C403.748 154.596 402.8 153.649 401.632 153.649Z" fill="#3964FC"/>
<path d="M333.294 180.996H320.441C319.273 180.996 318.325 181.943 318.325 183.112C318.325 184.281 319.273 185.228 320.441 185.228H333.294C334.462 185.228 335.41 184.281 335.41 183.112C335.41 181.943 334.462 180.996 333.294 180.996Z" fill="#3964FC"/>
<path d="M392.458 180.996H390.679C389.51 180.996 388.562 181.943 388.562 183.112C388.562 184.281 389.51 185.228 390.679 185.228H392.458C393.626 185.228 394.574 184.281 394.574 183.112C394.574 181.943 393.626 180.996 392.458 180.996Z" fill="#3964FC"/>
<path d="M404.479 180.996H402.7C401.531 180.996 400.584 181.943 400.584 183.112C400.584 184.281 401.531 185.228 402.7 185.228H404.479C405.648 185.228 406.595 184.281 406.595 183.112C406.595 181.943 405.648 180.996 404.479 180.996Z" fill="#3964FC"/>
<path d="M380.118 180.996H343.537C342.368 180.996 341.421 181.943 341.421 183.112C341.421 184.281 342.368 185.228 343.537 185.228H380.118C381.287 185.228 382.234 184.281 382.234 183.112C382.234 181.943 381.287 180.996 380.118 180.996Z" fill="#3964FC"/>
<path d="M403.846 163.09H390.994C389.825 163.09 388.878 164.037 388.878 165.206C388.878 166.375 389.825 167.322 390.994 167.322H403.846C405.015 167.322 405.962 166.375 405.962 165.206C405.962 164.037 405.015 163.09 403.846 163.09Z" fill="#3964FC"/>
<path d="M426.943 163.09H414.091C412.922 163.09 411.975 164.037 411.975 165.206C411.975 166.375 412.922 167.322 414.091 167.322H426.943C428.112 167.322 429.059 166.375 429.059 165.206C429.059 164.037 428.112 163.09 426.943 163.09Z" fill="#3964FC"/>
<path d="M322.22 163.09H320.441C319.273 163.09 318.325 164.037 318.325 165.206C318.325 166.375 319.273 167.322 320.441 167.322H322.22C323.389 167.322 324.336 166.375 324.336 165.206C324.336 164.037 323.389 163.09 322.22 163.09Z" fill="#3964FC"/>
<path d="M334.243 163.09H332.464C331.295 163.09 330.348 164.037 330.348 165.206C330.348 166.375 331.295 167.322 332.464 167.322H334.243C335.411 167.322 336.359 166.375 336.359 165.206C336.359 164.037 335.411 163.09 334.243 163.09Z" fill="#3964FC"/>
<path d="M381.067 163.09H344.486C343.318 163.09 342.37 164.037 342.37 165.206C342.37 166.375 343.318 167.322 344.486 167.322H381.067C382.236 167.322 383.183 166.375 383.183 165.206C383.183 164.037 382.236 163.09 381.067 163.09Z" fill="#3964FC"/>
<path d="M368.412 172.206H355.56C354.391 172.206 353.443 173.153 353.443 174.322C353.443 175.491 354.391 176.438 355.56 176.438H368.412C369.581 176.438 370.528 175.491 370.528 174.322C370.528 173.153 369.581 172.206 368.412 172.206Z" fill="#3964FC"/>
<path d="M345.316 172.206H332.464C331.295 172.206 330.348 173.153 330.348 174.322C330.348 175.491 331.295 176.438 332.464 176.438H345.316C346.485 176.438 347.432 175.491 347.432 174.322C347.432 173.153 346.485 172.206 345.316 172.206Z" fill="#3964FC"/>
<path d="M322.22 172.206H320.441C319.273 172.206 318.325 173.153 318.325 174.322C318.325 175.491 319.273 176.438 320.441 176.438H322.22C323.389 176.438 324.336 175.491 324.336 174.322C324.336 173.153 323.389 172.206 322.22 172.206Z" fill="#3964FC"/>
<path d="M426.943 172.206H425.164C423.995 172.206 423.048 173.153 423.048 174.322C423.048 175.491 423.995 176.438 425.164 176.438H426.943C428.112 176.438 429.059 175.491 429.059 174.322C429.059 173.153 428.112 172.206 426.943 172.206Z" fill="#3964FC"/>
<path d="M414.92 172.206H378.339C377.17 172.206 376.223 173.153 376.223 174.322C376.223 175.491 377.17 176.438 378.339 176.438H414.92C416.088 176.438 417.036 175.491 417.036 174.322C417.036 173.153 416.088 172.206 414.92 172.206Z" fill="#3964FC"/>
<path d="M546.976 81.9977C540.142 70.1146 526.621 69.5608 526.621 69.5608C526.621 69.5608 513.445 67.827 504.993 85.9251C497.115 102.794 486.242 119.081 503.242 123.03L506.313 113.195L508.215 123.763C510.635 123.942 513.064 123.984 515.489 123.891C533.695 123.286 551.033 124.067 550.475 117.345C549.733 108.408 553.552 93.4317 546.976 81.9977Z" fill="#2F2E41"/>
<path d="M521.764 122.485C521.797 123.822 521.787 125.233 521.141 126.394C519.861 128.696 516.735 129.041 514.854 130.855C512.877 132.763 512.653 135.86 512.559 138.648C512.46 141.562 512.377 144.572 513.411 147.288C514.044 148.784 514.844 150.198 515.795 151.504C516.943 153.206 518.102 154.901 519.271 156.589C519.895 157.539 520.591 158.438 521.352 159.277C523.446 161.471 526.318 162.686 529.186 163.553C531.039 164.113 533.04 164.549 534.878 163.941C536.094 163.453 537.215 162.743 538.188 161.847C539.609 160.798 540.871 159.539 541.934 158.11C543.478 155.806 543.906 152.921 544.226 150.141C545.172 141.923 545.54 133.644 545.327 125.371C545.366 124.469 545.209 123.57 544.867 122.739C543.915 120.826 541.365 120.418 540.022 118.772C538.873 117.365 538.826 115.357 538.836 113.52L538.861 108.841C538.901 108.447 538.824 108.05 538.64 107.702C538.473 107.514 538.272 107.362 538.048 107.255C537.825 107.148 537.582 107.087 537.336 107.076C534.51 106.593 531.646 106.396 528.783 106.487C526.462 106.56 522.008 106.36 520.002 107.69C518.18 108.898 520.461 112.232 520.883 114.106C521.45 116.861 521.745 119.668 521.764 122.485Z" fill="#FFB8B8"/>
<path d="M484.018 435.709C483.428 437.774 483.154 440.182 484.379 441.927C485.057 442.801 485.948 443.473 486.962 443.874C489.52 445.02 492.383 445.246 495.17 445.113C495.705 445.139 496.239 445.05 496.738 444.853C497.238 444.655 497.692 444.353 498.073 443.966C504.55 438.448 508.931 430.758 510.446 422.247C510.569 421.807 510.545 421.339 510.38 420.914C510.167 420.585 509.869 420.325 509.519 420.162C508.078 419.233 506.524 418.503 504.898 417.991C495.999 415.627 486.223 427.989 484.018 435.709Z" fill="#2F2E41"/>
<path d="M577.341 406.767C578.537 408.195 580.01 409.35 581.667 410.156C582.498 410.552 583.405 410.749 584.32 410.733C585.236 410.717 586.136 410.488 586.954 410.064C589.402 408.63 590.095 405.297 589.9 402.405C589.538 397.057 587.055 392.237 584.202 387.868C583.299 386.486 581.301 382.371 579.547 382.32C578.714 382.296 575.598 385.404 574.751 385.996C571.658 388.158 569.516 389.704 570.159 393.854C570.877 398.481 574.314 403.434 577.341 406.767Z" fill="#2F2E41"/>
<path d="M527.091 114.451C537.239 114.451 545.466 105.986 545.466 95.5429C545.466 85.1 537.239 76.6344 527.091 76.6344C516.943 76.6344 508.716 85.1 508.716 95.5429C508.716 105.986 516.943 114.451 527.091 114.451Z" fill="#FFB8B8"/>
<path d="M519.524 142.378C518.356 140.59 517.394 138.668 516.659 136.651C515.924 134.613 515.907 132.375 516.609 130.326C514.623 129.14 511.927 130.1 510.481 131.935C509.035 133.77 508.593 136.229 508.465 138.588C508.338 140.947 508.473 143.34 507.974 145.646C506.87 150.748 502.775 154.942 502.471 160.159C502.171 165.291 505.591 169.762 507.274 174.604C508.294 177.621 508.72 180.818 508.528 184.006C508.473 185.036 508.411 186.209 509.116 186.94C509.484 187.271 509.918 187.512 510.388 187.645C518.508 190.585 527.278 190.839 535.882 191.064L550.094 191.434C550.953 191.54 551.824 191.389 552.603 191.001C553.878 190.197 554.049 188.394 554.071 186.855C554.257 173.602 553.709 160.35 553.162 147.107C552.963 142.307 552.761 137.479 551.772 132.784C551.52 131.589 551.107 130.259 550.035 129.731C549.127 129.285 548.05 129.574 547.106 129.933C542.701 131.618 538.894 134.634 536.183 138.585C533.267 142.855 531.833 147.978 528.979 152.281C526.908 155.404 525.71 152.683 524.33 150.383C522.729 147.714 521.127 145.046 519.524 142.378Z" fill="#3964FC"/>
<path d="M514.816 125.197C513.723 125.75 512.488 125.99 511.448 126.642C510.202 127.423 509.355 128.712 508.547 129.962L504.192 136.704C503.168 138.151 502.329 139.728 501.695 141.395C501.015 143.44 500.969 145.641 500.905 147.802C500.728 153.811 500.365 159.81 499.817 165.8C499.601 168.688 499.196 171.557 498.607 174.389C498.088 176.686 497.354 178.925 496.622 181.159L488.551 205.777C488.053 207.004 487.816 208.326 487.856 209.654C487.99 210.972 488.837 212.311 490.104 212.546C490.942 212.619 491.783 212.444 492.527 212.042C495.608 210.718 498.667 209.151 501.039 206.733C504.938 202.759 506.507 197.031 507.925 191.575C508.678 188.681 509.436 185.746 509.433 182.75C509.426 175.949 505.523 169.649 505.42 162.849C505.439 161.001 505.6 159.158 505.903 157.336C506.599 152.384 507.321 147.393 508.988 142.692C510.656 137.991 513.355 133.543 517.325 130.653C519.229 129.268 524.34 126.494 522.344 123.309C520.355 120.134 516.762 124.213 514.816 125.197Z" fill="#575A88"/>
<path d="M550.221 186.141C537.053 185.09 523.873 184.216 510.681 183.52C509.573 183.461 508.312 183.463 507.551 184.295C507.225 184.704 506.981 185.176 506.834 185.683L504.016 193.503C502.768 196.967 502.199 200.238 499.707 202.897C497.215 205.557 494.25 207.714 491.789 210.405C488.118 214.437 485.704 219.507 484.856 224.963C484.17 229.44 484.56 234.079 483.436 238.461C482.051 243.862 484.274 249.486 484.239 255.071C484.187 263.39 483.078 271.659 481.971 279.9C478.762 303.792 475.552 327.685 472.066 351.536C469.204 371.119 466.386 392.257 475.323 409.794C477.459 413.986 480.369 417.966 484.455 420.141C486.717 421.235 489.114 422.009 491.578 422.442C497.907 423.805 504.309 424.78 510.75 425.364C513.362 425.601 516.408 425.597 518.083 423.52C519.207 422.127 519.364 420.186 519.472 418.379L520.176 406.577C521.088 391.304 520.754 375.471 517.442 360.554C516.326 355.524 514.921 350.561 513.987 345.492C513.099 340.678 512.64 335.79 512.614 330.889C512.541 327.377 512.855 323.867 513.55 320.427C515.972 309.335 523.998 299.333 522.831 288.028C530.227 299.189 532.678 311.968 534.992 325.265C536.68 334.965 538.506 344.686 541.702 353.975C545.177 364.073 550.336 374.099 549.602 384.785C549.422 387.013 549.063 389.221 548.528 391.387C546.426 400.356 555.305 408.026 563.492 404.265C563.548 404.24 563.604 404.213 563.66 404.187C571.227 400.6 575.048 391.156 582.767 387.93C586.349 386.432 590.814 386.22 592.266 381.692C592.588 380.646 592.696 379.543 592.583 378.451C592.244 374.789 590.216 371.826 588.637 368.679C585.194 361.812 583.889 354.056 582.651 346.435C581.42 338.863 580.212 331.288 579.027 323.709C578.252 318.754 577.48 313.768 575.897 309.021C575.204 306.943 574.358 304.916 573.802 302.795C571.728 294.869 573.874 286.425 573.006 278.265C572.031 269.086 570.239 259.972 568.277 250.962C565.736 239.291 565.217 227.267 564.809 215.314C564.647 210.566 564.478 205.702 562.739 201.301C560.286 195.093 555.448 190.137 550.221 186.141Z" fill="#2F2E41"/>
<path d="M543.955 80.8522L530.596 73.6516L512.149 76.5972L508.332 93.944L517.833 93.5676L520.487 87.1949V93.4624L524.871 93.2893L527.416 83.1431L529.006 93.944L544.591 93.6167L543.955 80.8522Z" fill="#2F2E41"/>
<path d="M536.928 133.563C538.009 132.51 539.372 131.814 540.841 131.565C541.355 131.562 541.849 131.357 542.222 130.993C542.404 130.674 542.486 130.306 542.457 129.937C542.504 126.605 542.235 123.275 541.654 119.996C542.915 119.536 544.255 119.349 545.59 119.446L557.959 119.482C560.446 119.489 563.021 119.515 565.285 120.577C567.603 121.777 569.465 123.74 570.577 126.153C571.672 128.551 572.476 131.08 572.969 133.681C574.439 140.213 569.162 146.788 568.69 153.475C568.554 155.403 568.712 157.346 568.539 159.272C568.358 161.299 567.812 163.288 567.768 165.324C567.713 167.841 568.425 170.306 569.247 172.677C571.757 179.923 575.331 186.724 578.232 193.813C578.974 195.43 579.473 197.154 579.712 198.925C579.827 199.812 579.765 200.713 579.53 201.575C579.295 202.436 578.893 203.24 578.348 203.937C577.138 205.333 575.297 205.903 573.598 206.57C571.465 207.407 569.428 208.484 567.524 209.781C566.755 210.367 565.925 210.862 565.049 211.257C564.19 211.534 563.31 211.734 562.417 211.856C560.126 212.305 557.961 213.255 555.747 214.011C555.017 214.26 554.174 214.477 553.514 214.071C553.145 213.799 552.848 213.436 552.652 213.014C548.407 205.451 546.909 196.613 545.936 187.937C544.963 179.261 544.426 170.444 541.845 162.124C541.06 159.595 540.086 157.111 539.64 154.496C538.996 150.714 539.479 146.8 538.815 143.022C538.227 139.673 536.703 136.958 536.928 133.563Z" fill="#575A88"/>
<path d="M565.131 205.737C561.449 207.55 558.535 210.432 556.07 213.78C555.548 214.489 556.248 215.811 557.812 215.789C559.267 215.769 560.137 213.849 561.592 213.829C562.037 217.831 562.842 221.782 563.997 225.631C566.9 223.008 568.639 219.315 570.302 215.727L573.59 208.633C574.796 206.029 576.004 203.424 577.092 200.765C577.388 200.143 577.57 199.471 577.631 198.782C577.774 194.206 573.39 194.178 571.499 197.042C569.431 200.174 568.787 203.938 565.131 205.737Z" fill="#FFB8B8"/>
<path d="M565.888 127.067C568.699 130.072 571.529 133.103 573.711 136.619C575.894 140.134 577.41 144.21 577.308 148.38C577.199 149.436 577.237 150.502 577.419 151.547C577.737 152.51 578.21 153.412 578.82 154.213C581.573 158.373 583.711 162.931 585.162 167.738C585.397 168.687 585.746 169.602 586.2 170.462C586.615 171.161 587.181 171.751 587.639 172.422C588.436 173.633 588.873 175.057 588.895 176.519C588.917 177.982 588.524 179.419 587.764 180.655C587.533 180.952 587.365 181.294 587.269 181.66C587.08 182.809 588.481 183.5 588.996 184.538C589.519 185.59 589.019 186.934 588.152 187.709C587.228 188.417 586.164 188.907 585.035 189.143C586.485 191.279 584.725 194.28 584.135 196.813C583.722 198.586 583.728 200.432 583.458 202.233C583.187 204.035 582.579 205.887 581.231 207.07C581.059 207.239 580.848 207.361 580.618 207.423C579.87 207.573 579.36 206.683 579.098 205.946C578.283 203.653 577.46 201.315 576.023 199.373C574.585 197.43 572.407 195.908 570.034 195.916C569.838 195.433 569.756 194.908 569.797 194.387C569.837 193.865 569.998 193.36 570.266 192.915C570.742 191.993 571.439 191.211 571.963 190.316C572.627 189.098 573.079 187.769 573.298 186.39C574.47 180.056 573.29 173.499 569.993 168.016C569.226 166.716 568.299 165.523 567.234 164.468C566.076 163.351 564.72 162.453 563.651 161.245C562.001 159.236 561.004 156.746 560.799 154.125C560.602 151.521 560.669 148.903 561 146.314C561.481 141.174 562.099 136.028 562.813 130.918C562.868 130.252 563.035 129.601 563.308 128.995C563.868 127.92 564.815 127.585 565.888 127.067Z" fill="#575A88"/>
<path d="M638.134 414.869C631.412 427.697 617.146 433.204 617.146 433.204C617.146 433.204 613.778 417.912 620.5 405.084C627.222 392.256 641.488 386.75 641.488 386.75C641.488 386.75 644.856 402.041 638.134 414.869Z" fill="#2F2E41"/>
<path d="M633.514 410.649C621.378 418.162 616.705 433.085 616.705 433.085C616.705 433.085 631.707 435.827 643.843 428.314C655.978 420.801 660.652 405.877 660.652 405.877C660.652 405.877 645.65 403.135 633.514 410.649Z" fill="#3964FC"/>
<path d="M9.29587 392.651C9.29587 392.651 -23.814 413.208 37.2205 444.857C37.2205 444.857 50.6689 419.165 35.8022 398.218C32.9156 394.135 28.674 391.283 23.881 390.203C19.0879 389.122 14.0763 389.888 9.79544 392.356L9.29587 392.651Z" fill="#3964FC"/>
<path d="M9.6748 392.214C9.6748 392.214 38.0129 414.52 37.2377 444.851" stroke="#535461" stroke-miterlimit="10"/>
<path d="M38.8225 445.229C38.8225 445.229 28.4462 408.954 40.7519 382.299C45.99 371.142 47.5697 358.538 45.2538 346.379C44.1095 340.616 42.4545 334.973 40.3097 329.521" stroke="#535461" stroke-width="2" stroke-miterlimit="10"/>
<path d="M47.9937 312.639C47.9937 317.082 40.1785 329.964 40.1785 329.964C40.1785 329.964 32.3633 317.082 32.3633 312.639C32.3633 310.505 33.187 308.459 34.6532 306.95C36.1193 305.441 38.1079 304.594 40.1814 304.594C42.2549 304.594 44.2434 305.441 45.7096 306.95C47.1758 308.459 47.9995 310.505 47.9995 312.639H47.9937Z" fill="#6C63FF"/>
<path d="M60.913 337.267C58.5644 340.996 45.2021 347.436 45.2021 347.436C45.2021 347.436 45.4433 332.25 47.7919 328.528C48.3499 327.641 49.0722 326.877 49.9174 326.277C50.7627 325.678 51.7144 325.256 52.7182 325.035C53.7219 324.814 54.7582 324.799 55.7677 324.99C56.7772 325.181 57.7402 325.575 58.6017 326.15C59.4633 326.724 60.2065 327.467 60.7889 328.337C61.3713 329.206 61.7815 330.186 61.9962 331.219C62.2108 332.252 62.2256 333.318 62.0397 334.357C61.8539 335.396 61.471 336.386 60.913 337.273V337.267Z" fill="#6C63FF"/>
<path d="M60.3501 379.315C56.4971 381.318 41.7969 379.906 41.7969 379.906C41.7969 379.906 49.4571 366.906 53.3101 364.921C55.1613 363.96 57.3074 363.796 59.2765 364.463C61.2456 365.131 62.8763 366.576 63.8099 368.481C64.7434 370.386 64.9034 372.594 64.2546 374.621C63.6057 376.647 62.2013 378.325 60.3501 379.285V379.315Z" fill="#6C63FF"/>
<path d="M52.9602 411.034C49.5148 413.675 34.7744 414.869 34.7744 414.869C34.7744 414.869 40.1894 400.741 43.6635 398.099C44.4888 397.471 45.4263 397.017 46.4224 396.761C47.4185 396.506 48.4538 396.455 49.469 396.611C50.4843 396.768 51.4597 397.128 52.3395 397.673C53.2193 398.217 53.9863 398.934 54.5967 399.783C55.2072 400.633 55.6491 401.597 55.8972 402.622C56.1453 403.648 56.1948 404.713 56.0428 405.758C55.8908 406.802 55.5404 407.806 55.0115 408.711C54.4826 409.617 53.7855 410.406 52.9602 411.034Z" fill="#6C63FF"/>
<path d="M28.7904 348.299C31.8855 351.395 46.3158 354.604 46.3158 354.604C46.3158 354.604 42.7844 339.832 39.6835 336.759C38.9472 336.022 38.0769 335.441 37.1224 335.05C36.168 334.659 35.148 334.465 34.1208 334.48C33.0935 334.494 32.0791 334.717 31.1355 335.135C30.1918 335.553 29.3374 336.158 28.621 336.916C27.9047 337.673 27.3403 338.569 26.9603 339.551C26.5802 340.533 26.3919 341.583 26.406 342.64C26.4201 343.697 26.6365 344.741 27.0426 345.712C27.4488 346.683 28.0368 347.562 28.7732 348.299H28.7904Z" fill="#6C63FF"/>
<path d="M20.6018 385.508C24.4549 387.511 39.1551 386.098 39.1551 386.098C39.1551 386.098 31.4949 373.099 27.6418 371.113C25.7907 370.153 23.6445 369.988 21.6754 370.656C19.7063 371.323 18.0756 372.769 17.1421 374.674C16.2085 376.578 16.0485 378.787 16.6974 380.813C17.3462 382.839 18.7507 384.517 20.6018 385.478V385.508Z" fill="#6C63FF"/>
<path d="M17.4735 422.793C20.9188 425.434 35.6592 426.628 35.6592 426.628C35.6592 426.628 30.2443 412.499 26.7702 409.858C25.1033 408.59 23.015 408.054 20.9646 408.37C18.9142 408.686 17.0698 409.827 15.8369 411.542C14.6041 413.257 14.0839 415.406 14.3908 417.516C14.6978 419.626 15.8066 421.524 17.4735 422.793Z" fill="#6C63FF"/>
<path opacity="0.25" d="M47.9937 312.639C47.9937 317.082 40.1785 329.964 40.1785 329.964C40.1785 329.964 32.3633 317.082 32.3633 312.639C32.3633 310.505 33.187 308.459 34.6532 306.95C36.1193 305.441 38.1079 304.594 40.1814 304.594C42.2549 304.594 44.2434 305.441 45.7096 306.95C47.1758 308.459 47.9995 310.505 47.9995 312.639H47.9937Z" fill="#071D69"/>
<path opacity="0.25" d="M60.913 337.267C58.5644 340.996 45.2021 347.436 45.2021 347.436C45.2021 347.436 45.4433 332.25 47.7919 328.528C48.3499 327.641 49.0722 326.877 49.9174 326.277C50.7627 325.678 51.7144 325.256 52.7182 325.035C53.7219 324.814 54.7582 324.799 55.7677 324.99C56.7772 325.181 57.7402 325.575 58.6017 326.15C59.4633 326.724 60.2065 327.467 60.7889 328.337C61.3713 329.206 61.7815 330.186 61.9962 331.219C62.2108 332.252 62.2256 333.318 62.0397 334.357C61.8539 335.396 61.471 336.386 60.913 337.273V337.267Z" fill="#071D69"/>
<path opacity="0.25" d="M60.3501 379.315C56.4971 381.318 41.7969 379.906 41.7969 379.906C41.7969 379.906 49.4571 366.906 53.3101 364.921C55.1613 363.96 57.3074 363.796 59.2765 364.463C61.2456 365.131 62.8763 366.576 63.8099 368.481C64.7434 370.386 64.9034 372.594 64.2546 374.621C63.6057 376.647 62.2013 378.325 60.3501 379.285V379.315Z" fill="#071D69"/>
<path opacity="0.25" d="M52.9602 411.034C49.5148 413.675 34.7744 414.869 34.7744 414.869C34.7744 414.869 40.1894 400.741 43.6635 398.099C44.4888 397.471 45.4263 397.017 46.4224 396.761C47.4185 396.506 48.4538 396.455 49.469 396.611C50.4843 396.768 51.4597 397.128 52.3395 397.673C53.2193 398.217 53.9863 398.934 54.5967 399.783C55.2072 400.633 55.6491 401.597 55.8972 402.622C56.1453 403.648 56.1948 404.713 56.0428 405.758C55.8908 406.802 55.5404 407.806 55.0115 408.711C54.4826 409.617 53.7855 410.406 52.9602 411.034Z" fill="#071D69"/>
<path opacity="0.25" d="M28.7904 348.299C31.8855 351.395 46.3158 354.604 46.3158 354.604C46.3158 354.604 42.7844 339.832 39.6835 336.759C38.9472 336.022 38.0769 335.441 37.1224 335.05C36.168 334.659 35.148 334.465 34.1208 334.48C33.0935 334.494 32.0791 334.717 31.1355 335.135C30.1918 335.553 29.3374 336.158 28.621 336.916C27.9047 337.673 27.3403 338.569 26.9603 339.551C26.5802 340.533 26.3919 341.583 26.406 342.64C26.4201 343.697 26.6365 344.741 27.0426 345.712C27.4488 346.683 28.0368 347.562 28.7732 348.299H28.7904Z" fill="#071D69"/>
<path opacity="0.25" d="M20.6018 385.508C24.4549 387.511 39.1551 386.098 39.1551 386.098C39.1551 386.098 31.4949 373.099 27.6418 371.113C25.7907 370.153 23.6445 369.988 21.6754 370.656C19.7063 371.323 18.0756 372.769 17.1421 374.674C16.2085 376.578 16.0485 378.787 16.6974 380.813C17.3462 382.839 18.7507 384.517 20.6018 385.478V385.508Z" fill="#071D69"/>
<path opacity="0.25" d="M17.4735 422.793C20.9188 425.434 35.6592 426.628 35.6592 426.628C35.6592 426.628 30.2443 412.499 26.7702 409.858C25.1033 408.59 23.015 408.054 20.9646 408.37C18.9142 408.686 17.0698 409.827 15.8369 411.542C14.6041 413.257 14.0839 415.406 14.3908 417.516C14.6978 419.626 15.8066 421.524 17.4735 422.793Z" fill="#071D69"/>
<path d="M62.8309 445.92C62.8309 445.92 52.4546 409.669 64.7775 382.99C70.0157 371.834 71.5954 359.229 69.2795 347.07C68.1352 341.307 66.4802 335.664 64.3354 330.212" stroke="#535461" stroke-width="2" stroke-miterlimit="10"/>
<path d="M72.0015 313.348C72.0015 317.791 64.1863 330.673 64.1863 330.673C64.1863 330.673 56.3711 317.791 56.3711 313.348C56.3711 311.214 57.1948 309.168 58.661 307.659C60.1271 306.15 62.1157 305.303 64.1892 305.303C66.2627 305.303 68.2512 306.15 69.7174 307.659C71.1836 309.168 72.0073 311.214 72.0073 313.348H72.0015Z" fill="#3964FC"/>
<path d="M84.9267 337.953C82.5781 341.681 69.2158 348.122 69.2158 348.122C69.2158 348.122 69.457 332.936 71.8056 329.213C72.9326 327.423 74.7046 326.166 76.7318 325.72C78.759 325.274 80.8754 325.675 82.6154 326.835C84.3554 327.995 85.5764 329.818 86.0098 331.904C86.4433 333.99 86.0536 336.168 84.9267 337.958V337.953Z" fill="#3964FC"/>
<path d="M84.3589 380C80.5059 382.004 65.8057 380.591 65.8057 380.591C65.8057 380.591 73.4658 367.592 77.3189 365.606C78.2374 365.131 79.2379 364.846 80.2634 364.768C81.2888 364.69 82.3191 364.821 83.2955 365.153C84.2718 365.485 85.175 366.012 85.9536 366.703C86.7321 367.394 87.3708 368.236 87.833 369.181C88.2953 370.126 88.5721 371.156 88.6477 372.211C88.7233 373.266 88.5961 374.327 88.2735 375.331C87.9509 376.336 87.4392 377.265 86.7675 378.066C86.0958 378.868 85.2774 379.525 84.3589 380Z" fill="#3964FC"/>
<path d="M76.968 411.725C73.5226 414.367 58.7822 415.56 58.7822 415.56C58.7822 415.56 64.1972 401.432 67.6713 398.791C68.4966 398.163 69.4341 397.708 70.4302 397.453C71.4264 397.197 72.4616 397.146 73.4768 397.303C74.4921 397.459 75.4675 397.82 76.3473 398.364C77.2271 398.908 77.9941 399.626 78.6045 400.475C79.215 401.324 79.6569 402.289 79.905 403.314C80.1531 404.339 80.2026 405.404 80.0506 406.449C79.8987 407.494 79.5482 408.497 79.0193 409.403C78.4904 410.308 77.7933 411.097 76.968 411.725Z" fill="#3964FC"/>
<path d="M52.8109 348.985C55.906 352.081 70.3363 355.289 70.3363 355.289C70.3363 355.289 66.8049 340.517 63.704 337.444C62.9677 336.707 62.0974 336.126 61.1429 335.735C60.1885 335.344 59.1685 335.15 58.1413 335.165C57.114 335.18 56.0996 335.402 55.156 335.82C54.2123 336.238 53.3579 336.843 52.6415 337.601C51.9252 338.359 51.3608 339.254 50.9808 340.236C50.6007 341.219 50.4124 342.268 50.4265 343.325C50.4407 344.382 50.657 345.426 51.0631 346.397C51.4693 347.368 52.0574 348.247 52.7937 348.985H52.8109Z" fill="#3964FC"/>
<path d="M44.6116 386.193C48.4646 388.196 63.1648 386.784 63.1648 386.784C63.1648 386.784 55.5046 373.784 51.6516 371.799C49.8004 370.838 47.6542 370.674 45.6852 371.341C43.7161 372.009 42.0854 373.454 41.1518 375.359C40.2183 377.264 40.0583 379.472 40.7071 381.499C41.3559 383.525 42.7604 385.203 44.6116 386.163V386.193Z" fill="#3964FC"/>
<path d="M41.4813 423.484C44.9267 426.125 59.6671 427.319 59.6671 427.319C59.6671 427.319 54.2521 413.191 50.778 410.55C49.1112 409.281 47.0228 408.746 44.9724 409.061C42.9221 409.377 41.0776 410.518 39.8447 412.234C38.6119 413.949 38.0917 416.098 38.3987 418.208C38.7056 420.318 39.8144 422.216 41.4813 423.484Z" fill="#3964FC"/>
</svg>
